<?xml version="1.0" encoding="UTF-8" standalone="no"?>
<svg
   xmlns:dc="http://purl.org/dc/elements/1.1/"
   xmlns:cc="http://creativecommons.org/ns#"
   xmlns:rdf="http://www.w3.org/1999/02/22-rdf-syntax-ns#"
   xmlns:svg="http://www.w3.org/2000/svg"
   xmlns="http://www.w3.org/2000/svg"
   xmlns:sodipodi="http://sodipodi.sourceforge.net/DTD/sodipodi-0.dtd"
   xmlns:inkscape="http://www.inkscape.org/namespaces/inkscape"
   width="147.41072mm"
   height="147.41072mm"
   viewBox="0 0 147.41072 147.41072"
   version="1.1"
   id="svg8"
   inkscape:version="1.0.2 (e86c870879, 2021-01-15, custom)"
   sodipodi:docname="Emulator_Icon.svg"
   inkscape:export-filename="D:\Repositories\HARIA\Graphics\Emulator_Icon.png"
   inkscape:export-xdpi="96"
   inkscape:export-ydpi="96">
  <defs
     id="defs2">
    <marker
       style="overflow:visible"
       id="Arrow1Lend"
       refX="0"
       refY="0"
       orient="auto"
       inkscape:stockid="Arrow1Lend"
       inkscape:isstock="true">
      <path
         transform="matrix(-0.8,0,0,-0.8,-10,0)"
         style="fill-rule:evenodd;stroke:#000000;stroke-width:1pt"
         d="M 0,0 5,-5 -12.5,0 5,5 Z"
         id="path906" />
    </marker>
    <marker
       style="overflow:visible"
       id="Arrow1Lstart"
       refX="0"
       refY="0"
       orient="auto"
       inkscape:stockid="Arrow1Lstart"
       inkscape:isstock="true">
      <path
         transform="matrix(0.8,0,0,0.8,10,0)"
         style="fill-rule:evenodd;stroke:#000000;stroke-width:1pt"
         d="M 0,0 5,-5 -12.5,0 5,5 Z"
         id="path903" />
    </marker>
  </defs>
  <sodipodi:namedview
     id="base"
     pagecolor="#ffffff"
     bordercolor="#666666"
     borderopacity="1.0"
     inkscape:pageopacity="0.0"
     inkscape:pageshadow="2"
     inkscape:zoom="0.35"
     inkscape:cx="-106.30933"
     inkscape:cy="320.57173"
     inkscape:document-units="mm"
     inkscape:current-layer="g901"
     inkscape:document-rotation="0"
     showgrid="false"
     inkscape:window-width="1920"
     inkscape:window-height="1017"
     inkscape:window-x="1912"
     inkscape:window-y="-8"
     inkscape:window-maximized="1" />
  <metadata
     id="metadata5">
    <rdf:RDF>
      <cc:Work
         rdf:about="">
        <dc:format>image/svg+xml</dc:format>
        <dc:type
           rdf:resource="http://purl.org/dc/dcmitype/StillImage" />
        <dc:title></dc:title>
      </cc:Work>
    </rdf:RDF>
  </metadata>
  <g
     inkscape:label="Layer 1"
     inkscape:groupmode="layer"
     id="layer1"
     transform="translate(391.48884,-0.39741248)">
    <g
       id="g901"
       transform="translate(3.3901924)"
       style="stroke-width:2.4;stroke-miterlimit:4;stroke-dasharray:none">
      <rect
         style="fill:#800080;stroke:none;stroke-width:1.67742;stroke-linecap:round;stroke-linejoin:round;stroke-miterlimit:4;stroke-dasharray:none;paint-order:stroke fill markers"
         id="rect1197"
         width="147.41072"
         height="147.41072"
         x="-394.87903"
         y="0.39741248"
         ry="16.532522" />
      <g
         id="g1911"
         transform="matrix(1.0403806,0,0,1.0403806,-7.7794999,-12.688322)">
        <path
           id="path833"
           style="fill:none;stroke:#f9f9f9;stroke-width:3.64666;stroke-linejoin:round;stroke-miterlimit:4;stroke-dasharray:none"
           d="m -356.14956,34.093062 c -0.0562,-0.0037 -0.0931,0.03439 -0.0894,0.102719 l 1.43029,26.327743 a 46.636677,37.460795 0 0 0 -0.018,0.02109 46.636677,37.460795 0 0 0 -0.12206,0.141569 46.636677,37.460795 0 0 0 -0.0289,0.03427 46.636677,37.460795 0 0 0 -0.11032,0.130041 46.636677,37.460795 0 0 0 -0.0246,0.02962 46.636677,37.460795 0 0 0 -0.12757,0.1521 46.636677,37.460795 0 0 0 -0.14149,0.170869 46.636677,37.460795 0 0 0 -0.14038,0.171201 46.636677,37.460795 0 0 0 -0.26722,0.332189 46.636677,37.460795 0 0 0 -0.0546,0.06849 46.636677,37.460795 0 0 0 -0.0715,0.09087 46.636677,37.460795 0 0 0 -0.0917,0.116876 46.636677,37.460795 0 0 0 -0.0385,0.0497 46.636677,37.460795 0 0 0 -0.0678,0.08724 46.636677,37.460795 0 0 0 -0.0825,0.107332 46.636677,37.460795 0 0 0 -0.0334,0.04345 46.636677,37.460795 0 0 0 -0.11033,0.145187 46.636677,37.460795 0 0 0 -0.10264,0.136307 46.636677,37.460795 0 0 0 -0.12499,0.167576 46.636677,37.460795 0 0 0 -0.11069,0.150456 46.636677,37.460795 0 0 0 -0.0282,0.03784 46.636677,37.460795 0 0 0 -0.0843,0.116543 46.636677,37.460795 0 0 0 -0.0356,0.04874 46.636677,37.460795 0 0 0 -0.0348,0.04842 46.636677,37.460795 0 0 0 -0.12719,0.177782 46.636677,37.460795 0 0 0 -0.10631,0.150457 46.636677,37.460795 0 0 0 -0.0517,0.07342 46.636677,37.460795 0 0 0 -0.0858,0.123131 46.636677,37.460795 0 0 0 -0.0337,0.04874 46.636677,37.460795 0 0 0 -0.088,0.128069 46.636677,37.460795 0 0 0 -0.0238,0.0349 46.636677,37.460795 0 0 0 -0.10298,0.151114 46.636677,37.460795 0 0 0 -0.0249,0.03717 46.636677,37.460795 0 0 0 -0.0682,0.101731 46.636677,37.460795 0 0 0 -0.0326,0.04908 46.636677,37.460795 0 0 0 -0.11984,0.181075 46.636677,37.460795 0 0 0 -0.11877,0.181736 46.636677,37.460795 0 0 0 -0.088,0.136296 46.636677,37.460795 0 0 0 -0.096,0.150135 46.636677,37.460795 0 0 0 -0.0294,0.04604 46.636677,37.460795 0 0 0 -0.0407,0.06455 46.636677,37.460795 0 0 0 -0.0946,0.151113 46.636677,37.460795 0 0 0 -0.11362,0.183715 46.636677,37.460795 0 0 0 -0.0993,0.162307 46.636677,37.460795 0 0 0 -0.0334,0.05497 46.636677,37.460795 0 0 0 -0.0909,0.151447 46.636677,37.460795 0 0 0 -0.10924,0.183715 46.636677,37.460795 0 0 0 -0.002,0.0035 46.636677,37.460795 0 0 0 -0.10741,0.183382 46.636677,37.460795 0 0 0 -0.002,0.0028 46.636677,37.460795 0 0 0 -0.0872,0.15112 46.636677,37.460795 0 0 0 -0.0612,0.10732 46.636677,37.460795 0 0 0 -0.0553,0.09778 46.636677,37.460795 0 0 0 -0.0275,0.04873 46.636677,37.460795 0 0 0 -0.0799,0.141899 46.636677,37.460795 0 0 0 -0.015,0.02702 46.636677,37.460795 0 0 0 -0.0942,0.170868 46.636677,37.460795 0 0 0 -0.096,0.176799 46.636677,37.460795 0 0 0 -0.0206,0.03781 46.636677,37.460795 0 0 0 -0.0865,0.161988 46.636677,37.460795 0 0 0 -0.0993,0.187658 46.636677,37.460795 0 0 0 -3.7e-4,0.0015 46.636677,37.460795 0 0 0 -0.0718,0.137942 46.636677,37.460795 0 0 0 -0.0905,0.175805 46.636677,37.460795 0 0 0 -0.0122,0.02405 46.636677,37.460795 0 0 0 -0.0422,0.08296 46.636677,37.460795 0 0 0 -0.0747,0.148482 46.636677,37.460795 0 0 0 -0.0946,0.190623 46.636677,37.460795 0 0 0 -0.0689,0.14058 46.636677,37.460795 0 0 0 -0.0587,0.121486 46.636677,37.460795 0 0 0 -0.0575,0.120499 46.636677,37.460795 0 0 0 -0.0747,0.15803 46.636677,37.460795 0 0 0 -0.0381,0.08132 46.636677,37.460795 0 0 0 -0.0671,0.144532 46.636677,37.460795 0 0 0 -0.088,0.192595 46.636677,37.460795 0 0 0 -0.0806,0.179103 46.636677,37.460795 0 0 0 -0.0249,0.05632 46.636677,37.460795 0 0 0 -0.056,0.127409 46.636677,37.460795 0 0 0 -0.0455,0.104036 46.636677,37.460795 0 0 0 -0.0359,0.08231 46.636677,37.460795 0 0 0 -0.0499,0.116542 46.636677,37.460795 0 0 0 -0.0315,0.07474 46.636677,37.460795 0 0 0 -0.0458,0.107979 46.636677,37.460795 0 0 0 -0.0473,0.113911 46.636677,37.460795 0 0 0 -0.008,0.01979 46.636677,37.460795 0 0 0 -0.0671,0.162967 46.636677,37.460795 0 0 0 -0.0217,0.05299 46.636677,37.460795 0 0 0 -0.0645,0.160662 46.636677,37.460795 0 0 0 -0.0711,0.179103 46.636677,37.460795 0 0 0 -0.0345,0.08856 46.636677,37.460795 0 0 0 -0.0389,0.100411 46.636677,37.460795 0 0 0 -0.0301,0.07803 46.636677,37.460795 0 0 0 -0.0448,0.117534 46.636677,37.460795 0 0 0 -0.0293,0.0777 46.636677,37.460795 0 0 0 -0.052,0.140255 46.636677,37.460795 0 0 0 -0.004,0.0085 46.636677,37.460795 0 0 0 -0.0671,0.183047 46.636677,37.460795 0 0 0 -0.0113,0.03164 46.636677,37.460795 0 0 0 -0.0549,0.152433 46.636677,37.460795 0 0 0 -0.0337,0.09647 46.636677,37.460795 0 0 0 -0.0359,0.102058 46.636677,37.460795 0 0 0 -0.0172,0.04973 46.636677,37.460795 0 0 0 -0.0549,0.159015 46.636677,37.460795 0 0 0 -0.0169,0.05036 46.636677,37.460795 0 0 0 -0.0422,0.124451 46.636677,37.460795 0 0 0 -0.0374,0.113584 46.636677,37.460795 0 0 0 -0.0341,0.10371 46.636677,37.460795 0 0 0 -0.0129,0.03951 46.636677,37.460795 0 0 0 -0.0473,0.145851 46.636677,37.460795 0 0 0 -0.044,0.139594 46.636677,37.460795 0 0 0 -0.0176,0.05632 46.636677,37.460795 0 0 0 -0.0209,0.06682 46.636677,37.460795 0 0 0 -0.0414,0.13465 46.636677,37.460795 0 0 0 -0.0341,0.112265 46.636677,37.460795 0 0 0 -0.0279,0.0935 46.636677,37.460795 0 0 0 -0.0201,0.06781 46.636677,37.460795 0 0 0 -0.0385,0.131366 46.636677,37.460795 0 0 0 -0.0246,0.08593 46.636677,37.460795 0 0 0 -0.0305,0.106015 46.636677,37.460795 0 0 0 -0.0352,0.125103 46.636677,37.460795 0 0 0 -0.0209,0.07507 46.636677,37.460795 0 0 0 -0.0208,0.07638 46.636677,37.460795 0 0 0 -0.0374,0.13663 46.636677,37.460795 0 0 0 -0.0125,0.04739 46.636677,37.460795 0 0 0 -0.0447,0.169882 46.636677,37.460795 0 0 0 -0.0454,0.175479 46.636677,37.460795 0 0 0 -0.0323,0.127735 46.636677,37.460795 0 0 0 -0.0165,0.06654 46.636677,37.460795 0 0 0 -0.0239,0.09745 46.636677,37.460795 0 0 0 -0.0264,0.107001 46.636677,37.460795 0 0 0 -0.0169,0.07177 46.636677,37.460795 0 0 0 -0.0374,0.159342 46.636677,37.460795 0 0 0 -0.0462,0.201497 46.636677,37.460795 0 0 0 -0.0396,0.177778 46.636677,37.460795 0 0 0 -0.0132,0.06093 46.636677,37.460795 0 0 0 -0.0355,0.165598 46.636677,37.460795 0 0 0 -0.0422,0.202476 46.636677,37.460795 0 0 0 -0.0406,0.202475 46.636677,37.460795 0 0 0 -0.0348,0.178118 46.636677,37.460795 0 0 0 -0.0117,0.06157 46.636677,37.460795 0 0 0 -0.0308,0.165932 46.636677,37.460795 0 0 0 -0.0293,0.163292 46.636677,37.460795 0 0 0 -0.0279,0.159349 46.636677,37.460795 0 0 0 -0.008,0.04149 46.636677,37.460795 0 0 0 -0.015,0.08758 46.636677,37.460795 0 0 0 -0.026,0.158022 46.636677,37.460795 0 0 0 -0.026,0.161329 46.636677,37.460795 0 0 0 -0.0161,0.105348 46.636677,37.460795 0 0 0 -0.0213,0.139261 46.636677,37.460795 0 0 0 0,0.0015 46.636677,37.460795 0 0 0 -0.0217,0.148489 46.636677,37.460795 0 0 0 -0.0154,0.108966 46.636677,37.460795 0 0 0 -0.0209,0.150461 46.636677,37.460795 0 0 0 -0.0264,0.201816 46.636677,37.460795 0 0 0 -3.5e-4,0.0021 46.636677,37.460795 0 0 0 -0.0187,0.148816 46.636677,37.460795 0 0 0 -0.0165,0.137289 46.636677,37.460795 0 0 0 -0.0143,0.122471 46.636677,37.460795 0 0 0 -0.0227,0.204455 46.636677,37.460795 0 0 0 -0.0209,0.202142 46.636677,37.460795 0 0 0 -3.7e-4,0.0028 46.636677,37.460795 0 0 0 -0.0147,0.148816 46.636677,37.460795 0 0 0 -0.0132,0.142226 46.636677,37.460795 0 0 0 -0.009,0.102717 46.636677,37.460795 0 0 0 -0.002,0.01518 46.636677,37.460795 0 0 0 -0.0125,0.149135 46.636677,37.460795 0 0 0 -0.0129,0.16264 46.636677,37.460795 0 0 0 -0.006,0.08429 46.636677,37.460795 0 0 0 -0.003,0.04051 46.636677,37.460795 0 0 0 -0.0113,0.16198 46.636677,37.460795 0 0 0 -0.002,0.01582 46.636677,37.460795 0 0 0 -0.01,0.149468 46.636677,37.460795 0 0 0 -0.009,0.161328 46.636677,37.460795 0 0 0 -0.005,0.08592 46.636677,37.460795 0 0 0 -0.002,0.04051 46.636677,37.460795 0 0 0 -0.008,0.152752 46.636677,37.460795 0 0 0 -0.005,0.125436 46.636677,37.460795 0 0 0 -0.004,0.07408 46.636677,37.460795 0 0 0 -0.004,0.08889 46.636677,37.460795 0 0 0 -0.005,0.122145 46.636677,37.460795 0 0 0 -0.003,0.09877 46.636677,37.460795 0 0 0 -0.004,0.112272 46.636677,37.460795 0 0 0 -0.002,0.0576 46.636677,37.460795 0 0 0 -0.004,0.137622 46.636677,37.460795 0 0 0 -0.002,0.143213 46.636677,37.460795 0 0 0 -0.002,0.05235 46.636677,37.460795 0 0 0 -0.002,0.114576 46.636677,37.460795 0 0 0 -7e-4,0.09745 46.636677,37.460795 0 0 0 -7.1e-4,0.180749 46.636677,37.460795 0 0 0 7.1e-4,0.205108 46.636677,37.460795 0 0 0 0.002,0.205107 46.636677,37.460795 0 0 0 0.003,0.177124 46.636677,37.460795 0 0 0 0.004,0.14256 46.636677,37.460795 0 0 0 0.002,0.07473 46.636677,37.460795 0 0 0 0.002,0.04873 46.636677,37.460795 0 0 0 0.005,0.172507 46.636677,37.460795 0 0 0 0.008,0.204781 46.636677,37.460795 0 0 0 0.009,0.205107 46.636677,37.460795 0 0 0 0.009,0.190957 46.636677,37.460795 0 0 0 0.005,0.07079 46.636677,37.460795 0 0 0 0.006,0.107987 46.636677,37.460795 0 0 0 0.003,0.04015 46.636677,37.460795 0 0 0 0.0132,0.205114 46.636677,37.460795 0 0 0 0.0125,0.175146 46.636677,37.460795 0 0 0 0.009,0.11852 46.636677,37.460795 0 0 0 0.008,0.101079 46.636677,37.460795 0 0 0 0.002,0.01475 46.636677,37.460795 0 0 0 0.014,0.164619 46.636677,37.460795 0 0 0 0.0106,0.119181 46.636677,37.460795 0 0 0 0.0117,0.125436 46.636677,37.460795 0 0 0 0.018,0.18404 46.636677,37.460795 0 0 0 0.009,0.08198 46.636677,37.460795 0 0 0 0.0135,0.128067 46.636677,37.460795 0 0 0 0.002,0.01482 46.636677,37.460795 0 0 0 0.0187,0.164287 46.636677,37.460795 0 0 0 0.0135,0.114902 46.636677,37.460795 0 0 0 0.0154,0.129388 46.636677,37.460795 0 0 0 0.0227,0.181075 46.636677,37.460795 0 0 0 0.0176,0.131033 46.636677,37.460795 0 0 0 0.0106,0.08066 46.636677,37.460795 0 0 0 0.006,0.04277 46.636677,37.460795 0 0 0 0.0246,0.176473 46.636677,37.460795 0 0 0 0.0301,0.203795 46.636677,37.460795 0 0 0 0.0279,0.181728 46.636677,37.460795 0 0 0 0.0172,0.10832 46.636677,37.460795 0 0 0 0.0187,0.115556 46.636677,37.460795 0 0 0 7.1e-4,0.0035 46.636677,37.460795 0 0 0 0.0334,0.199844 46.636677,37.460795 0 0 0 3.6e-4,0.0015 46.636677,37.460795 0 0 0 0.0286,0.1633 46.636677,37.460795 0 0 0 0.0297,0.163952 46.636677,37.460795 0 0 0 0.0103,0.05724 46.636677,37.460795 0 0 0 0.0129,0.0688 46.636677,37.460795 0 0 0 0.0271,0.144858 46.636677,37.460795 0 0 0 0.009,0.04774 46.636677,37.460795 0 0 0 0.0326,0.165599 46.636677,37.460795 0 0 0 0.0411,0.202475 46.636677,37.460795 0 0 0 0.0414,0.196879 46.636677,37.460795 0 0 0 0.004,0.01809 46.636677,37.460795 0 0 0 0.0404,0.186013 46.636677,37.460795 0 0 0 0.005,0.01943 46.636677,37.460795 0 0 0 0.0418,0.186012 46.636677,37.460795 0 0 0 0.0465,0.201817 46.636677,37.460795 0 0 0 0.0436,0.183054 46.636677,37.460795 0 0 0 0.005,0.01844 46.636677,37.460795 0 0 0 0.0396,0.161981 46.636677,37.460795 0 0 0 0.0267,0.107994 46.636677,37.460795 0 0 0 0.0337,0.132345 46.636677,37.460795 0 0 0 0.0465,0.180089 46.636677,37.460795 0 0 0 0.0289,0.108647 46.636677,37.460795 0 0 0 0.0242,0.09054 46.636677,37.460795 0 0 0 0.005,0.02234 46.636677,37.460795 0 0 0 0.044,0.160995 46.636677,37.460795 0 0 0 0.0528,0.189311 46.636677,37.460795 0 0 0 0.005,0.01412 46.636677,37.460795 0 0 0 0.0436,0.152426 46.636677,37.460795 0 0 0 0.0169,0.05895 46.636677,37.460795 0 0 0 0.0286,0.09778 46.636677,37.460795 0 0 0 0.0337,0.11391 46.636677,37.460795 0 0 0 0.0135,0.04448 46.636677,37.460795 0 0 0 0.0506,0.167251 46.636677,37.460795 0 0 0 0.0539,0.174493 46.636677,37.460795 0 0 0 0.0334,0.105682 46.636677,37.460795 0 0 0 0.0326,0.10305 46.636677,37.460795 0 0 0 0.005,0.01482 46.636677,37.460795 0 0 0 0.0517,0.159676 46.636677,37.460795 0 0 0 0.0653,0.198198 46.636677,37.460795 0 0 0 0.0579,0.172514 46.636677,37.460795 0 0 0 0.0113,0.03291 46.636677,37.460795 0 0 0 0.0502,0.146177 46.636677,37.460795 0 0 0 0.0206,0.05895 46.636677,37.460795 0 0 0 0.008,0.02405 46.636677,37.460795 0 0 0 0.0561,0.158689 46.636677,37.460795 0 0 0 0.0631,0.176139 46.636677,37.460795 0 0 0 0.01,0.02731 46.636677,37.460795 0 0 0 0.0513,0.139261 46.636677,37.460795 0 0 0 0.026,0.07044 46.636677,37.460795 0 0 0 0.0264,0.07079 46.636677,37.460795 0 0 0 0.0499,0.133012 46.636677,37.460795 0 0 0 0.005,0.01184 46.636677,37.460795 0 0 0 0.0605,0.157697 46.636677,37.460795 0 0 0 0.0377,0.09712 46.636677,37.460795 0 0 0 0.0536,0.136962 46.636677,37.460795 0 0 0 0.0762,0.192269 46.636677,37.460795 0 0 0 0.005,0.01447 46.636677,37.460795 0 0 0 0.0748,0.184041 46.636677,37.460795 0 0 0 0.0649,0.157363 46.636677,37.460795 0 0 0 0.0495,0.118194 46.636677,37.460795 0 0 0 0.0447,0.106015 46.636677,37.460795 0 0 0 0.0198,0.04674 46.636677,37.460795 0 0 0 0.059,0.137615 46.636677,37.460795 0 0 0 0.0715,0.164285 46.636677,37.460795 0 0 0 0.005,0.0096 46.636677,37.460795 0 0 0 0.0715,0.161981 46.636677,37.460795 0 0 0 0.0176,0.03915 46.636677,37.460795 0 0 0 0.0572,0.127408 46.636677,37.460795 0 0 0 0.0363,0.08 46.636677,37.460795 0 0 0 0.0179,0.03887 46.636677,37.460795 0 0 0 0.077,0.167903 46.636677,37.460795 0 0 0 0.0788,0.169552 46.636677,37.460795 0 0 0 0.0634,0.133339 46.636677,37.460795 0 0 0 0.0308,0.06518 46.636677,37.460795 0 0 0 0.0429,0.0889 46.636677,37.460795 0 0 0 0.044,0.09119 46.636677,37.460795 0 0 0 0.0355,0.07342 46.636677,37.460795 0 0 0 0.0711,0.144524 46.636677,37.460795 0 0 0 0.0913,0.183048 46.636677,37.460795 0 0 0 0.0147,0.0293 46.636677,37.460795 0 0 0 0.081,0.160335 46.636677,37.460795 0 0 0 0.005,0.0079 46.636677,37.460795 0 0 0 0.0784,0.152433 46.636677,37.460795 0 0 0 0.0851,0.163626 46.636677,37.460795 0 0 0 0.0161,0.03128 46.636677,37.460795 0 0 0 0.0971,0.183376 46.636677,37.460795 0 0 0 0.0623,0.116547 46.636677,37.460795 0 0 0 0.0587,0.10865 46.636677,37.460795 0 0 0 0.0847,0.155384 46.636677,37.460795 0 0 0 0.018,0.0326 46.636677,37.460795 0 0 0 0.0836,0.150787 46.636677,37.460795 0 0 0 0.10483,0.187 46.636677,37.460795 0 0 0 0.0751,0.131696 46.636677,37.460795 0 0 0 0.0502,0.08791 46.636677,37.460795 0 0 0 0.006,0.01148 46.636677,37.460795 0 0 0 0.0818,0.141574 46.636677,37.460795 0 0 0 0.0213,0.03619 46.636677,37.460795 0 0 0 0.0898,0.152775 46.636677,37.460795 0 0 0 0.0982,0.165921 46.636677,37.460795 0 0 0 0.0132,0.02204 46.636677,37.460795 0 0 0 0.0637,0.10601 46.636677,37.460795 0 0 0 0.0542,0.09022 46.636677,37.460795 0 0 0 0.0578,0.09416 46.636677,37.460795 0 0 0 0.0565,0.09251 46.636677,37.460795 0 0 0 0.01,0.01584 46.636677,37.460795 0 0 0 0.0916,0.147497 46.636677,37.460795 0 0 0 0.0971,0.154405 46.636677,37.460795 0 0 0 0.0289,0.04644 46.636677,37.460795 0 0 0 0.0641,0.100746 46.636677,37.460795 0 0 0 0.0461,0.07246 46.636677,37.460795 0 0 0 0.099,0.153418 46.636677,37.460795 0 0 0 0.0187,0.02862 46.636677,37.460795 0 0 0 0.018,0.0277 46.636677,37.460795 0 0 0 0.0957,0.14618 46.636677,37.460795 0 0 0 0.11437,0.172845 46.636677,37.460795 0 0 0 0.008,0.01186 46.636677,37.460795 0 0 0 0.0975,0.145193 46.636677,37.460795 0 0 0 0.0293,0.04377 46.636677,37.460795 0 0 0 0.0568,0.08329 46.636677,37.460795 0 0 0 0.0755,0.110624 46.636677,37.460795 0 0 0 0.0264,0.03849 46.636677,37.460795 0 0 0 0.10119,0.146503 46.636677,37.460795 0 0 0 0.0169,0.024 46.636677,37.460795 0 0 0 0.10118,0.14487 46.636677,37.460795 0 0 0 0.0443,0.0629 46.636677,37.460795 0 0 0 0.0825,0.11622 46.636677,37.460795 0 0 0 0.009,0.0129 46.636677,37.460795 0 0 0 0.10264,0.14288 46.636677,37.460795 0 0 0 0.1283,0.17713 46.636677,37.460795 0 0 0 0.0942,0.12808 46.636677,37.460795 0 0 0 0.052,0.0708 46.636677,37.460795 0 0 0 0.009,0.0125 46.636677,37.460795 0 0 0 0.10557,0.14157 46.636677,37.460795 0 0 0 0.088,0.11687 46.636677,37.460795 0 0 0 0.0612,0.0813 46.636677,37.460795 0 0 0 0.048,0.0629 46.636677,37.460795 0 0 0 0.0938,0.1228 46.636677,37.460795 0 0 0 0.002,0.003 46.636677,37.460795 0 0 0 0.13379,0.17251 46.636677,37.460795 0 0 0 0.10926,0.13993 46.636677,37.460795 0 0 0 0.0792,0.10041 46.636677,37.460795 0 0 0 0.0847,0.10635 46.636677,37.460795 0 0 0 0.13049,0.16264 46.636677,37.460795 0 0 0 0.0429,0.0533 46.636677,37.460795 0 0 0 0.077,0.0948 46.636677,37.460795 0 0 0 0.0275,0.0336 46.636677,37.460795 0 0 0 0.13233,0.16133 46.636677,37.460795 0 0 0 0.008,0.01 46.636677,37.460795 0 0 0 0.11401,0.13728 46.636677,37.460795 0 0 0 0.10482,0.12512 46.636677,37.460795 0 0 0 0.0627,0.0738 46.636677,37.460795 0 0 0 0.004,0.005 46.636677,37.460795 0 0 0 0.11583,0.1363 46.636677,37.460795 0 0 0 0.0913,0.10634 46.636677,37.460795 0 0 0 0.0788,0.0919 46.636677,37.460795 0 0 0 0.0154,0.0174 46.636677,37.460795 0 0 0 0.10557,0.12148 46.636677,37.460795 0 0 0 0.0289,0.0329 46.636677,37.460795 0 0 0 0.14771,0.16725 46.636677,37.460795 0 0 0 0.11951,0.13432 46.636677,37.460795 0 0 0 0.1107,0.1228 46.636677,37.460795 0 0 0 0.0641,0.0712 46.636677,37.460795 0 0 0 0.0154,0.0171 46.636677,37.460795 0 0 0 0.13379,0.14683 46.636677,37.460795 0 0 0 0.0385,0.0415 46.636677,37.460795 0 0 0 0.11619,0.12578 46.636677,37.460795 0 0 0 0.0125,0.0135 46.636677,37.460795 0 0 0 0.13491,0.14453 46.636677,37.460795 0 0 0 0.0605,0.0642 46.636677,37.460795 0 0 0 0.0986,0.10403 46.636677,37.460795 0 0 0 0.005,0.005 46.636677,37.460795 0 0 0 0.12501,0.13105 46.636677,37.460795 0 0 0 0.099,0.10304 46.636677,37.460795 0 0 0 0.085,0.0879 46.636677,37.460795 0 0 0 0.0161,0.0165 46.636677,37.460795 0 0 0 0.14038,0.14355 46.636677,37.460795 0 0 0 0.018,0.0184 46.636677,37.460795 0 0 0 0.14113,0.14255 46.636677,37.460795 0 0 0 0.005,0.005 46.636677,37.460795 0 0 0 0.1283,0.12841 46.636677,37.460795 0 0 0 0.11107,0.11028 46.636677,37.460795 0 0 0 0.081,0.08 46.636677,37.460795 0 0 0 0.002,0.002 46.636677,37.460795 0 0 0 0.15652,0.15342 46.636677,37.460795 0 0 0 0.005,0.005 46.636677,37.460795 0 0 0 0.13121,0.12708 46.636677,37.460795 0 0 0 0.10852,0.10436 46.636677,37.460795 0 0 0 0.0832,0.0793 46.636677,37.460795 0 0 0 0.0217,0.0208 46.636677,37.460795 0 0 0 0.13927,0.13136 46.636677,37.460795 0 0 0 0.009,0.008 46.636677,37.460795 0 0 0 0.1338,0.1251 46.636677,37.460795 0 0 0 0.12095,0.11227 46.636677,37.460795 0 0 0 0.077,0.0711 46.636677,37.460795 0 0 0 0.002,0.002 46.636677,37.460795 0 0 0 0.13526,0.12412 46.636677,37.460795 0 0 0 0.1195,0.10864 46.636677,37.460795 0 0 0 0.0747,0.0676 46.636677,37.460795 0 0 0 0.008,0.008 46.636677,37.460795 0 0 0 0.1371,0.12279 46.636677,37.460795 0 0 0 0.0334,0.0299 46.636677,37.460795 0 0 0 0.13783,0.12214 46.636677,37.460795 0 0 0 0.17264,0.15145 46.636677,37.460795 0 0 0 0.11472,0.0998 46.636677,37.460795 0 0 0 0.0883,0.0764 46.636677,37.460795 0 0 0 0.005,0.004 46.636677,37.460795 0 0 0 0.14037,0.1205 46.636677,37.460795 0 0 0 0.17559,0.14881 46.636677,37.460795 0 0 0 0.11326,0.0951 46.636677,37.460795 0 0 0 0.0949,0.0797 46.636677,37.460795 0 0 0 0.009,0.008 46.636677,37.460795 0 0 0 0.17154,0.14222 46.636677,37.460795 0 0 0 0.17191,0.14157 46.636677,37.460795 0 0 0 0.044,0.0356 46.636677,37.460795 0 0 0 0.136,0.11028 46.636677,37.460795 0 0 0 0.006,0.005 46.636677,37.460795 0 0 0 0.14552,0.11687 46.636677,37.460795 0 0 0 0.18144,0.14421 46.636677,37.460795 0 0 0 0.18256,0.14355 46.636677,37.460795 0 0 0 0.0355,0.0279 46.636677,37.460795 0 0 0 0.14772,0.1149 46.636677,37.460795 0 0 0 0.1382,0.10634 46.636677,37.460795 0 0 0 0.0781,0.0598 46.636677,37.460795 0 0 0 0.0165,0.0125 46.636677,37.460795 0 0 0 0.13707,0.10436 46.636677,37.460795 0 0 0 0.0363,0.0273 46.636677,37.460795 0 0 0 0.1851,0.13927 46.636677,37.460795 0 0 0 0.005,0.004 46.636677,37.460795 0 0 0 0.1851,0.13728 46.636677,37.460795 0 0 0 0.18109,0.13302 46.636677,37.460795 0 0 0 0.0499,0.0365 46.636677,37.460795 0 0 0 0.14368,0.10437 46.636677,37.460795 0 0 0 0.0122,0.008 46.636677,37.460795 0 0 0 0.17557,0.12643 46.636677,37.460795 0 0 0 0.0407,0.029 46.636677,37.460795 0 0 0 0.14516,0.10305 46.636677,37.460795 0 0 0 0.052,0.0369 46.636677,37.460795 0 0 0 0.11364,0.08 46.636677,37.460795 0 0 0 0.0377,0.0263 46.636677,37.460795 0 0 0 0.19317,0.13432 46.636677,37.460795 0 0 0 0.15579,0.10733 46.636677,37.460795 0 0 0 0.0997,0.0682 46.636677,37.460795 0 0 0 0.13341,0.0905 46.636677,37.460795 0 0 0 0.19391,0.13037 46.636677,37.460795 0 0 0 0.0106,0.007 46.636677,37.460795 0 0 0 0.18107,0.1205 46.636677,37.460795 0 0 0 0.0311,0.0204 46.636677,37.460795 0 0 0 0.13452,0.0889 46.636677,37.460795 0 0 0 0.0389,0.0253 46.636677,37.460795 0 0 0 0.15945,0.10405 46.636677,37.460795 0 0 0 0.0389,0.025 46.636677,37.460795 0 0 0 0.19207,0.12379 46.636677,37.460795 0 0 0 0.008,0.005 46.636677,37.460795 0 0 0 0.16091,0.10239 46.636677,37.460795 0 0 0 0.13709,0.0863 46.636677,37.460795 0 0 0 0.096,0.0606 46.636677,37.460795 0 0 0 0.0326,0.0204 46.636677,37.460795 0 0 0 0.1371,0.0853 46.636677,37.460795 0 0 0 0.0396,0.0243 46.636677,37.460795 0 0 0 0.16421,0.10107 46.636677,37.460795 0 0 0 0.11583,0.0708 46.636677,37.460795 0 0 0 0.0865,0.0527 46.636677,37.460795 0 0 0 0.0399,0.024 46.636677,37.460795 0 0 0 0.19866,0.11951 46.636677,37.460795 0 0 0 0.0316,0.0188 46.636677,37.460795 0 0 0 0.13929,0.083 46.636677,37.460795 0 0 0 0.0403,0.0237 46.636677,37.460795 0 0 0 0.16752,0.0984 46.636677,37.460795 0 0 0 0.11584,0.0678 46.636677,37.460795 0 0 0 0.0891,0.0517 46.636677,37.460795 0 0 0 0.0407,0.0234 46.636677,37.460795 0 0 0 0.17081,0.0981 46.636677,37.460795 0 0 0 0.11986,0.0682 46.636677,37.460795 0 0 0 0.0847,0.0484 46.636677,37.460795 0 0 0 0.0411,0.023 46.636677,37.460795 0 0 0 0.16971,0.0955 46.636677,37.460795 0 0 0 0.11877,0.0662 46.636677,37.460795 0 0 0 0.0898,0.0497 46.636677,37.460795 0 0 0 0.0414,0.0227 46.636677,37.460795 0 0 0 0.21076,0.11557 46.636677,37.460795 0 0 0 0.18401,0.0998 46.636677,37.460795 0 0 0 0.0909,0.0487 46.636677,37.460795 0 0 0 0.14954,0.08 46.636677,37.460795 0 0 0 0.18109,0.0958 46.636677,37.460795 0 0 0 0.0323,0.0171 46.636677,37.460795 0 0 0 0.17226,0.0899 46.636677,37.460795 0 0 0 0.19612,0.10173 46.636677,37.460795 0 0 0 0.0252,0.0132 46.636677,37.460795 0 0 0 0.0352,0.0181 46.636677,37.460795 0 0 0 0.1734,0.0882 46.636677,37.460795 0 0 0 0.1994,0.10075 46.636677,37.460795 0 0 0 0.0223,0.0112 46.636677,37.460795 0 0 0 0.15285,0.0764 46.636677,37.460795 0 0 0 0.0777,0.0385 46.636677,37.460795 0 0 0 0.15725,0.0777 46.636677,37.460795 0 0 0 0.048,0.0234 46.636677,37.460795 0 0 0 0.16568,0.081 46.636677,37.460795 0 0 0 0.0612,0.0296 46.636677,37.460795 0 0 0 0.0279,0.0135 46.636677,37.460795 0 0 0 0.17631,0.0846 46.636677,37.460795 0 0 0 0.21993,0.10436 46.636677,37.460795 0 0 0 0.14076,0.0666 46.636677,37.460795 0 0 0 0.10959,0.051 46.636677,37.460795 0 0 0 0.0132,0.006 46.636677,37.460795 0 0 0 0.17814,0.0823 46.636677,37.460795 0 0 0 0.22214,0.1014 46.636677,37.460795 0 0 0 0.11949,0.054 46.636677,37.460795 0 0 0 0.10301,0.0468 46.636677,37.460795 0 0 0 0.0436,0.0194 46.636677,37.460795 0 0 0 0.20598,0.0915 46.636677,37.460795 0 0 0 0.0176,0.008 46.636677,37.460795 0 0 0 0.17998,0.079 46.636677,37.460795 0 0 0 0.12169,0.053 46.636677,37.460795 0 0 0 0.14736,0.0636 46.636677,37.460795 0 0 0 0.2181,0.0932 46.636677,37.460795 0 0 0 0.008,0.003 46.636677,37.460795 0 0 0 0.18182,0.0767 46.636677,37.460795 0 0 0 0.18291,0.0767 46.636677,37.460795 0 0 0 0.0546,0.0228 46.636677,37.460795 0 0 0 0.12317,0.0503 46.636677,37.460795 0 0 0 0.0931,0.0385 46.636677,37.460795 0 0 0 0.0447,0.0181 46.636677,37.460795 0 0 0 0.1939,0.0787 46.636677,37.460795 0 0 0 0.0916,0.0369 46.636677,37.460795 0 0 0 0.17118,0.0685 46.636677,37.460795 0 0 0 0.22324,0.0879 46.636677,37.460795 0 0 0 0.0458,0.0178 46.636677,37.460795 0 0 0 0.16605,0.0648 46.636677,37.460795 0 0 0 0.0964,0.0369 46.636677,37.460795 0 0 0 0.15247,0.0586 46.636677,37.460795 0 0 0 0.0422,0.0158 46.636677,37.460795 0 0 0 0.16751,0.0636 46.636677,37.460795 0 0 0 0.1195,0.0445 46.636677,37.460795 0 0 0 0.11839,0.0441 46.636677,37.460795 0 0 0 0.0209,0.008 46.636677,37.460795 0 0 0 0.18694,0.0685 46.636677,37.460795 0 0 0 0.23275,0.0846 46.636677,37.460795 0 0 0 0.12537,0.0448 46.636677,37.460795 0 0 0 0.15211,0.0547 46.636677,37.460795 0 0 0 0.002,3.3e-4 46.636677,37.460795 0 0 0 0.18806,0.0662 46.636677,37.460795 0 0 0 0.22359,0.0774 46.636677,37.460795 0 0 0 0.0158,0.005 46.636677,37.460795 0 0 0 0.0411,0.0142 46.636677,37.460795 0 0 0 0.18915,0.0646 46.636677,37.460795 0 0 0 0.22873,0.077 46.636677,37.460795 0 0 0 0.01,0.003 46.636677,37.460795 0 0 0 0.1459,0.0484 46.636677,37.460795 0 0 0 0.12426,0.0412 46.636677,37.460795 0 0 0 0.0696,0.0228 46.636677,37.460795 0 0 0 0.14076,0.0461 46.636677,37.460795 0 0 0 0.19133,0.0612 46.636677,37.460795 0 0 0 0.0605,0.0194 46.636677,37.460795 0 0 0 0.0418,0.0132 46.636677,37.460795 0 0 0 0.21701,0.0685 46.636677,37.460795 0 0 0 0.21333,0.0662 46.636677,37.460795 0 0 0 0.1085,0.0333 46.636677,37.460795 0 0 0 0.14844,0.0454 46.636677,37.460795 0 0 0 0.0238,0.007 46.636677,37.460795 0 0 0 0.22213,0.0665 46.636677,37.460795 0 0 0 0.20087,0.0592 46.636677,37.460795 0 0 0 0.12902,0.0378 46.636677,37.460795 0 0 0 0.13415,0.0389 46.636677,37.460795 0 0 0 0.18183,0.052 46.636677,37.460795 0 0 0 0.0301,0.008 46.636677,37.460795 0 0 0 0.19282,0.0543 46.636677,37.460795 0 0 0 0.0657,0.0184 46.636677,37.460795 0 0 0 0.0909,0.025 46.636677,37.460795 0 0 0 0.17044,0.0471 46.636677,37.460795 0 0 0 0.008,0.002 46.636677,37.460795 0 0 0 0.19464,0.0527 46.636677,37.460795 0 0 0 0.1873,0.05 46.636677,37.460795 0 0 0 0.0861,0.0228 46.636677,37.460795 0 0 0 0.0165,0.005 46.636677,37.460795 0 0 0 0.19537,0.051 46.636677,37.460795 0 0 0 0.24266,0.0622 46.636677,37.460795 0 0 0 7.1e-4,3.3e-4 46.636677,37.460795 0 0 0 0.12169,0.0307 46.636677,37.460795 0 0 0 0.16972,0.0428 46.636677,37.460795 0 0 0 0.002,3.3e-4 46.636677,37.460795 0 0 0 0.24302,0.0596 46.636677,37.460795 0 0 0 0.20306,0.0491 46.636677,37.460795 0 0 0 0.14884,0.0355 46.636677,37.460795 0 0 0 0.12755,0.0303 46.636677,37.460795 0 0 0 0.0103,0.003 46.636677,37.460795 0 0 0 0.1972,0.0457 46.636677,37.460795 0 0 0 0.1972,0.0451 46.636677,37.460795 0 0 0 0.0751,0.0168 46.636677,37.460795 0 0 0 0.0858,0.0191 46.636677,37.460795 0 0 0 0.1785,0.0398 46.636677,37.460795 0 0 0 0.009,0.002 46.636677,37.460795 0 0 0 0.24082,0.0523 46.636677,37.460795 0 0 0 0.22617,0.0484 46.636677,37.460795 0 0 0 0.0832,0.0171 46.636677,37.460795 0 0 0 0.13636,0.0287 46.636677,37.460795 0 0 0 0.0484,0.01 46.636677,37.460795 0 0 0 0.24778,0.0503 46.636677,37.460795 0 0 0 0.23606,0.0471 46.636677,37.460795 0 0 0 0.0117,0.003 46.636677,37.460795 0 0 0 0.19978,0.0389 46.636677,37.460795 0 0 0 0.24632,0.0471 46.636677,37.460795 0 0 0 0.002,3.3e-4 46.636677,37.460795 0 0 0 0.19244,0.0355 46.636677,37.460795 0 0 0 0.0847,0.0158 46.636677,37.460795 0 0 0 0.0205,0.004 46.636677,37.460795 0 0 0 0.20014,0.0362 46.636677,37.460795 0 0 0 0.2456,0.0435 46.636677,37.460795 0 0 0 0.005,0.002 46.636677,37.460795 0 0 0 0.13452,0.023 46.636677,37.460795 0 0 0 0.15872,0.0273 46.636677,37.460795 0 0 0 0.0158,0.003 46.636677,37.460795 0 0 0 0.23825,0.0395 46.636677,37.460795 0 0 0 0.25036,0.0405 46.636677,37.460795 0 0 0 0.24413,0.0385 46.636677,37.460795 0 0 0 0.12242,0.0187 46.636677,37.460795 0 0 0 0.0906,0.0139 46.636677,37.460795 0 0 0 0.21515,0.0322 46.636677,37.460795 0 0 0 0.0403,0.005 46.636677,37.460795 0 0 0 0.1448,0.0208 46.636677,37.460795 0 0 0 0.0975,0.0142 46.636677,37.460795 0 0 0 0.0495,0.007 46.636677,37.460795 0 0 0 0.20233,0.0283 46.636677,37.460795 0 0 0 0.13306,0.0181 46.636677,37.460795 0 0 0 0.42043,0.0553 46.636677,37.460795 0 0 0 0.2522,0.0316 46.636677,37.460795 0 0 0 0.22102,0.0267 46.636677,37.460795 0 0 0 0.0315,0.004 46.636677,37.460795 0 0 0 0.20343,0.0237 46.636677,37.460795 0 0 0 0.25292,0.0287 46.636677,37.460795 0 0 0 0.2214,0.024 46.636677,37.460795 0 0 0 0.049,0.005 46.636677,37.460795 0 0 0 0.0323,0.003 46.636677,37.460795 0 0 0 0.20345,0.021 46.636677,37.460795 0 0 0 0.25363,0.0253 46.636677,37.460795 0 0 0 0.24194,0.023 46.636677,37.460795 0 0 0 0.0176,0.002 46.636677,37.460795 0 0 0 0.1228,0.0113 46.636677,37.460795 0 0 0 0.12498,0.0112 46.636677,37.460795 0 0 0 0.0499,0.005 46.636677,37.460795 0 0 0 0.25402,0.0217 46.636677,37.460795 0 0 0 0.50621,0.0395 46.636677,37.460795 0 0 0 0.002,3.4e-4 46.636677,37.460795 0 0 0 0.20452,0.0148 46.636677,37.460795 0 0 0 0.20601,0.0142 46.636677,37.460795 0 0 0 0.0719,0.005 46.636677,37.460795 0 0 0 0.0814,0.005 46.636677,37.460795 0 0 0 0.19978,0.0125 46.636677,37.460795 0 0 0 0.25475,0.0148 46.636677,37.460795 0 0 0 0.2049,0.0112 46.636677,37.460795 0 0 0 0.0917,0.005 46.636677,37.460795 0 0 0 0.20636,0.0105 46.636677,37.460795 0 0 0 0.007,3.3e-4 46.636677,37.460795 0 0 0 0.2049,0.009 46.636677,37.460795 0 0 0 0.19061,0.008 46.636677,37.460795 0 0 0 0.0861,0.003 46.636677,37.460795 0 0 0 0.11326,0.005 46.636677,37.460795 0 0 0 0.16018,0.005 46.636677,37.460795 0 0 0 0.01,3.3e-4 46.636677,37.460795 0 0 0 0.20528,0.006 46.636677,37.460795 0 0 0 0.17667,0.005 46.636677,37.460795 0 0 0 0.0979,0.003 46.636677,37.460795 0 0 0 0.0308,0.002 46.636677,37.460795 0 0 0 0.20526,0.005 46.636677,37.460795 0 0 0 0.16055,0.004 46.636677,37.460795 0 0 0 0.14479,0.003 46.636677,37.460795 0 0 0 0.22762,0.004 46.636677,37.460795 0 0 0 0.1382,0.002 46.636677,37.460795 0 0 0 0.35043,0.003 46.636677,37.460795 0 0 0 0.25547,6.2e-4 46.636677,37.460795 0 0 0 0.25549,-6.2e-4 46.636677,37.460795 0 0 0 0.20527,-0.002 46.636677,37.460795 0 0 0 0.14516,-0.002 46.636677,37.460795 0 0 0 0.13817,-0.002 46.636677,37.460795 0 0 0 0.22764,-0.004 46.636677,37.460795 0 0 0 0.14479,-0.003 46.636677,37.460795 0 0 0 0.16056,-0.004 46.636677,37.460795 0 0 0 0.23606,-0.005 46.636677,37.460795 0 0 0 0.0979,-0.003 46.636677,37.460795 0 0 0 0.39184,-0.0122 46.636677,37.460795 0 0 0 0.16018,-0.005 46.636677,37.460795 0 0 0 0.11327,-0.005 46.636677,37.460795 0 0 0 0.0861,-0.003 46.636677,37.460795 0 0 0 0.1906,-0.008 46.636677,37.460795 0 0 0 0.21479,-0.01 46.636677,37.460795 0 0 0 0.19832,-0.0103 46.636677,37.460795 0 0 0 0.0696,-0.004 46.636677,37.460795 0 0 0 0.23202,-0.0125 46.636677,37.460795 0 0 0 0.25475,-0.0148 46.636677,37.460795 0 0 0 0.19978,-0.0125 46.636677,37.460795 0 0 0 0.0814,-0.005 46.636677,37.460795 0 0 0 0.0718,-0.005 46.636677,37.460795 0 0 0 0.20599,-0.0142 46.636677,37.460795 0 0 0 0.20674,-0.0152 46.636677,37.460795 0 0 0 0.50622,-0.0395 46.636677,37.460795 0 0 0 0.25402,-0.0217 46.636677,37.460795 0 0 0 0.17483,-0.0155 46.636677,37.460795 0 0 0 0.12279,-0.0112 46.636677,37.460795 0 0 0 0.0176,-0.002 46.636677,37.460795 0 0 0 0.24191,-0.023 46.636677,37.460795 0 0 0 0.25367,-0.0253 46.636677,37.460795 0 0 0 0.2357,-0.0243 46.636677,37.460795 0 0 0 0.0491,-0.005 46.636677,37.460795 0 0 0 0.22139,-0.024 46.636677,37.460795 0 0 0 0.25291,-0.0287 46.636677,37.460795 0 0 0 0.23498,-0.0276 46.636677,37.460795 0 0 0 0.22101,-0.0267 46.636677,37.460795 0 0 0 0.25219,-0.0316 46.636677,37.460795 0 0 0 0.42044,-0.0553 46.636677,37.460795 0 0 0 0.13307,-0.0181 46.636677,37.460795 0 0 0 0.16017,-0.0223 46.636677,37.460795 0 0 0 0.18914,-0.027 46.636677,37.460795 0 0 0 0.14479,-0.0208 46.636677,37.460795 0 0 0 0.0352,-0.005 46.636677,37.460795 0 0 0 0.22468,-0.0336 46.636677,37.460795 0 0 0 0.20198,-0.0309 46.636677,37.460795 0 0 0 0.009,-0.002 46.636677,37.460795 0 0 0 0.24193,-0.0383 46.636677,37.460795 0 0 0 0.25034,-0.0405 46.636677,37.460795 0 0 0 0.23827,-0.0395 46.636677,37.460795 0 0 0 0.0158,-0.003 46.636677,37.460795 0 0 0 0.15872,-0.0273 46.636677,37.460795 0 0 0 0.13598,-0.0234 46.636677,37.460795 0 0 0 0.24961,-0.0442 46.636677,37.460795 0 0 0 0.22067,-0.0398 46.636677,37.460795 0 0 0 0.0847,-0.0158 46.636677,37.460795 0 0 0 0.19244,-0.0355 46.636677,37.460795 0 0 0 0.002,-3.4e-4 46.636677,37.460795 0 0 0 0.24633,-0.047 46.636677,37.460795 0 0 0 0.21151,-0.0412 46.636677,37.460795 0 0 0 0.23606,-0.0471 46.636677,37.460795 0 0 0 0.24778,-0.0503 46.636677,37.460795 0 0 0 0.18475,-0.0385 46.636677,37.460795 0 0 0 0.0832,-0.0171 46.636677,37.460795 0 0 0 0.22617,-0.0484 46.636677,37.460795 0 0 0 0.24083,-0.0523 46.636677,37.460795 0 0 0 0.009,-0.002 46.636677,37.460795 0 0 0 0.17851,-0.0398 46.636677,37.460795 0 0 0 0.0858,-0.0191 46.636677,37.460795 0 0 0 0.0751,-0.0168 46.636677,37.460795 0 0 0 0.19721,-0.0451 46.636677,37.460795 0 0 0 0.20747,-0.048 46.636677,37.460795 0 0 0 0.12756,-0.0303 46.636677,37.460795 0 0 0 0.14882,-0.0355 46.636677,37.460795 0 0 0 0.20308,-0.049 46.636677,37.460795 0 0 0 0.24302,-0.0596 46.636677,37.460795 0 0 0 0.002,-3.3e-4 46.636677,37.460795 0 0 0 0.1697,-0.0428 46.636677,37.460795 0 0 0 0.12172,-0.0306 46.636677,37.460795 0 0 0 7e-4,-3.4e-4 46.636677,37.460795 0 0 0 0.24266,-0.0622 46.636677,37.460795 0 0 0 0.21187,-0.0553 46.636677,37.460795 0 0 0 0.0861,-0.0228 46.636677,37.460795 0 0 0 0.18731,-0.05 46.636677,37.460795 0 0 0 0.20233,-0.0547 46.636677,37.460795 0 0 0 0.17045,-0.0471 46.636677,37.460795 0 0 0 0.0909,-0.025 46.636677,37.460795 0 0 0 0.0656,-0.0184 46.636677,37.460795 0 0 0 0.1928,-0.0543 46.636677,37.460795 0 0 0 0.0301,-0.008 46.636677,37.460795 0 0 0 0.18181,-0.052 46.636677,37.460795 0 0 0 0.13416,-0.0389 46.636677,37.460795 0 0 0 0.12903,-0.0379 46.636677,37.460795 0 0 0 0.20087,-0.0592 46.636677,37.460795 0 0 0 0.22212,-0.0665 46.636677,37.460795 0 0 0 0.0239,-0.007 46.636677,37.460795 0 0 0 0.14844,-0.0454 46.636677,37.460795 0 0 0 0.1085,-0.0333 46.636677,37.460795 0 0 0 0.21333,-0.0662 46.636677,37.460795 0 0 0 0.21701,-0.0685 46.636677,37.460795 0 0 0 0.0418,-0.0132 46.636677,37.460795 0 0 0 0.0605,-0.0194 46.636677,37.460795 0 0 0 0.19134,-0.0612 46.636677,37.460795 0 0 0 0.14076,-0.0461 46.636677,37.460795 0 0 0 0.0696,-0.0228 46.636677,37.460795 0 0 0 0.12426,-0.0412 46.636677,37.460795 0 0 0 0.1459,-0.0484 46.636677,37.460795 0 0 0 0.01,-0.003 46.636677,37.460795 0 0 0 0.22874,-0.077 46.636677,37.460795 0 0 0 0.23018,-0.0787 46.636677,37.460795 0 0 0 0.0158,-0.005 46.636677,37.460795 0 0 0 0.2236,-0.0774 46.636677,37.460795 0 0 0 0.18951,-0.0665 46.636677,37.460795 0 0 0 0.15211,-0.0547 46.636677,37.460795 0 0 0 0.12536,-0.0448 46.636677,37.460795 0 0 0 0.23276,-0.0846 46.636677,37.460795 0 0 0 0.20783,-0.0764 46.636677,37.460795 0 0 0 0.1184,-0.0442 46.636677,37.460795 0 0 0 0.1195,-0.0444 46.636677,37.460795 0 0 0 0.16752,-0.0636 46.636677,37.460795 0 0 0 0.0421,-0.0158 46.636677,37.460795 0 0 0 0.15249,-0.0586 46.636677,37.460795 0 0 0 0.0964,-0.0369 46.636677,37.460795 0 0 0 0.16602,-0.0648 46.636677,37.460795 0 0 0 0.0458,-0.0178 46.636677,37.460795 0 0 0 0.22322,-0.0879 46.636677,37.460795 0 0 0 0.17118,-0.0685 46.636677,37.460795 0 0 0 0.0916,-0.0369 46.636677,37.460795 0 0 0 0.33173,-0.13531 46.636677,37.460795 0 0 0 0.12317,-0.0504 46.636677,37.460795 0 0 0 0.0546,-0.0228 46.636677,37.460795 0 0 0 0.37205,-0.15672 46.636677,37.460795 0 0 0 0.21809,-0.0932 46.636677,37.460795 0 0 0 0.14736,-0.0636 46.636677,37.460795 0 0 0 0.1217,-0.053 46.636677,37.460795 0 0 0 0.19756,-0.0869 46.636677,37.460795 0 0 0 0.35262,-0.15771 46.636677,37.460795 0 0 0 0.11951,-0.0541 46.636677,37.460795 0 0 0 0.22211,-0.10141 46.636677,37.460795 0 0 0 0.19135,-0.0885 46.636677,37.460795 0 0 0 0.10961,-0.051 46.636677,37.460795 0 0 0 0.14075,-0.0666 46.636677,37.460795 0 0 0 0.21993,-0.10436 46.636677,37.460795 0 0 0 0.20417,-0.0981 46.636677,37.460795 0 0 0 0.0612,-0.0297 46.636677,37.460795 0 0 0 0.16568,-0.081 46.636677,37.460795 0 0 0 0.048,-0.0234 46.636677,37.460795 0 0 0 0.15726,-0.0777 46.636677,37.460795 0 0 0 0.0777,-0.0385 46.636677,37.460795 0 0 0 0.15286,-0.0764 46.636677,37.460795 0 0 0 0.0224,-0.0112 46.636677,37.460795 0 0 0 0.40798,-0.20709 46.636677,37.460795 0 0 0 0.0252,-0.0132 46.636677,37.460795 0 0 0 0.1961,-0.10173 46.636677,37.460795 0 0 0 0.20455,-0.107 46.636677,37.460795 0 0 0 0.18107,-0.0958 46.636677,37.460795 0 0 0 0.14956,-0.08 46.636677,37.460795 0 0 0 0.0909,-0.0487 46.636677,37.460795 0 0 0 0.18399,-0.0998 46.636677,37.460795 0 0 0 0.21078,-0.11556 46.636677,37.460795 0 0 0 0.13122,-0.0725 46.636677,37.460795 0 0 0 0.11877,-0.0662 46.636677,37.460795 0 0 0 0.29543,-0.16692 46.636677,37.460795 0 0 0 0.11986,-0.0682 46.636677,37.460795 0 0 0 0.30059,-0.17317 46.636677,37.460795 0 0 0 0.11582,-0.0678 46.636677,37.460795 0 0 0 0.34713,-0.2051 46.636677,37.460795 0 0 0 0.0315,-0.0188 46.636677,37.460795 0 0 0 0.32515,-0.19621 46.636677,37.460795 0 0 0 0.11583,-0.0708 46.636677,37.460795 0 0 0 0.34089,-0.2107 46.636677,37.460795 0 0 0 0.0326,-0.0203 46.636677,37.460795 0 0 0 0.096,-0.0606 46.636677,37.460795 0 0 0 0.30534,-0.19326 46.636677,37.460795 0 0 0 0.56376,-0.36709 46.636677,37.460795 0 0 0 0.0311,-0.0204 46.636677,37.460795 0 0 0 0.18106,-0.12048 46.636677,37.460795 0 0 0 0.0106,-0.007 46.636677,37.460795 0 0 0 0.19391,-0.13037 46.636677,37.460795 0 0 0 0.13341,-0.0905 46.636677,37.460795 0 0 0 0.1349,-0.0922 46.636677,37.460795 0 0 0 0.12059,-0.0833 46.636677,37.460795 0 0 0 0.19317,-0.13432 46.636677,37.460795 0 0 0 0.15139,-0.10633 46.636677,37.460795 0 0 0 0.052,-0.0369 46.636677,37.460795 0 0 0 0.14516,-0.10306 46.636677,37.460795 0 0 0 0.0407,-0.029 46.636677,37.460795 0 0 0 0.1756,-0.12642 46.636677,37.460795 0 0 0 0.0121,-0.008 46.636677,37.460795 0 0 0 0.1437,-0.10436 46.636677,37.460795 0 0 0 0.0499,-0.0365 46.636677,37.460795 0 0 0 0.21775,-0.16001 46.636677,37.460795 0 0 0 0.1873,-0.1396 46.636677,37.460795 0 0 0 0.15029,-0.11292 46.636677,37.460795 0 0 0 0.005,-0.005 46.636677,37.460795 0 0 0 0.16752,-0.12709 46.636677,37.460795 0 0 0 0.0165,-0.0125 46.636677,37.460795 0 0 0 0.0781,-0.0598 46.636677,37.460795 0 0 0 0.13819,-0.10634 46.636677,37.460795 0 0 0 0.18328,-0.14288 46.636677,37.460795 0 0 0 0.18255,-0.14354 46.636677,37.460795 0 0 0 0.18144,-0.14421 46.636677,37.460795 0 0 0 0.15177,-0.12182 46.636677,37.460795 0 0 0 0.13598,-0.11029 46.636677,37.460795 0 0 0 0.044,-0.0355 46.636677,37.460795 0 0 0 0.17193,-0.14156 46.636677,37.460795 0 0 0 0.17154,-0.14223 46.636677,37.460795 0 0 0 0.009,-0.008 46.636677,37.460795 0 0 0 0.0949,-0.0797 46.636677,37.460795 0 0 0 0.11327,-0.0951 46.636677,37.460795 0 0 0 0.17558,-0.14882 46.636677,37.460795 0 0 0 0.14478,-0.12444 46.636677,37.460795 0 0 0 0.0884,-0.0764 46.636677,37.460795 0 0 0 0.11472,-0.0998 46.636677,37.460795 0 0 0 0.17264,-0.15145 46.636677,37.460795 0 0 0 0.3167,-0.28248 46.636677,37.460795 0 0 0 0.0747,-0.0675 46.636677,37.460795 0 0 0 0.11952,-0.10864 46.636677,37.460795 0 0 0 0.13745,-0.12609 46.636677,37.460795 0 0 0 0.077,-0.0712 46.636677,37.460795 0 0 0 0.12097,-0.11226 46.636677,37.460795 0 0 0 0.14258,-0.13367 46.636677,37.460795 0 0 0 0.13928,-0.13136 46.636677,37.460795 0 0 0 0.0217,-0.0208 46.636677,37.460795 0 0 0 0.0832,-0.0793 46.636677,37.460795 0 0 0 0.24449,-0.23606 46.636677,37.460795 0 0 0 0.15652,-0.15342 46.636677,37.460795 0 0 0 0.002,-0.002 46.636677,37.460795 0 0 0 0.13086,-0.1294 46.636677,37.460795 0 0 0 0.0352,-0.0349 46.636677,37.460795 0 0 0 0.026,-0.0257 46.636677,37.460795 0 0 0 0.15983,-0.16033 46.636677,37.460795 0 0 0 0.11364,-0.11523 46.636677,37.460795 0 0 0 0.018,-0.0184 46.636677,37.460795 0 0 0 0.14037,-0.14353 46.636677,37.460795 0 0 0 0.0161,-0.0165 46.636677,37.460795 0 0 0 0.0851,-0.0879 46.636677,37.460795 0 0 0 0.22871,-0.23902 46.636677,37.460795 0 0 0 0.0986,-0.10404 46.636677,37.460795 0 0 0 0.0605,-0.0642 46.636677,37.460795 0 0 0 0.13488,-0.14453 46.636677,37.460795 0 0 0 0.0125,-0.0135 46.636677,37.460795 0 0 0 0.11621,-0.12577 46.636677,37.460795 0 0 0 0.0385,-0.0415 46.636677,37.460795 0 0 0 0.13377,-0.14683 46.636677,37.460795 0 0 0 0.0154,-0.0171 46.636677,37.460795 0 0 0 0.0641,-0.0712 46.636677,37.460795 0 0 0 0.1107,-0.1228 46.636677,37.460795 0 0 0 0.0125,-0.0138 46.636677,37.460795 0 0 0 0.10703,-0.12049 46.636677,37.460795 0 0 0 0.14772,-0.16725 46.636677,37.460795 0 0 0 0.13453,-0.15442 46.636677,37.460795 0 0 0 0.0154,-0.0174 46.636677,37.460795 0 0 0 0.0788,-0.0919 46.636677,37.460795 0 0 0 0.21075,-0.24725 46.636677,37.460795 0 0 0 0.0627,-0.0738 46.636677,37.460795 0 0 0 0.10483,-0.12511 46.636677,37.460795 0 0 0 0.12207,-0.14716 46.636677,37.460795 0 0 0 0.23678,-0.28973 46.636677,37.460795 0 0 0 0.0429,-0.0533 46.636677,37.460795 0 0 0 0.13051,-0.16264 46.636677,37.460795 0 0 0 0.0847,-0.10634 46.636677,37.460795 0 0 0 0.0792,-0.10042 46.636677,37.460795 0 0 0 0.0242,-0.0309 46.636677,37.460795 0 0 0 0.085,-0.10898 46.636677,37.460795 0 0 0 0.13379,-0.17251 46.636677,37.460795 0 0 0 0.002,-0.003 46.636677,37.460795 0 0 0 0.0938,-0.12279 46.636677,37.460795 0 0 0 0.0481,-0.0628 46.636677,37.460795 0 0 0 0.0612,-0.0813 46.636677,37.460795 0 0 0 0.20271,-0.27096 46.636677,37.460795 0 0 0 0.052,-0.0708 46.636677,37.460795 0 0 0 0.0942,-0.12807 46.636677,37.460795 0 0 0 0.12829,-0.17712 46.636677,37.460795 0 0 0 0.11179,-0.15572 46.636677,37.460795 0 0 0 0.0825,-0.11622 46.636677,37.460795 0 0 0 0.0443,-0.0629 46.636677,37.460795 0 0 0 0.10116,-0.14485 46.636677,37.460795 0 0 0 0.0169,-0.024 46.636677,37.460795 0 0 0 0.10116,-0.146506 46.636677,37.460795 0 0 0 0.0264,-0.03849 46.636677,37.460795 0 0 0 0.0755,-0.110616 46.636677,37.460795 0 0 0 0.0568,-0.08329 46.636677,37.460795 0 0 0 0.0293,-0.04377 46.636677,37.460795 0 0 0 0.0975,-0.145193 46.636677,37.460795 0 0 0 0.008,-0.01186 46.636677,37.460795 0 0 0 0.11438,-0.172853 46.636677,37.460795 0 0 0 0.11361,-0.173832 46.636677,37.460795 0 0 0 0.0188,-0.02869 46.636677,37.460795 0 0 0 0.099,-0.153419 46.636677,37.460795 0 0 0 0.0461,-0.07246 46.636677,37.460795 0 0 0 0.0641,-0.100747 46.636677,37.460795 0 0 0 0.0289,-0.04644 46.636677,37.460795 0 0 0 0.0971,-0.154405 46.636677,37.460795 0 0 0 0.10152,-0.163304 46.636677,37.460795 0 0 0 0.0565,-0.09251 46.636677,37.460795 0 0 0 0.0579,-0.09415 46.636677,37.460795 0 0 0 0.0542,-0.09022 46.636677,37.460795 0 0 0 0.0637,-0.10601 46.636677,37.460795 0 0 0 0.0132,-0.02204 46.636677,37.460795 0 0 0 0.0982,-0.165936 46.636677,37.460795 0 0 0 0.19281,-0.330541 46.636677,37.460795 0 0 0 0.006,-0.01155 46.636677,37.460795 0 0 0 0.0502,-0.0879 46.636677,37.460795 0 0 0 0.0751,-0.131696 46.636677,37.460795 0 0 0 0.10484,-0.186993 46.636677,37.460795 0 0 0 0.10153,-0.183381 46.636677,37.460795 0 0 0 0.0103,-0.01905 46.636677,37.460795 0 0 0 0.0942,-0.173174 46.636677,37.460795 0 0 0 0.10118,-0.188317 46.636677,37.460795 0 0 0 0.0971,-0.183376 46.636677,37.460795 0 0 0 0.0161,-0.03128 46.636677,37.460795 0 0 0 0.16752,-0.323954 46.636677,37.460795 0 0 0 0.081,-0.160336 46.636677,37.460795 0 0 0 0.0147,-0.0293 46.636677,37.460795 0 0 0 0.0913,-0.183047 46.636677,37.460795 0 0 0 0.0711,-0.144531 46.636677,37.460795 0 0 0 0.0355,-0.07342 46.636677,37.460795 0 0 0 0.044,-0.09119 46.636677,37.460795 0 0 0 0.0429,-0.0889 46.636677,37.460795 0 0 0 0.0308,-0.06518 46.636677,37.460795 0 0 0 0.0634,-0.133339 46.636677,37.460795 0 0 0 0.0788,-0.169545 46.636677,37.460795 0 0 0 0.077,-0.167903 46.636677,37.460795 0 0 0 0.018,-0.03887 46.636677,37.460795 0 0 0 0.0363,-0.08 46.636677,37.460795 0 0 0 0.0572,-0.127408 46.636677,37.460795 0 0 0 0.0176,-0.03915 46.636677,37.460795 0 0 0 0.0715,-0.16198 46.636677,37.460795 0 0 0 0.005,-0.0096 46.636677,37.460795 0 0 0 0.0715,-0.164278 46.636677,37.460795 0 0 0 0.059,-0.137622 46.636677,37.460795 0 0 0 0.0198,-0.04674 46.636677,37.460795 0 0 0 0.0448,-0.106015 46.636677,37.460795 0 0 0 0.0494,-0.118194 46.636677,37.460795 0 0 0 0.0649,-0.15737 46.636677,37.460795 0 0 0 0.0748,-0.184034 46.636677,37.460795 0 0 0 0.005,-0.01447 46.636677,37.460795 0 0 0 0.0763,-0.192269 46.636677,37.460795 0 0 0 0.0535,-0.136962 46.636677,37.460795 0 0 0 0.0377,-0.09712 46.636677,37.460795 0 0 0 0.0649,-0.169549 46.636677,37.460795 0 0 0 0.0499,-0.133013 46.636677,37.460795 0 0 0 0.0264,-0.07079 46.636677,37.460795 0 0 0 0.026,-0.07044 46.636677,37.460795 0 0 0 0.0513,-0.139261 46.636677,37.460795 0 0 0 0.01,-0.02731 46.636677,37.460795 0 0 0 0.063,-0.176139 46.636677,37.460795 0 0 0 0.0646,-0.182728 46.636677,37.460795 0 0 0 0.0205,-0.05895 46.636677,37.460795 0 0 0 0.0502,-0.146177 46.636677,37.460795 0 0 0 0.0113,-0.03291 46.636677,37.460795 0 0 0 0.0579,-0.172521 46.636677,37.460795 0 0 0 0.0653,-0.198198 46.636677,37.460795 0 0 0 0.0565,-0.174494 46.636677,37.460795 0 0 0 0.0326,-0.10305 46.636677,37.460795 0 0 0 0.0334,-0.105682 46.636677,37.460795 0 0 0 0.0539,-0.174486 46.636677,37.460795 0 0 0 0.0506,-0.16725 46.636677,37.460795 0 0 0 0.0135,-0.04448 46.636677,37.460795 0 0 0 0.0337,-0.113917 46.636677,37.460795 0 0 0 0.0286,-0.09778 46.636677,37.460795 0 0 0 0.0169,-0.05895 46.636677,37.460795 0 0 0 0.0436,-0.152433 46.636677,37.460795 0 0 0 0.005,-0.01412 46.636677,37.460795 0 0 0 0.0528,-0.189304 46.636677,37.460795 0 0 0 0.0499,-0.183381 46.636677,37.460795 0 0 0 0.0242,-0.09054 46.636677,37.460795 0 0 0 0.0289,-0.108647 46.636677,37.460795 0 0 0 0.0466,-0.18009 46.636677,37.460795 0 0 0 0.0337,-0.132345 46.636677,37.460795 0 0 0 0.0267,-0.107987 46.636677,37.460795 0 0 0 0.044,-0.180423 46.636677,37.460795 0 0 0 0.0436,-0.183048 46.636677,37.460795 0 0 0 0.0465,-0.201823 46.636677,37.460795 0 0 0 0.0418,-0.186012 46.636677,37.460795 0 0 0 0.005,-0.01943 46.636677,37.460795 0 0 0 0.0403,-0.186013 46.636677,37.460795 0 0 0 0.004,-0.01809 46.636677,37.460795 0 0 0 0.0414,-0.196879 46.636677,37.460795 0 0 0 0.0411,-0.202476 46.636677,37.460795 0 0 0 0.0326,-0.165605 46.636677,37.460795 0 0 0 0.009,-0.04774 46.636677,37.460795 0 0 0 0.0271,-0.144865 46.636677,37.460795 0 0 0 0.0128,-0.0688 46.636677,37.460795 0 0 0 0.0103,-0.05732 46.636677,37.460795 0 0 0 0.0297,-0.163946 46.636677,37.460795 0 0 0 0.0289,-0.164293 46.636677,37.460795 0 0 0 0.0334,-0.199844 46.636677,37.460795 0 0 0 7.1e-4,-0.0035 46.636677,37.460795 0 0 0 0.0187,-0.115555 46.636677,37.460795 0 0 0 0.0172,-0.108321 46.636677,37.460795 0 0 0 0.0279,-0.181728 46.636677,37.460795 0 0 0 0.0301,-0.203795 46.636677,37.460795 0 0 0 0.0246,-0.176472 46.636677,37.460795 0 0 0 0.006,-0.04277 46.636677,37.460795 0 0 0 0.0106,-0.08066 46.636677,37.460795 0 0 0 0.0176,-0.131034 46.636677,37.460795 0 0 0 0.0227,-0.181075 46.636677,37.460795 0 0 0 0.0154,-0.129387 46.636677,37.460795 0 0 0 0.0135,-0.114903 46.636677,37.460795 0 0 0 0.0201,-0.179097 46.636677,37.460795 0 0 0 0.0135,-0.128067 46.636677,37.460795 0 0 0 0.009,-0.08198 46.636677,37.460795 0 0 0 0.018,-0.184041 46.636677,37.460795 0 0 0 0.0117,-0.125436 46.636677,37.460795 0 0 0 0.0106,-0.119173 46.636677,37.460795 0 0 0 0.0151,-0.17943 46.636677,37.460795 0 0 0 0.008,-0.101078 46.636677,37.460795 0 0 0 0.009,-0.118521 46.636677,37.460795 0 0 0 0.0125,-0.175146 46.636677,37.460795 0 0 0 0.0132,-0.205114 46.636677,37.460795 0 0 0 0.009,-0.148149 46.636677,37.460795 0 0 0 0.005,-0.07079 46.636677,37.460795 0 0 0 0.009,-0.190949 46.636677,37.460795 0 0 0 0.009,-0.205108 46.636677,37.460795 0 0 0 0.008,-0.205114 46.636677,37.460795 0 0 0 0.005,-0.173167 46.636677,37.460795 0 0 0 0.002,-0.04774 46.636677,37.460795 0 0 0 0.002,-0.07473 46.636677,37.460795 0 0 0 0.004,-0.142559 46.636677,37.460795 0 0 0 0.003,-0.177125 46.636677,37.460795 0 0 0 0.002,-0.205107 46.636677,37.460795 0 0 0 7.2e-4,-0.205114 46.636677,37.460795 0 0 0 -7.2e-4,-0.180743 46.636677,37.460795 0 0 0 -7.1e-4,-0.09745 46.636677,37.460795 0 0 0 -0.002,-0.114576 46.636677,37.460795 0 0 0 -0.002,-0.05235 46.636677,37.460795 0 0 0 -0.002,-0.143212 46.636677,37.460795 0 0 0 -0.004,-0.137623 46.636677,37.460795 0 0 0 -0.002,-0.0576 46.636677,37.460795 0 0 0 -0.004,-0.112272 46.636677,37.460795 0 0 0 -0.003,-0.09877 46.636677,37.460795 0 0 0 -0.005,-0.122145 46.636677,37.460795 0 0 0 -0.004,-0.0889 46.636677,37.460795 0 0 0 -0.004,-0.07407 46.636677,37.460795 0 0 0 -0.005,-0.125437 46.636677,37.460795 0 0 0 -0.008,-0.152752 46.636677,37.460795 0 0 0 -0.002,-0.0405 46.636677,37.460795 0 0 0 -0.005,-0.08593 46.636677,37.460795 0 0 0 -0.009,-0.161321 46.636677,37.460795 0 0 0 -0.0106,-0.165272 46.636677,37.460795 0 0 0 -0.0113,-0.16198 46.636677,37.460795 0 0 0 -0.003,-0.04051 46.636677,37.460795 0 0 0 -0.006,-0.08429 46.636677,37.460795 0 0 0 -0.0129,-0.162639 46.636677,37.460795 0 0 0 -0.0143,-0.168564 46.636677,37.460795 0 0 0 -0.003,-0.03589 46.636677,37.460795 0 0 0 -0.005,-0.05632 46.636677,37.460795 0 0 0 -0.0139,-0.148475 46.636677,37.460795 0 0 0 -0.0151,-0.15112 46.636677,37.460795 0 0 0 -0.0209,-0.202143 46.636677,37.460795 0 0 0 -0.0227,-0.204455 46.636677,37.460795 0 0 0 -0.0143,-0.122471 46.636677,37.460795 0 0 0 -0.0164,-0.137289 46.636677,37.460795 0 0 0 -0.019,-0.150787 46.636677,37.460795 0 0 0 -0.0264,-0.201817 46.636677,37.460795 0 0 0 -0.0209,-0.150461 46.636677,37.460795 0 0 0 -0.037,-0.258441 46.636677,37.460795 0 0 0 -0.0213,-0.139269 46.636677,37.460795 0 0 0 -0.0161,-0.105348 46.636677,37.460795 0 0 0 -0.026,-0.161328 46.636677,37.460795 0 0 0 -0.026,-0.158023 46.636677,37.460795 0 0 0 -0.0151,-0.08757 46.636677,37.460795 0 0 0 -0.008,-0.04149 46.636677,37.460795 0 0 0 -0.0279,-0.159356 46.636677,37.460795 0 0 0 -0.0293,-0.163293 46.636677,37.460795 0 0 0 -0.0308,-0.165932 46.636677,37.460795 0 0 0 -0.0117,-0.06157 46.636677,37.460795 0 0 0 -0.0348,-0.178117 46.636677,37.460795 0 0 0 -0.0407,-0.202476 46.636677,37.460795 0 0 0 -0.0422,-0.202469 46.636677,37.460795 0 0 0 -0.0355,-0.165604 46.636677,37.460795 0 0 0 -0.0132,-0.06093 46.636677,37.460795 0 0 0 -0.0396,-0.177784 46.636677,37.460795 0 0 0 -0.0461,-0.201497 46.636677,37.460795 0 0 0 -0.0477,-0.201809 46.636677,37.460795 0 0 0 -0.0411,-0.168562 46.636677,37.460795 0 0 0 -0.0158,-0.06519 46.636677,37.460795 0 0 0 -0.0165,-0.06654 46.636677,37.460795 0 0 0 -0.0323,-0.127742 46.636677,37.460795 0 0 0 -0.0455,-0.175479 46.636677,37.460795 0 0 0 -0.0448,-0.169883 46.636677,37.460795 0 0 0 -0.0125,-0.04738 46.636677,37.460795 0 0 0 -0.0374,-0.136636 46.636677,37.460795 0 0 0 -0.0208,-0.07638 46.636677,37.460795 0 0 0 -0.0209,-0.07506 46.636677,37.460795 0 0 0 -0.0352,-0.12511 46.636677,37.460795 0 0 0 -0.0305,-0.106015 46.636677,37.460795 0 0 0 -0.0246,-0.08593 46.636677,37.460795 0 0 0 -0.0385,-0.131366 46.636677,37.460795 0 0 0 -0.0201,-0.06781 46.636677,37.460795 0 0 0 -0.0279,-0.0935 46.636677,37.460795 0 0 0 -0.0341,-0.112272 46.636677,37.460795 0 0 0 -0.0414,-0.13465 46.636677,37.460795 0 0 0 -0.0209,-0.06682 46.636677,37.460795 0 0 0 -0.0176,-0.05632 46.636677,37.460795 0 0 0 -0.044,-0.139595 46.636677,37.460795 0 0 0 -0.0473,-0.14585 46.636677,37.460795 0 0 0 -0.0129,-0.03951 46.636677,37.460795 0 0 0 -0.034,-0.103709 46.636677,37.460795 0 0 0 -0.0373,-0.113577 46.636677,37.460795 0 0 0 -0.0422,-0.124451 46.636677,37.460795 0 0 0 -0.0169,-0.05036 46.636677,37.460795 0 0 0 -0.0549,-0.159015 46.636677,37.460795 0 0 0 -0.0172,-0.04965 46.636677,37.460795 0 0 0 -0.0359,-0.102064 46.636677,37.460795 0 0 0 -0.0337,-0.09647 46.636677,37.460795 0 0 0 -0.055,-0.152432 46.636677,37.460795 0 0 0 -0.0113,-0.03164 46.636677,37.460795 0 0 0 -0.0671,-0.183048 46.636677,37.460795 0 0 0 -0.004,-0.0085 46.636677,37.460795 0 0 0 -0.052,-0.140254 46.636677,37.460795 0 0 0 -0.0293,-0.0777 46.636677,37.460795 0 0 0 -0.0448,-0.117527 46.636677,37.460795 0 0 0 -0.0301,-0.07803 46.636677,37.460795 0 0 0 -0.0389,-0.100411 46.636677,37.460795 0 0 0 -0.0345,-0.08857 46.636677,37.460795 0 0 0 -0.0711,-0.179104 46.636677,37.460795 0 0 0 -0.0646,-0.160661 46.636677,37.460795 0 0 0 -0.0217,-0.05299 46.636677,37.460795 0 0 0 -0.0671,-0.162966 46.636677,37.460795 0 0 0 -0.008,-0.01972 46.636677,37.460795 0 0 0 -0.0473,-0.113917 46.636677,37.460795 0 0 0 -0.0458,-0.10798 46.636677,37.460795 0 0 0 -0.0315,-0.07473 46.636677,37.460795 0 0 0 -0.0499,-0.116549 46.636677,37.460795 0 0 0 -0.0359,-0.08231 46.636677,37.460795 0 0 0 -0.0455,-0.104036 46.636677,37.460795 0 0 0 -0.0561,-0.127409 46.636677,37.460795 0 0 0 -0.0249,-0.05632 46.636677,37.460795 0 0 0 -0.0806,-0.179104 46.636677,37.460795 0 0 0 -0.088,-0.192595 46.636677,37.460795 0 0 0 -0.0671,-0.144531 46.636677,37.460795 0 0 0 -0.0381,-0.08132 46.636677,37.460795 0 0 0 -0.0748,-0.158029 46.636677,37.460795 0 0 0 -0.0575,-0.1205 46.636677,37.460795 0 0 0 -0.0587,-0.121485 46.636677,37.460795 0 0 0 -0.0689,-0.140581 46.636677,37.460795 0 0 0 -0.0946,-0.190623 46.636677,37.460795 0 0 0 -0.0747,-0.148482 46.636677,37.460795 0 0 0 -0.0422,-0.08296 46.636677,37.460795 0 0 0 -0.0121,-0.02405 46.636677,37.460795 0 0 0 -0.0905,-0.175813 46.636677,37.460795 0 0 0 -0.0722,-0.138927 46.636677,37.460795 0 0 0 -0.0993,-0.187666 46.636677,37.460795 0 0 0 -0.0865,-0.161981 46.636677,37.460795 0 0 0 -0.0205,-0.03781 46.636677,37.460795 0 0 0 -0.096,-0.176799 46.636677,37.460795 0 0 0 -0.0942,-0.170868 46.636677,37.460795 0 0 0 -0.0151,-0.02703 46.636677,37.460795 0 0 0 -0.0799,-0.1419 46.636677,37.460795 0 0 0 -0.0275,-0.04873 46.636677,37.460795 0 0 0 -0.0553,-0.09778 46.636677,37.460795 0 0 0 -0.0612,-0.107328 46.636677,37.460795 0 0 0 -0.0872,-0.15112 46.636677,37.460795 0 0 0 -0.002,-0.0028 46.636677,37.460795 0 0 0 -0.10741,-0.183382 46.636677,37.460795 0 0 0 -0.002,-0.0035 46.636677,37.460795 0 0 0 -0.10921,-0.183714 46.636677,37.460795 0 0 0 -0.0909,-0.151441 46.636677,37.460795 0 0 0 -0.0334,-0.05497 46.636677,37.460795 0 0 0 -0.0993,-0.162307 46.636677,37.460795 0 0 0 -0.11363,-0.183714 46.636677,37.460795 0 0 0 -0.0946,-0.151114 46.636677,37.460795 0 0 0 -0.0407,-0.06455 46.636677,37.460795 0 0 0 -0.0293,-0.04604 46.636677,37.460795 0 0 0 -0.096,-0.150135 46.636677,37.460795 0 0 0 -0.088,-0.136303 46.636677,37.460795 0 0 0 -0.11876,-0.181729 46.636677,37.460795 0 0 0 -0.11987,-0.181075 46.636677,37.460795 0 0 0 -0.1008,-0.150788 46.636677,37.460795 0 0 0 -0.0249,-0.03717 46.636677,37.460795 0 0 0 -0.103,-0.151114 46.636677,37.460795 0 0 0 -0.0238,-0.0349 46.636677,37.460795 0 0 0 -0.088,-0.128072 46.636677,37.460795 0 0 0 -0.0337,-0.04874 46.636677,37.460795 0 0 0 -0.0858,-0.123132 46.636677,37.460795 0 0 0 -0.0517,-0.07342 46.636677,37.460795 0 0 0 -0.1063,-0.150456 46.636677,37.460795 0 0 0 -0.1272,-0.177782 46.636677,37.460795 0 0 0 -0.0704,-0.09712 46.636677,37.460795 0 0 0 -0.0843,-0.116545 46.636677,37.460795 0 0 0 -0.0282,-0.03784 46.636677,37.460795 0 0 0 -0.1107,-0.150457 46.636677,37.460795 0 0 0 -0.12499,-0.167575 46.636677,37.460795 0 0 0 -0.10264,-0.136306 46.636677,37.460795 0 0 0 -0.11033,-0.145188 46.636677,37.460795 0 0 0 -0.0334,-0.04345 46.636677,37.460795 0 0 0 -0.0825,-0.10733 46.636677,37.460795 0 0 0 -0.0678,-0.08724 46.636677,37.460795 0 0 0 -0.0385,-0.0497 46.636677,37.460795 0 0 0 -0.0916,-0.116874 46.636677,37.460795 0 0 0 -0.0715,-0.09087 46.636677,37.460795 0 0 0 -0.0546,-0.06849 46.636677,37.460795 0 0 0 -0.26721,-0.332187 46.636677,37.460795 0 0 0 -0.14038,-0.171202 46.636677,37.460795 0 0 0 -0.14149,-0.170869 46.636677,37.460795 0 0 0 -0.12755,-0.152099 46.636677,37.460795 0 0 0 -0.0246,-0.02963 46.636677,37.460795 0 0 0 -0.11034,-0.13004 46.636677,37.460795 0 0 0 -0.0289,-0.03428 46.636677,37.460795 0 0 0 -0.12206,-0.14157 46.636677,37.460795 0 0 0 -0.018,-0.02109 l 1.43029,-26.327743 c 0.004,-0.06833 -0.0332,-0.106478 -0.0894,-0.102718 -0.0188,0.0013 -0.0397,0.0071 -0.0619,0.01811 l -24.67336,12.272649 a 46.636677,37.460795 0 0 0 -0.15907,-0.0428 46.636677,37.460795 0 0 0 -0.0418,-0.01119 46.636677,37.460795 0 0 0 -0.17264,-0.04576 46.636677,37.460795 0 0 0 -0.22872,-0.05992 46.636677,37.460795 0 0 0 -0.2434,-0.06256 46.636677,37.460795 0 0 0 -0.17485,-0.04412 46.636677,37.460795 0 0 0 -0.0953,-0.02403 46.636677,37.460795 0 0 0 -0.0891,-0.02206 46.636677,37.460795 0 0 0 -0.20305,-0.04971 46.636677,37.460795 0 0 0 -0.1701,-0.04115 46.636677,37.460795 0 0 0 -0.20598,-0.04905 46.636677,37.460795 0 0 0 -0.0553,-0.01318 46.636677,37.460795 0 0 0 -0.12501,-0.02897 46.636677,37.460795 0 0 0 -0.14992,-0.03457 46.636677,37.460795 0 0 0 -0.0158,-0.0036 46.636677,37.460795 0 0 0 -0.19794,-0.0451 46.636677,37.460795 0 0 0 -0.17922,-0.03983 46.636677,37.460795 0 0 0 -0.0704,-0.0158 46.636677,37.460795 0 0 0 -0.0843,-0.01843 46.636677,37.460795 0 0 0 -0.19241,-0.04181 46.636677,37.460795 0 0 0 -0.10191,-0.02173 46.636677,37.460795 0 0 0 -0.0971,-0.02074 46.636677,37.460795 0 0 0 -0.19172,-0.04016 46.636677,37.460795 0 0 0 -0.0894,-0.01843 46.636677,37.460795 0 0 0 -0.0418,-0.0086 46.636677,37.460795 0 0 0 -0.21956,-0.04478 46.636677,37.460795 0 0 0 -0.21882,-0.04345 46.636677,37.460795 0 0 0 -0.14994,-0.0293 46.636677,37.460795 0 0 0 -0.10776,-0.02074 46.636677,37.460795 0 0 0 -0.2203,-0.04214 46.636677,37.460795 0 0 0 -0.24889,-0.04608 46.636677,37.460795 0 0 0 -0.24889,-0.0451 46.636677,37.460795 0 0 0 -0.24961,-0.04412 46.636677,37.460795 0 0 0 -0.17595,-0.03029 46.636677,37.460795 0 0 0 -0.10301,-0.01778 46.636677,37.460795 0 0 0 -0.0777,-0.01284 46.636677,37.460795 0 0 0 -0.18805,-0.03127 46.636677,37.460795 0 0 0 -0.37242,-0.05992 46.636677,37.460795 0 0 0 -0.10996,-0.01712 46.636677,37.460795 0 0 0 -0.0935,-0.01448 46.636677,37.460795 0 0 0 -0.17998,-0.02732 46.636677,37.460795 0 0 0 -0.25109,-0.0372 46.636677,37.460795 0 0 0 -0.2302,-0.03325 46.636677,37.460795 0 0 0 -0.0854,-0.01185 46.636677,37.460795 0 0 0 -0.18733,-0.02601 46.636677,37.460795 0 0 0 -0.25217,-0.03391 46.636677,37.460795 0 0 0 -0.23204,-0.03028 46.636677,37.460795 0 0 0 -0.0747,-0.0095 46.636677,37.460795 0 0 0 -0.19757,-0.02469 46.636677,37.460795 0 0 0 -0.2104,-0.02535 46.636677,37.460795 0 0 0 -0.17413,-0.02041 46.636677,37.460795 0 0 0 -0.10776,-0.01251 46.636677,37.460795 0 0 0 -0.217,-0.02469 46.636677,37.460795 0 0 0 -0.25292,-0.02732 46.636677,37.460795 0 0 0 -0.25328,-0.02634 46.636677,37.460795 0 0 0 -0.25366,-0.02535 46.636677,37.460795 0 0 0 -0.25365,-0.02403 46.636677,37.460795 0 0 0 -0.15176,-0.01383 46.636677,37.460795 0 0 0 -0.13928,-0.01251 46.636677,37.460795 0 0 0 -0.21664,-0.01843 46.636677,37.460795 0 0 0 -0.23424,-0.0191 46.636677,37.460795 0 0 0 -0.0293,-0.0023 46.636677,37.460795 0 0 0 -0.12353,-0.0095 46.636677,37.460795 0 0 0 -0.16165,-0.01251 46.636677,37.460795 0 0 0 -0.21408,-0.01548 46.636677,37.460795 0 0 0 -0.22506,-0.01548 46.636677,37.460795 0 0 0 -0.0436,-0.003 46.636677,37.460795 0 0 0 -0.1085,-0.0069 46.636677,37.460795 0 0 0 -0.17594,-0.01119 46.636677,37.460795 0 0 0 -0.022,-0.0014 46.636677,37.460795 0 0 0 -0.23826,-0.01383 46.636677,37.460795 0 0 0 -0.22469,-0.01218 46.636677,37.460795 0 0 0 -0.0917,-0.0046 46.636677,37.460795 0 0 0 -0.1807,-0.0092 46.636677,37.460795 0 0 0 -0.2181,-0.0099 46.636677,37.460795 0 0 0 -0.20233,-0.0086 46.636677,37.460795 0 0 0 -0.0704,-0.003 46.636677,37.460795 0 0 0 -0.12757,-0.0046 46.636677,37.460795 0 0 0 -0.14662,-0.0056 46.636677,37.460795 0 0 0 -0.33467,-0.01021 46.636677,37.460795 0 0 0 -0.18876,-0.0054 46.636677,37.460795 0 0 0 -0.12902,-0.0034 46.636677,37.460795 0 0 0 -0.0766,-0.0016 46.636677,37.460795 0 0 0 -0.16313,-0.0034 46.636677,37.460795 0 0 0 -0.14184,-0.0026 46.636677,37.460795 0 0 0 -0.22691,-0.0036 46.636677,37.460795 0 0 0 -0.14185,-0.0014 46.636677,37.460795 0 0 0 -0.14223,-0.0014 46.636677,37.460795 0 0 0 -0.20563,-0.0014 46.636677,37.460795 0 0 0 -0.25548,-6.38e-4 46.636677,37.460795 0 0 0 -0.25548,6.38e-4 46.636677,37.460795 0 0 0 -0.20564,0.0014 46.636677,37.460795 0 0 0 -0.14224,0.0014 46.636677,37.460795 0 0 0 -0.14184,0.0014 46.636677,37.460795 0 0 0 -0.0209,3.29e-4 46.636677,37.460795 0 0 0 -0.20601,0.0034 46.636677,37.460795 0 0 0 -0.14186,0.0026 46.636677,37.460795 0 0 0 -0.16311,0.0034 46.636677,37.460795 0 0 0 -0.20563,0.005 46.636677,37.460795 0 0 0 -0.18878,0.0054 46.636677,37.460795 0 0 0 -0.0663,0.0016 46.636677,37.460795 0 0 0 -0.0499,0.0016 46.636677,37.460795 0 0 0 -0.21847,0.0069 46.636677,37.460795 0 0 0 -0.14661,0.0056 46.636677,37.460795 0 0 0 -0.12756,0.0046 46.636677,37.460795 0 0 0 -0.0704,0.003 46.636677,37.460795 0 0 0 -0.20234,0.0086 46.636677,37.460795 0 0 0 -0.21809,0.0099 46.636677,37.460795 0 0 0 -0.18072,0.0092 46.636677,37.460795 0 0 0 -0.0916,0.0046 46.636677,37.460795 0 0 0 -0.0194,9.94e-4 46.636677,37.460795 0 0 0 -0.20528,0.01119 46.636677,37.460795 0 0 0 -0.23825,0.01383 46.636677,37.460795 0 0 0 -0.022,0.0014 46.636677,37.460795 0 0 0 -0.17595,0.01119 46.636677,37.460795 0 0 0 -0.1085,0.0069 46.636677,37.460795 0 0 0 -0.0436,0.003 46.636677,37.460795 0 0 0 -0.22507,0.01548 46.636677,37.460795 0 0 0 -0.21407,0.01548 46.636677,37.460795 0 0 0 -0.16164,0.01251 46.636677,37.460795 0 0 0 -0.12353,0.0095 46.636677,37.460795 0 0 0 -0.0294,0.0023 46.636677,37.460795 0 0 0 -0.23422,0.0191 46.636677,37.460795 0 0 0 -0.21664,0.01843 46.636677,37.460795 0 0 0 -0.13929,0.01251 46.636677,37.460795 0 0 0 -0.10264,0.0092 46.636677,37.460795 0 0 0 -0.0491,0.0046 46.636677,37.460795 0 0 0 -0.25366,0.02403 46.636677,37.460795 0 0 0 -0.25363,0.02535 46.636677,37.460795 0 0 0 -0.20417,0.02107 46.636677,37.460795 0 0 0 -0.0491,0.0054 46.636677,37.460795 0 0 0 -0.25293,0.02732 46.636677,37.460795 0 0 0 -0.21699,0.02469 46.636677,37.460795 0 0 0 -0.10777,0.01251 46.636677,37.460795 0 0 0 -0.17412,0.02041 46.636677,37.460795 0 0 0 -0.007,6.37e-4 46.636677,37.460795 0 0 0 -0.20343,0.02469 46.636677,37.460795 0 0 0 -0.22506,0.02831 46.636677,37.460795 0 0 0 -0.0364,0.0046 46.636677,37.460795 0 0 0 -0.0399,0.005 46.636677,37.460795 0 0 0 -0.20307,0.02667 46.636677,37.460795 0 0 0 -0.25218,0.03391 46.636677,37.460795 0 0 0 -0.18732,0.02601 46.636677,37.460795 0 0 0 -0.0854,0.01185 46.636677,37.460795 0 0 0 -0.0275,0.004 46.636677,37.460795 0 0 0 -0.20271,0.02931 46.636677,37.460795 0 0 0 -0.25109,0.0372 46.636677,37.460795 0 0 0 -0.17998,0.02732 46.636677,37.460795 0 0 0 -0.0935,0.01448 46.636677,37.460795 0 0 0 -0.10997,0.01712 46.636677,37.460795 0 0 0 -0.11838,0.01876 46.636677,37.460795 0 0 0 -0.0487,0.0079 46.636677,37.460795 0 0 0 -0.20527,0.03324 46.636677,37.460795 0 0 0 -0.18804,0.03127 46.636677,37.460795 0 0 0 -0.0777,0.01284 46.636677,37.460795 0 0 0 -0.10301,0.01778 46.636677,37.460795 0 0 0 -0.17593,0.03028 46.636677,37.460795 0 0 0 -0.24964,0.04412 46.636677,37.460795 0 0 0 -0.20049,0.03621 46.636677,37.460795 0 0 0 -0.0484,0.0089 46.636677,37.460795 0 0 0 -0.2489,0.04609 46.636677,37.460795 0 0 0 -0.2203,0.04214 46.636677,37.460795 0 0 0 -0.10777,0.02075 46.636677,37.460795 0 0 0 -0.14808,0.02898 46.636677,37.460795 0 0 0 -0.0209,0.004 46.636677,37.460795 0 0 0 -0.1994,0.03983 46.636677,37.460795 0 0 0 -0.22506,0.04576 46.636677,37.460795 0 0 0 -0.0367,0.0076 46.636677,37.460795 0 0 0 -0.0894,0.01843 46.636677,37.460795 0 0 0 -0.19172,0.04016 46.636677,37.460795 0 0 0 -0.19904,0.04246 46.636677,37.460795 0 0 0 -0.19244,0.04181 46.636677,37.460795 0 0 0 -0.0843,0.01843 46.636677,37.460795 0 0 0 -0.0704,0.0158 46.636677,37.460795 0 0 0 -0.17924,0.03983 46.636677,37.460795 0 0 0 -0.19794,0.04511 46.636677,37.460795 0 0 0 -0.0158,0.0036 46.636677,37.460795 0 0 0 -0.14993,0.03456 46.636677,37.460795 0 0 0 -0.12499,0.02897 46.636677,37.460795 0 0 0 -0.0553,0.01318 46.636677,37.460795 0 0 0 -0.20601,0.04905 46.636677,37.460795 0 0 0 -0.19719,0.04774 46.636677,37.460795 0 0 0 -0.17595,0.04313 46.636677,37.460795 0 0 0 -0.0891,0.02205 46.636677,37.460795 0 0 0 -0.0953,0.02403 46.636677,37.460795 0 0 0 -0.17484,0.04412 46.636677,37.460795 0 0 0 -0.24338,0.06256 46.636677,37.460795 0 0 0 -0.22873,0.05992 46.636677,37.460795 0 0 0 -0.17266,0.04576 46.636677,37.460795 0 0 0 -0.0418,0.01119 46.636677,37.460795 0 0 0 -0.15908,0.0428 l -24.67183,-12.274367 c -0.0222,-0.01104 -0.0432,-0.01686 -0.0619,-0.01811 z" />
        <g
           id="g883"
           transform="matrix(0.70932133,0,0,0.70932133,-84.304875,24.151249)"
           style="stroke:#f9f9f9;stroke-width:3.11527;stroke-miterlimit:4;stroke-dasharray:none">
          <path
             style="fill:none;stroke:#f9f9f9;stroke-width:3.11527;stroke-linecap:round;stroke-linejoin:miter;stroke-miterlimit:4;stroke-dasharray:none;stroke-opacity:1"
             d="m -327.44077,95.06101 c 1.16926,12.55301 -12.56111,17.09697 -19.46577,7.74851"
             id="path872"
             sodipodi:nodetypes="cc" />
          <path
             style="fill:none;stroke:#f9f9f9;stroke-width:3.11527;stroke-linecap:round;stroke-linejoin:miter;stroke-miterlimit:4;stroke-dasharray:none;stroke-opacity:1"
             d="m -327.22589,95.06101 c -1.16926,12.55301 12.56111,17.09697 19.46577,7.74851"
             id="path874"
             sodipodi:nodetypes="cc" />
        </g>
        <circle
           style="fill:#f9f9f9;stroke:#f9f9f9;stroke-width:1.85547;stroke-miterlimit:4;stroke-dasharray:none"
           id="path844"
           cx="-333.98334"
           cy="74.079079"
           r="7.5740108" />
        <circle
           style="fill:#f9f9f9;stroke:#f9f9f9;stroke-width:1.85547;stroke-miterlimit:4;stroke-dasharray:none"
           id="circle889"
           cx="74.079079"
           cy="298.99545"
           r="7.5740108"
           transform="rotate(90)" />
        <path
           id="path1219"
           style="fill:#f9f9f9;stroke:none;stroke-width:1.47158;stroke-linecap:round;stroke-linejoin:round;stroke-miterlimit:4;stroke-dasharray:none;paint-order:stroke fill markers"
           d="m -251.73506,78.648233 a 14.231526,14.231526 0 0 0 -14.23147,14.231476 14.231526,14.231526 0 0 0 0.70832,4.433981 l -30.29537,30.29537 c -2.42237,2.42238 -2.42237,6.32264 0,8.745 2.42237,2.42238 6.32263,2.42238 8.74501,0 l 30.12948,-30.12946 a 14.231526,14.231526 0 0 0 4.94403,0.88658 14.231526,14.231526 0 0 0 14.23147,-14.231471 14.231526,14.231526 0 0 0 -0.0579,-1.282881 l -6.15844,6.15818 -9.61818,-2.577336 -2.57734,-9.618168 6.68851,-6.688506 a 14.231526,14.231526 0 0 0 -2.5081,-0.222765 z" />
      </g>
    </g>
  </g>
</svg>
