<?xml version="1.0" encoding="UTF-8" standalone="no"?>
<!-- Created with Inkscape (http://www.inkscape.org/) -->

<svg
   xmlns:dc="http://purl.org/dc/elements/1.1/"
   xmlns:cc="http://creativecommons.org/ns#"
   xmlns:rdf="http://www.w3.org/1999/02/22-rdf-syntax-ns#"
   xmlns:svg="http://www.w3.org/2000/svg"
   xmlns="http://www.w3.org/2000/svg"
   xmlns:sodipodi="http://sodipodi.sourceforge.net/DTD/sodipodi-0.dtd"
   xmlns:inkscape="http://www.inkscape.org/namespaces/inkscape"
   width="1080"
   height="792"
   viewBox="0 0 285.74999 209.55001"
   version="1.1"
   id="svg4572"
   inkscape:version="0.92.1 r15371"
   sodipodi:docname="HARIA_BackArt.svg">
  <defs
     id="defs4566" />
  <sodipodi:namedview
     id="base"
     pagecolor="#ffffff"
     bordercolor="#666666"
     borderopacity="1.0"
     inkscape:pageopacity="0.0"
     inkscape:pageshadow="2"
     inkscape:zoom="0.98994949"
     inkscape:cx="326.79731"
     inkscape:cy="351.05796"
     inkscape:document-units="px"
     inkscape:current-layer="layer1"
     showgrid="false"
     units="px"
     width="1024px"
     inkscape:window-width="1920"
     inkscape:window-height="1017"
     inkscape:window-x="-8"
     inkscape:window-y="-8"
     inkscape:window-maximized="1" />
  <metadata
     id="metadata4569">
    <rdf:RDF>
      <cc:Work
         rdf:about="">
        <dc:format>image/svg+xml</dc:format>
        <dc:type
           rdf:resource="http://purl.org/dc/dcmitype/StillImage" />
        <dc:title />
      </cc:Work>
    </rdf:RDF>
  </metadata>
  <g
     inkscape:label="Camada 1"
     inkscape:groupmode="layer"
     id="layer1"
     transform="translate(0,-87.45001)">
    <rect
       style="opacity:1;fill:#000000;fill-opacity:0.92462314;stroke:none;stroke-width:2;stroke-linecap:round;stroke-linejoin:miter;stroke-miterlimit:4;stroke-dasharray:none;stroke-opacity:0.87939698"
       id="rect5218"
       width="285.70779"
       height="209.5231"
       x="0.0033580235"
       y="87.476913"
       sodipodi:insensitive="true" />
    <g
       id="g5205"
       style="fill:#ffffff;fill-opacity:0.36190477">
      <path
         sodipodi:nodetypes="ccccc"
         inkscape:connector-curvature="0"
         id="rect5167"
         d="M -102.20771,172.53004 27.613917,171.32733 42.714645,316.03081 -92.853276,317.9017 Z"
         style="opacity:1;fill:#ffffff;fill-opacity:0.36190477;stroke:none;stroke-width:2;stroke-linecap:round;stroke-linejoin:miter;stroke-miterlimit:4;stroke-dasharray:none;stroke-opacity:1"
         transform="rotate(-45)" />
      <path
         style="opacity:1;fill:#ffffff;fill-opacity:0.36190477;stroke:none;stroke-width:2;stroke-linecap:round;stroke-linejoin:miter;stroke-miterlimit:4;stroke-dasharray:none;stroke-opacity:1"
         d="M 127.3995,116.78381 228.55217,12.040371 330.02253,95.178887 230.94874,202.0012 Z"
         id="path5170"
         inkscape:connector-curvature="0"
         sodipodi:nodetypes="ccccc" />
    </g>
    <g
       id="g5182">
      <path
         sodipodi:nodetypes="ccc"
         inkscape:connector-curvature="0"
         id="path5128"
         d="M -0.86862571,92.538821 123.47853,189.29039 -7.216277,299.93998"
         style="fill:none;stroke:#ffffff;stroke-width:2;stroke-linecap:butt;stroke-linejoin:miter;stroke-miterlimit:4;stroke-dasharray:none;stroke-opacity:0.87939698" />
      <path
         style="fill:none;stroke:#ffffff;stroke-width:2;stroke-linecap:butt;stroke-linejoin:miter;stroke-miterlimit:4;stroke-dasharray:none;stroke-opacity:0.87939698"
         d="M 13.901892,75.700841 153.68941,186.5779 l 0.0312,8.57157 L 26.990569,301.2629"
         id="path5145"
         inkscape:connector-curvature="0"
         sodipodi:nodetypes="cccc" />
      <path
         sodipodi:nodetypes="ccc"
         inkscape:connector-curvature="0"
         id="path5147"
         d="M 48.551762,85.168285 177.04044,189.55766 39.274796,303.90873"
         style="fill:none;stroke:#ffffff;stroke-width:2;stroke-linecap:butt;stroke-linejoin:miter;stroke-miterlimit:4;stroke-dasharray:none;stroke-opacity:0.87939698" />
      <path
         style="fill:none;stroke:#ffffff;stroke-width:2;stroke-linecap:butt;stroke-linejoin:miter;stroke-miterlimit:4;stroke-dasharray:none;stroke-opacity:0.87939698"
         d="M 78.020952,79.709884 206.53531,185.101 l 0.37674,9.7673 -129.35882,106.00712"
         id="path5149"
         inkscape:connector-curvature="0"
         sodipodi:nodetypes="cccc" />
      <path
         sodipodi:nodetypes="cccc"
         inkscape:connector-curvature="0"
         id="path5151"
         d="M 317.76492,79.709884 189.25056,185.101 l -0.37674,9.7673 129.35882,106.00712"
         style="fill:none;stroke:#ffffff;stroke-width:2;stroke-linecap:butt;stroke-linejoin:miter;stroke-miterlimit:4;stroke-dasharray:none;stroke-opacity:0.87939698" />
      <path
         style="fill:none;stroke:#ffffff;stroke-width:2;stroke-linecap:butt;stroke-linejoin:miter;stroke-miterlimit:4;stroke-dasharray:none;stroke-opacity:0.87939698"
         d="M 270.89588,80.843813 134.06604,185.101 l -0.37674,9.7673 128.60287,106.85757"
         id="path5153"
         inkscape:connector-curvature="0"
         sodipodi:nodetypes="cccc" />
      <path
         sodipodi:nodetypes="cc"
         inkscape:connector-curvature="0"
         id="path5155"
         d="M 116.04951,195.67011 243.44967,301.72587"
         style="fill:none;stroke:#ffffff;stroke-width:2;stroke-linecap:butt;stroke-linejoin:miter;stroke-miterlimit:4;stroke-dasharray:none;stroke-opacity:0.87939698" />
      <path
         style="fill:none;stroke:#ffffff;stroke-width:2;stroke-linecap:butt;stroke-linejoin:miter;stroke-miterlimit:4;stroke-dasharray:none;stroke-opacity:0.87939698"
         d="m 61.259256,183.91025 231.989954,-1.5875"
         id="path5161"
         inkscape:connector-curvature="0"
         sodipodi:nodetypes="cc" />
      <path
         sodipodi:nodetypes="cc"
         inkscape:connector-curvature="0"
         id="path5163"
         d="m 61.259256,183.91025 231.989954,-1.5875"
         style="fill:none;stroke:#ffffff;stroke-width:2;stroke-linecap:butt;stroke-linejoin:miter;stroke-miterlimit:4;stroke-dasharray:none;stroke-opacity:0.87939698" />
      <path
         style="fill:none;stroke:#ffffff;stroke-width:2;stroke-linecap:butt;stroke-linejoin:miter;stroke-miterlimit:4;stroke-dasharray:none;stroke-opacity:0.87939698"
         d="m -12.239865,201.81731 231.989955,-1.5875"
         id="path5165"
         inkscape:connector-curvature="0"
         sodipodi:nodetypes="cc" />
    </g>
    <g
       aria-label="HARIA- 9000"
       style="font-style:normal;font-variant:normal;font-weight:normal;font-stretch:normal;font-size:17.12321663px;line-height:1.25;font-family:Metropolis1920;-inkscape-font-specification:Metropolis1920;letter-spacing:0px;word-spacing:0px;fill:#000000;fill-opacity:1;stroke:none;stroke-width:0.42808038"
       id="text5222">
      <path
         d="m 8.0804101,185.96458 v 7.85956 H 7.1557564 v -7.85956 H 6.5393206 v 7.85956 H 4.6900132 v -7.85956 H 4.0735774 v 7.85956 H 3.1489237 v -7.85956 H 2.5324879 v 13.66433 h 0.6164358 v -3.64725 h 0.9246537 v 3.64725 h 0.6164358 v -3.64725 h 1.8493074 v 3.64725 h 0.6164358 v -4.26368 H 3.1489237 v -0.92466 h 4.9314864 v 5.18834 h 0.6164358 v -13.66433 z"
         style="font-style:normal;font-variant:normal;font-weight:normal;font-stretch:normal;font-family:Metropolis1920;-inkscape-font-specification:Metropolis1920;fill:#ffffff;stroke-width:0.42808038"
         id="path4507" />
      <path
         d="m 13.765318,185.99883 c -1.506843,0.27397 -2.671222,1.60958 -2.671222,3.16779 v 10.46229 h 0.616436 v -4.81163 l 0.924654,0.53082 v 4.28081 h 0.616435 v -3.93834 l 2.106156,1.21574 v 2.7226 h 0.616436 v -3.08218 c -0.907531,-0.53082 -1.815061,-1.0274 -2.722592,-1.55822 v -1.06163 c 0.907531,0.53081 1.815061,1.02739 2.722592,1.55821 v -6.31847 c 0,-0.89041 -0.753422,-1.67807 -1.678075,-1.67807 -0.907531,0 -1.660952,0.78766 -1.660952,1.67807 v 5.46231 l -0.924654,-0.53082 v -4.93149 c 0,-1.42123 1.164379,-2.60273 2.585606,-2.60273 1.421227,0 2.602729,1.1815 2.602729,2.60273 v 10.46229 h 0.616435 v -10.46229 c 0,-2.00342 -1.832184,-3.49314 -3.749984,-3.16779 z m -0.513697,7.20887 v -4.04108 c 0,-0.59931 0.479451,-1.06164 1.044517,-1.06164 0.599312,0 1.061639,0.46233 1.061639,1.06164 v 5.23971 z"
         style="font-style:normal;font-variant:normal;font-weight:normal;font-stretch:normal;font-family:Metropolis1920;-inkscape-font-specification:Metropolis1920;fill:#ffffff;stroke-width:0.42808038"
         id="path4509" />
      <path
         d="m 23.897446,194.95427 1.96917,4.67464 h 0.667806 l -1.917801,-4.55478 c 1.198625,-1.4726 1.54109,-3.45889 0.993147,-5.2397 -0.547943,-1.6952 -1.900677,-3.06506 -3.595876,-3.613 -0.599312,-0.20548 -1.249994,-0.2911 -1.9178,-0.27397 l 3.116426,7.3801 c -0.171233,0.2911 -0.393834,0.54795 -0.667806,0.80479 l -2.688345,-6.36983 v 11.86639 h 0.616436 v -8.81846 l 0.924654,2.19177 v 6.62669 h 0.616435 v -2.77396 c 0.291095,-0.0856 0.58219,-0.22261 0.856161,-0.35959 l 1.318488,3.13355 h 0.667805 l -1.695198,-4.04108 c -0.359588,0.25685 -0.736298,0.47945 -1.147256,0.61643 v -1.01027 c 1.506843,-0.68493 2.44862,-2.34588 2.311635,-3.98971 -0.136986,-1.64383 -1.284242,-3.03081 -2.825331,-3.52738 l -0.445204,-1.04452 c 1.678076,0.23973 3.099302,1.40411 3.784231,2.91095 0.684929,1.59246 0.513697,3.45889 -0.496573,4.88012 -0.136986,0.18835 -0.291095,0.34246 -0.445204,0.53082 z m -0.342464,-2.38013 -1.54109,-3.66437 v -0.32534 c 0.239725,0.11986 0.47945,0.30822 0.702052,0.53082 0.873284,0.87329 1.232872,2.22602 0.839038,3.45889 z"
         style="font-style:normal;font-variant:normal;font-weight:normal;font-stretch:normal;font-family:Metropolis1920;-inkscape-font-specification:Metropolis1920;fill:#ffffff;stroke-width:0.42808038"
         id="path4511" />
      <path
         d="m 32.696906,186.56389 v -0.61643 h -5.171211 v 0.61643 h 3.013686 v 0.92466 h -3.013686 v 0.61643 h 1.575336 v 9.3664 h -1.575336 v 0.61644 h 1.575336 v 0.92465 h -1.575336 v 0.61644 h 5.171211 v -0.61644 H 29.68322 v -0.92465 h 3.013686 v -0.61644 H 31.12157 v -9.3664 h 1.575336 v -0.61643 H 31.12157 v -0.92466 z m -2.157525,10.90749 H 29.68322 v -9.3664 h 0.856161 z"
         style="font-style:normal;font-variant:normal;font-weight:normal;font-stretch:normal;font-family:Metropolis1920;-inkscape-font-specification:Metropolis1920;fill:#ffffff;stroke-width:0.42808038"
         id="path4513" />
      <path
         d="m 37.343183,185.99883 c -1.506843,0.27397 -2.671222,1.60958 -2.671222,3.16779 v 10.46229 h 0.616436 v -4.81163 l 0.924653,0.53082 v 4.28081 h 0.616436 v -3.93834 l 2.106156,1.21574 v 2.7226 h 0.616436 v -3.08218 c -0.907531,-0.53082 -1.815061,-1.0274 -2.722592,-1.55822 v -1.06163 c 0.907531,0.53081 1.815061,1.02739 2.722592,1.55821 v -6.31847 c 0,-0.89041 -0.753422,-1.67807 -1.678076,-1.67807 -0.90753,0 -1.660952,0.78766 -1.660952,1.67807 v 5.46231 l -0.924653,-0.53082 v -4.93149 c 0,-1.42123 1.164378,-2.60273 2.585605,-2.60273 1.421227,0 2.602729,1.1815 2.602729,2.60273 v 10.46229 h 0.616436 v -10.46229 c 0,-2.00342 -1.832184,-3.49314 -3.749984,-3.16779 z m -0.513697,7.20887 v -4.04108 c 0,-0.59931 0.47945,-1.06164 1.044516,-1.06164 0.599313,0 1.06164,0.46233 1.06164,1.06164 v 5.23971 z"
         style="font-style:normal;font-variant:normal;font-weight:normal;font-stretch:normal;font-family:Metropolis1920;-inkscape-font-specification:Metropolis1920;fill:#ffffff;stroke-width:0.42808038"
         id="path4515" />
      <path
         d="m 42.852043,193.63578 v 0.56507 h 3.065056 v -0.56507 z"
         style="font-style:normal;font-variant:normal;font-weight:normal;font-stretch:normal;font-family:Metropolis1920;-inkscape-font-specification:Metropolis1920;fill:#ffffff;stroke-width:0.42808038"
         id="path4517" />
      <path
         d="m 55.713719,197.16316 v -8.86982 c -0.01712,-0.46233 -0.136986,-0.83904 -0.359588,-1.16438 -0.188355,-0.32534 -0.410957,-0.58219 -0.736298,-0.77055 -0.325341,-0.2226 -0.684929,-0.34246 -1.078763,-0.39383 -0.393834,-0.0343 -0.770544,0.0171 -1.147255,0.15411 -0.359588,0.15411 -0.667806,0.35959 -0.890407,0.61643 -0.256849,0.27398 -0.445204,0.59932 -0.547943,0.97603 -0.06849,0.20548 -0.08562,0.58219 -0.08562,0.63356 v 3.21916 c 0,0.42808 0.119862,0.82192 0.342464,1.1815 0.188355,0.2911 0.42808,0.54795 0.736298,0.77055 0.342464,0.2226 0.702052,0.34246 1.078763,0.37671 0.205478,0.0171 0.42808,0.0343 0.616436,-0.0171 v 3.39039 c 0,0.18836 -0.154109,0.30822 -0.342465,0.30822 -0.188355,0.0171 -0.325341,-0.10274 -0.37671,-0.25685 v -1.57533 h -0.599313 v 1.57533 c 0.05137,0.39384 0.359587,0.7363 0.719175,0.82192 0.547943,0.13698 1.198625,-0.25685 1.198625,-0.82192 v -3.59587 c 0.342465,-0.15411 0.633559,-0.37671 0.873284,-0.65069 v 4.29793 c -0.03425,0.41096 -0.188355,0.77055 -0.445203,1.06164 -0.256849,0.2911 -0.58219,0.49657 -0.976024,0.58219 -0.410957,0.0856 -0.804791,0.0342 -1.198625,-0.13699 -0.342464,-0.1541 -0.616436,-0.41095 -0.821914,-0.75342 -0.154109,-0.27397 -0.222602,-0.56506 -0.222602,-0.85616 v -1.52396 h -0.582189 v 1.54109 c 0,0.42808 0.119862,0.83903 0.342464,1.19862 0.205478,0.32534 0.462327,0.58219 0.787668,0.78767 0.325341,0.20548 0.719175,0.34246 1.113009,0.35959 0.410957,0.0342 0.821914,-0.0342 1.215748,-0.22261 0.325341,-0.18835 0.633559,-0.39383 0.856161,-0.68492 0.393834,-0.46233 0.53082,-1.0274 0.53082,-1.55822 z m -1.472597,-4.10957 v -4.67464 c 0,-0.39383 -0.256848,-0.7363 -0.582189,-0.87328 -0.188356,-0.0856 -0.393834,-0.10274 -0.599313,-0.0514 -0.42808,0.0856 -0.736298,0.49657 -0.736298,0.89041 v 3.15067 c 0,0.39383 0.256848,0.7363 0.582189,0.87328 0.256849,0.11986 0.496574,0.11986 0.736299,0 v 0.90753 c -0.393834,0.0856 -0.787668,0.0514 -1.164379,-0.13698 -0.325341,-0.15411 -0.599313,-0.39384 -0.787668,-0.71918 -0.154109,-0.29109 -0.239725,-0.59931 -0.239725,-0.92465 v -3.15067 c 0,-0.39384 0.119862,-0.75343 0.359587,-1.07877 0.239725,-0.30821 0.53082,-0.51369 0.890408,-0.61643 0.37671,-0.13699 0.770544,-0.13699 1.164378,-0.0171 0.342465,0.11987 0.633559,0.32535 0.873284,0.61644 0.256849,0.34246 0.376711,0.71918 0.376711,1.11301 v 3.16779 c 0,0.41096 -0.136986,0.78767 -0.410957,1.11301 -0.119862,0.15411 -0.308218,0.32534 -0.462327,0.41096 z m -0.599312,-4.72601 v 3.20204 c 0,0.18836 -0.154109,0.30822 -0.342465,0.32535 -0.188355,0.0171 -0.37671,-0.11987 -0.37671,-0.30822 v -3.20204 c 0,-0.18836 0.154108,-0.32534 0.342464,-0.32534 0.188355,-0.0171 0.376711,0.11986 0.376711,0.30821 z"
         style="font-style:normal;font-variant:normal;font-weight:normal;font-stretch:normal;font-family:Metropolis1920;-inkscape-font-specification:Metropolis1920;fill:#ffffff;stroke-width:0.42808038"
         id="path4519" />
      <path
         d="m 61.839017,186.95773 c -0.273971,-0.37671 -0.633559,-0.65069 -1.095885,-0.83904 -0.273972,-0.11986 -0.565067,-0.17123 -0.890408,-0.17123 -0.325341,0 -0.633559,0.0514 -0.890407,0.17123 -0.445204,0.17123 -0.804791,0.4452 -1.095886,0.83904 -0.273971,0.39383 -0.445203,0.87328 -0.445203,1.36985 v 8.9212 c 0,0.49657 0.171232,0.97602 0.445203,1.36986 0.273972,0.37671 0.633559,0.6678 1.095886,0.85616 0.273972,0.10274 0.565066,0.15411 0.890407,0.15411 0.291095,0 0.599313,-0.0514 0.890408,-0.15411 0.42808,-0.18836 0.821914,-0.46233 1.095885,-0.85616 0.291095,-0.41096 0.428081,-0.87329 0.428081,-1.36986 v -8.9212 c 0,-0.49657 -0.136986,-0.9589 -0.428081,-1.36985 z m -0.154108,1.36985 v 8.9212 c 0,0.37671 -0.10274,0.71917 -0.325342,1.02739 -0.205478,0.2911 -0.47945,0.5137 -0.839037,0.65068 -0.188356,0.0856 -0.410957,0.11987 -0.667806,0.11987 -0.256848,0 -0.47945,-0.0342 -0.684928,-0.11987 -0.342465,-0.1541 -0.616436,-0.35958 -0.821915,-0.65068 -0.222602,-0.29109 -0.342464,-0.63356 -0.342464,-1.02739 v -8.9212 c 0,-0.39383 0.119862,-0.7363 0.342464,-1.02739 0.205479,-0.29109 0.47945,-0.49657 0.821915,-0.65068 0.205478,-0.0856 0.42808,-0.11986 0.684928,-0.11986 0.256849,0 0.47945,0.0342 0.667806,0.11986 0.359587,0.13698 0.633559,0.35959 0.839037,0.65068 0.222602,0.30822 0.325342,0.65068 0.325342,1.02739 z m -1.832185,-0.92465 c -0.462327,0 -0.9589,0.39383 -0.9589,0.92465 v 8.9212 c 0.06849,0.54794 0.462327,0.92465 0.9589,0.92465 0.53082,0 0.941777,-0.4452 0.941777,-0.92465 v -8.9212 c -0.01712,-0.53082 -0.445203,-0.92465 -0.941777,-0.92465 z m 0.359588,0.92465 v 8.9212 c -0.03425,0.2226 -0.154109,0.32534 -0.359588,0.32534 -0.205478,0 -0.37671,-0.17123 -0.37671,-0.32534 v -8.9212 c 0,-0.18835 0.171232,-0.32534 0.37671,-0.32534 0.205479,0 0.359588,0.17123 0.359588,0.32534 z"
         style="font-style:normal;font-variant:normal;font-weight:normal;font-stretch:normal;font-family:Metropolis1920;-inkscape-font-specification:Metropolis1920;fill:#ffffff;stroke-width:0.42808038"
         id="path4521" />
      <path
         d="m 68.360555,186.95773 c -0.273971,-0.37671 -0.633559,-0.65069 -1.095886,-0.83904 -0.273971,-0.11986 -0.565066,-0.17123 -0.890407,-0.17123 -0.325341,0 -0.633559,0.0514 -0.890407,0.17123 -0.445204,0.17123 -0.804791,0.4452 -1.095886,0.83904 -0.273971,0.39383 -0.445204,0.87328 -0.445204,1.36985 v 8.9212 c 0,0.49657 0.171233,0.97602 0.445204,1.36986 0.273971,0.37671 0.633559,0.6678 1.095886,0.85616 0.273971,0.10274 0.565066,0.15411 0.890407,0.15411 0.291095,0 0.599313,-0.0514 0.890407,-0.15411 0.428081,-0.18836 0.821915,-0.46233 1.095886,-0.85616 0.291095,-0.41096 0.428081,-0.87329 0.428081,-1.36986 v -8.9212 c 0,-0.49657 -0.136986,-0.9589 -0.428081,-1.36985 z m -0.154109,1.36985 v 8.9212 c 0,0.37671 -0.102739,0.71917 -0.325341,1.02739 -0.205478,0.2911 -0.47945,0.5137 -0.839037,0.65068 -0.188356,0.0856 -0.410958,0.11987 -0.667806,0.11987 -0.256848,0 -0.47945,-0.0342 -0.684929,-0.11987 -0.342464,-0.1541 -0.616435,-0.35958 -0.821914,-0.65068 -0.222602,-0.29109 -0.342464,-0.63356 -0.342464,-1.02739 v -8.9212 c 0,-0.39383 0.119862,-0.7363 0.342464,-1.02739 0.205479,-0.29109 0.47945,-0.49657 0.821914,-0.65068 0.205479,-0.0856 0.428081,-0.11986 0.684929,-0.11986 0.256848,0 0.47945,0.0342 0.667806,0.11986 0.359587,0.13698 0.633559,0.35959 0.839037,0.65068 0.222602,0.30822 0.325341,0.65068 0.325341,1.02739 z m -1.832184,-0.92465 c -0.462327,0 -0.9589,0.39383 -0.9589,0.92465 v 8.9212 c 0.06849,0.54794 0.462327,0.92465 0.9589,0.92465 0.53082,0 0.941777,-0.4452 0.941777,-0.92465 v -8.9212 c -0.01712,-0.53082 -0.445204,-0.92465 -0.941777,-0.92465 z m 0.359588,0.92465 v 8.9212 c -0.03425,0.2226 -0.154109,0.32534 -0.359588,0.32534 -0.205478,0 -0.376711,-0.17123 -0.376711,-0.32534 v -8.9212 c 0,-0.18835 0.171233,-0.32534 0.376711,-0.32534 0.205479,0 0.359588,0.17123 0.359588,0.32534 z"
         style="font-style:normal;font-variant:normal;font-weight:normal;font-stretch:normal;font-family:Metropolis1920;-inkscape-font-specification:Metropolis1920;fill:#ffffff;stroke-width:0.42808038"
         id="path4523" />
      <path
         d="m 74.882089,186.95773 c -0.273971,-0.37671 -0.633559,-0.65069 -1.095886,-0.83904 -0.273971,-0.11986 -0.565066,-0.17123 -0.890407,-0.17123 -0.325341,0 -0.633559,0.0514 -0.890407,0.17123 -0.445204,0.17123 -0.804791,0.4452 -1.095886,0.83904 -0.273972,0.39383 -0.445204,0.87328 -0.445204,1.36985 v 8.9212 c 0,0.49657 0.171232,0.97602 0.445204,1.36986 0.273971,0.37671 0.633559,0.6678 1.095886,0.85616 0.273971,0.10274 0.565066,0.15411 0.890407,0.15411 0.291095,0 0.599313,-0.0514 0.890407,-0.15411 0.428081,-0.18836 0.821915,-0.46233 1.095886,-0.85616 0.291095,-0.41096 0.428081,-0.87329 0.428081,-1.36986 v -8.9212 c 0,-0.49657 -0.136986,-0.9589 -0.428081,-1.36985 z m -0.154109,1.36985 v 8.9212 c 0,0.37671 -0.102739,0.71917 -0.325341,1.02739 -0.205478,0.2911 -0.47945,0.5137 -0.839037,0.65068 -0.188356,0.0856 -0.410958,0.11987 -0.667806,0.11987 -0.256848,0 -0.47945,-0.0342 -0.684929,-0.11987 -0.342464,-0.1541 -0.616435,-0.35958 -0.821914,-0.65068 -0.222602,-0.29109 -0.342464,-0.63356 -0.342464,-1.02739 v -8.9212 c 0,-0.39383 0.119862,-0.7363 0.342464,-1.02739 0.205479,-0.29109 0.47945,-0.49657 0.821914,-0.65068 0.205479,-0.0856 0.428081,-0.11986 0.684929,-0.11986 0.256848,0 0.47945,0.0342 0.667806,0.11986 0.359587,0.13698 0.633559,0.35959 0.839037,0.65068 0.222602,0.30822 0.325341,0.65068 0.325341,1.02739 z m -1.832184,-0.92465 c -0.462327,0 -0.9589,0.39383 -0.9589,0.92465 v 8.9212 c 0.06849,0.54794 0.462327,0.92465 0.9589,0.92465 0.53082,0 0.941777,-0.4452 0.941777,-0.92465 v -8.9212 c -0.01712,-0.53082 -0.445204,-0.92465 -0.941777,-0.92465 z m 0.359588,0.92465 v 8.9212 c -0.03425,0.2226 -0.154109,0.32534 -0.359588,0.32534 -0.205479,0 -0.376711,-0.17123 -0.376711,-0.32534 v -8.9212 c 0,-0.18835 0.171232,-0.32534 0.376711,-0.32534 0.205479,0 0.359588,0.17123 0.359588,0.32534 z"
         style="font-style:normal;font-variant:normal;font-weight:normal;font-stretch:normal;font-family:Metropolis1920;-inkscape-font-specification:Metropolis1920;fill:#ffffff;stroke-width:0.42808038"
         id="path4525" />
    </g>
  </g>
</svg>
