<?xml version="1.0" encoding="UTF-8" standalone="no"?>
<svg
   xmlns:dc="http://purl.org/dc/elements/1.1/"
   xmlns:cc="http://creativecommons.org/ns#"
   xmlns:rdf="http://www.w3.org/1999/02/22-rdf-syntax-ns#"
   xmlns:svg="http://www.w3.org/2000/svg"
   xmlns="http://www.w3.org/2000/svg"
   xmlns:sodipodi="http://sodipodi.sourceforge.net/DTD/sodipodi-0.dtd"
   xmlns:inkscape="http://www.inkscape.org/namespaces/inkscape"
   width="226.6461mm"
   height="133.409mm"
   viewBox="0 0 226.6461 133.409"
   version="1.1"
   id="svg8"
   inkscape:version="1.0.2 (e86c870879, 2021-01-15, custom)"
   sodipodi:docname="Error_Purple.svg"
   inkscape:export-filename="D:\Repositories\HARIA\Graphics\Emulator_Logo.png"
   inkscape:export-xdpi="96"
   inkscape:export-ydpi="96">
  <defs
     id="defs2">
    <marker
       style="overflow:visible"
       id="Arrow1Lend"
       refX="0"
       refY="0"
       orient="auto"
       inkscape:stockid="Arrow1Lend"
       inkscape:isstock="true">
      <path
         transform="matrix(-0.8,0,0,-0.8,-10,0)"
         style="fill-rule:evenodd;stroke:#000000;stroke-width:1pt"
         d="M 0,0 5,-5 -12.5,0 5,5 Z"
         id="path906" />
    </marker>
    <marker
       style="overflow:visible"
       id="Arrow1Lstart"
       refX="0"
       refY="0"
       orient="auto"
       inkscape:stockid="Arrow1Lstart"
       inkscape:isstock="true">
      <path
         transform="matrix(0.8,0,0,0.8,10,0)"
         style="fill-rule:evenodd;stroke:#000000;stroke-width:1pt"
         d="M 0,0 5,-5 -12.5,0 5,5 Z"
         id="path903" />
    </marker>
  </defs>
  <sodipodi:namedview
     id="base"
     pagecolor="#ffffff"
     bordercolor="#666666"
     borderopacity="1.0"
     inkscape:pageopacity="0.0"
     inkscape:pageshadow="2"
     inkscape:zoom="0.49497475"
     inkscape:cx="994.38674"
     inkscape:cy="24.901485"
     inkscape:document-units="mm"
     inkscape:current-layer="g1920"
     inkscape:document-rotation="0"
     showgrid="false"
     inkscape:window-width="2400"
     inkscape:window-height="1271"
     inkscape:window-x="2391"
     inkscape:window-y="-9"
     inkscape:window-maximized="1" />
  <metadata
     id="metadata5">
    <rdf:RDF>
      <cc:Work
         rdf:about="">
        <dc:format>image/svg+xml</dc:format>
        <dc:type
           rdf:resource="http://purl.org/dc/dcmitype/StillImage" />
        <dc:title />
      </cc:Work>
    </rdf:RDF>
  </metadata>
  <g
     inkscape:label="Layer 1"
     inkscape:groupmode="layer"
     id="layer1"
     transform="translate(432.10847,-0.24768732)">
    <g
       id="g901"
       transform="translate(3.3901924)"
       style="stroke-width:2.4;stroke-miterlimit:4;stroke-dasharray:none">
      <g
         id="g1920">
        <g
           id="g1053">
          <g
             id="g1508"
             transform="rotate(-22.894685,-321.17404,74.106407)">
            <path
               sodipodi:type="spiral"
               style="fill:none;fill-rule:evenodd;stroke:#56007b;stroke-width:2.888;stroke-linecap:round;stroke-miterlimit:4;stroke-dasharray:none;stroke-opacity:1"
               id="path1473"
               sodipodi:cx="-344.43463"
               sodipodi:cy="69.398956"
               sodipodi:expansion="1"
               sodipodi:revolution="2.3"
               sodipodi:radius="11.669154"
               sodipodi:argument="-18.295248"
               sodipodi:t0="0"
               d="m -344.43463,69.398956 c 0.64887,0.401682 -0.22133,1.07284 -0.66762,1.078465 -1.20943,0.01524 -1.7406,-1.41349 -1.48931,-2.413708 0.44949,-1.789153 2.54737,-2.47998 4.15979,-1.90015 2.36629,0.850923 3.2366,3.694944 2.311,5.905879 -1.23368,2.946829 -4.84716,4.000266 -7.65197,2.721837 -3.52957,-1.608773 -4.76753,-6.001517 -3.13268,-9.398051 1.98003,-4.113659 7.15709,-5.53687 11.14414,-3.543523 4.6986,2.349091 6.3075,8.3134 3.95436,12.890223 -2.71679,5.284122 -9.47021,7.079008 -14.6363,4.365208 -1.07301,-0.563662 -2.05405,-1.29909 -2.89894,-2.167934"
               transform="rotate(123.58313,-344.03734,70.659163)" />
            <path
               id="path833"
               style="fill:none;stroke:#56007b;stroke-width:4.766;stroke-linejoin:round;stroke-miterlimit:4;stroke-dasharray:none;stroke-opacity:1"
               d="m -373.00747,18.399483 c -0.0735,-0.0049 -0.12173,0.04495 -0.1169,0.134248 l 1.86932,34.409013 a 60.951751,48.959343 0 0 0 -0.0235,0.02756 60.951751,48.959343 0 0 0 -0.15953,0.185024 60.951751,48.959343 0 0 0 -0.0378,0.04479 60.951751,48.959343 0 0 0 -0.14418,0.169957 60.951751,48.959343 0 0 0 -0.0321,0.03871 60.951751,48.959343 0 0 0 -0.16672,0.198788 60.951751,48.959343 0 0 0 -0.18492,0.223317 60.951751,48.959343 0 0 0 -0.18347,0.22375 60.951751,48.959343 0 0 0 -0.34925,0.434154 60.951751,48.959343 0 0 0 -0.0714,0.08951 60.951751,48.959343 0 0 0 -0.0934,0.118761 60.951751,48.959343 0 0 0 -0.11978,0.15275 60.951751,48.959343 0 0 0 -0.0503,0.06495 60.951751,48.959343 0 0 0 -0.0886,0.114023 60.951751,48.959343 0 0 0 -0.1078,0.140277 60.951751,48.959343 0 0 0 -0.0436,0.05679 60.951751,48.959343 0 0 0 -0.1442,0.189752 60.951751,48.959343 0 0 0 -0.13415,0.178146 60.951751,48.959343 0 0 0 -0.16335,0.219013 60.951751,48.959343 0 0 0 -0.14467,0.196639 60.951751,48.959343 0 0 0 -0.0369,0.04946 60.951751,48.959343 0 0 0 -0.11021,0.152316 60.951751,48.959343 0 0 0 -0.0465,0.0637 60.951751,48.959343 0 0 0 -0.0455,0.06328 60.951751,48.959343 0 0 0 -0.16623,0.232352 60.951751,48.959343 0 0 0 -0.13893,0.196639 60.951751,48.959343 0 0 0 -0.0676,0.09595 60.951751,48.959343 0 0 0 -0.1121,0.160926 60.951751,48.959343 0 0 0 -0.0441,0.0637 60.951751,48.959343 0 0 0 -0.11498,0.167379 60.951751,48.959343 0 0 0 -0.0311,0.04561 60.951751,48.959343 0 0 0 -0.1346,0.197498 60.951751,48.959343 0 0 0 -0.0325,0.04858 60.951751,48.959343 0 0 0 -0.0891,0.132957 60.951751,48.959343 0 0 0 -0.0426,0.06415 60.951751,48.959343 0 0 0 -0.15663,0.236656 60.951751,48.959343 0 0 0 -0.15522,0.237519 60.951751,48.959343 0 0 0 -0.11499,0.178132 60.951751,48.959343 0 0 0 -0.12551,0.196219 60.951751,48.959343 0 0 0 -0.0384,0.06017 60.951751,48.959343 0 0 0 -0.0532,0.08436 60.951751,48.959343 0 0 0 -0.12361,0.197498 60.951751,48.959343 0 0 0 -0.14849,0.240105 60.951751,48.959343 0 0 0 -0.12982,0.212127 60.951751,48.959343 0 0 0 -0.0436,0.07185 60.951751,48.959343 0 0 0 -0.1188,0.197934 60.951751,48.959343 0 0 0 -0.14277,0.240105 60.951751,48.959343 0 0 0 -0.003,0.0046 60.951751,48.959343 0 0 0 -0.14038,0.23967 60.951751,48.959343 0 0 0 -0.003,0.0037 60.951751,48.959343 0 0 0 -0.114,0.197507 60.951751,48.959343 0 0 0 -0.08,0.140262 60.951751,48.959343 0 0 0 -0.0723,0.127794 60.951751,48.959343 0 0 0 -0.036,0.06369 60.951751,48.959343 0 0 0 -0.10444,0.185455 60.951751,48.959343 0 0 0 -0.0196,0.03532 60.951751,48.959343 0 0 0 -0.12313,0.223316 60.951751,48.959343 0 0 0 -0.12552,0.231067 60.951751,48.959343 0 0 0 -0.0269,0.04941 60.951751,48.959343 0 0 0 -0.11304,0.21171 60.951751,48.959343 0 0 0 -0.12984,0.245259 60.951751,48.959343 0 0 0 -4.9e-4,0.0019 60.951751,48.959343 0 0 0 -0.0939,0.180283 60.951751,48.959343 0 0 0 -0.11832,0.229769 60.951751,48.959343 0 0 0 -0.0159,0.03143 60.951751,48.959343 0 0 0 -0.0551,0.108427 60.951751,48.959343 0 0 0 -0.0977,0.194059 60.951751,48.959343 0 0 0 -0.1236,0.249134 60.951751,48.959343 0 0 0 -0.09,0.183732 60.951751,48.959343 0 0 0 -0.0767,0.158775 60.951751,48.959343 0 0 0 -0.0752,0.157487 60.951751,48.959343 0 0 0 -0.0977,0.206536 60.951751,48.959343 0 0 0 -0.0498,0.106277 60.951751,48.959343 0 0 0 -0.0877,0.188895 60.951751,48.959343 0 0 0 -0.11499,0.251712 60.951751,48.959343 0 0 0 -0.10539,0.234079 60.951751,48.959343 0 0 0 -0.0325,0.07361 60.951751,48.959343 0 0 0 -0.0732,0.166516 60.951751,48.959343 0 0 0 -0.0594,0.13597 60.951751,48.959343 0 0 0 -0.0469,0.107574 60.951751,48.959343 0 0 0 -0.0652,0.152314 60.951751,48.959343 0 0 0 -0.0412,0.09768 60.951751,48.959343 0 0 0 -0.0599,0.141124 60.951751,48.959343 0 0 0 -0.0618,0.148875 60.951751,48.959343 0 0 0 -0.011,0.02586 60.951751,48.959343 0 0 0 -0.0877,0.212989 60.951751,48.959343 0 0 0 -0.0283,0.06925 60.951751,48.959343 0 0 0 -0.0843,0.209977 60.951751,48.959343 0 0 0 -0.0929,0.234079 60.951751,48.959343 0 0 0 -0.0451,0.115742 60.951751,48.959343 0 0 0 -0.0508,0.131232 60.951751,48.959343 0 0 0 -0.0393,0.101985 60.951751,48.959343 0 0 0 -0.0585,0.153611 60.951751,48.959343 0 0 0 -0.0383,0.101549 60.951751,48.959343 0 0 0 -0.068,0.183305 60.951751,48.959343 0 0 0 -0.005,0.01113 60.951751,48.959343 0 0 0 -0.0877,0.239233 60.951751,48.959343 0 0 0 -0.0148,0.04135 60.951751,48.959343 0 0 0 -0.0718,0.199222 60.951751,48.959343 0 0 0 -0.044,0.126078 60.951751,48.959343 0 0 0 -0.0469,0.133384 60.951751,48.959343 0 0 0 -0.0225,0.06499 60.951751,48.959343 0 0 0 -0.0718,0.207825 60.951751,48.959343 0 0 0 -0.0221,0.06582 60.951751,48.959343 0 0 0 -0.0551,0.162651 60.951751,48.959343 0 0 0 -0.0489,0.148448 60.951751,48.959343 0 0 0 -0.0446,0.135543 60.951751,48.959343 0 0 0 -0.0168,0.05164 60.951751,48.959343 0 0 0 -0.0618,0.190619 60.951751,48.959343 0 0 0 -0.0575,0.182443 60.951751,48.959343 0 0 0 -0.023,0.07361 60.951751,48.959343 0 0 0 -0.0273,0.08733 60.951751,48.959343 0 0 0 -0.0541,0.175981 60.951751,48.959343 0 0 0 -0.0446,0.146724 60.951751,48.959343 0 0 0 -0.0364,0.122203 60.951751,48.959343 0 0 0 -0.0263,0.08863 60.951751,48.959343 0 0 0 -0.0503,0.171689 60.951751,48.959343 0 0 0 -0.0321,0.112303 60.951751,48.959343 0 0 0 -0.0398,0.138556 60.951751,48.959343 0 0 0 -0.046,0.163503 60.951751,48.959343 0 0 0 -0.0273,0.09811 60.951751,48.959343 0 0 0 -0.0272,0.09982 60.951751,48.959343 0 0 0 -0.0489,0.178568 60.951751,48.959343 0 0 0 -0.0163,0.06193 60.951751,48.959343 0 0 0 -0.0584,0.222028 60.951751,48.959343 0 0 0 -0.0594,0.229342 60.951751,48.959343 0 0 0 -0.0422,0.166943 60.951751,48.959343 0 0 0 -0.0216,0.08696 60.951751,48.959343 0 0 0 -0.0312,0.127357 60.951751,48.959343 0 0 0 -0.0345,0.139845 60.951751,48.959343 0 0 0 -0.0221,0.0938 60.951751,48.959343 0 0 0 -0.0489,0.208252 60.951751,48.959343 0 0 0 -0.0604,0.263346 60.951751,48.959343 0 0 0 -0.0517,0.232346 60.951751,48.959343 0 0 0 -0.0172,0.07963 60.951751,48.959343 0 0 0 -0.0464,0.216428 60.951751,48.959343 0 0 0 -0.0552,0.264626 60.951751,48.959343 0 0 0 -0.0531,0.264625 60.951751,48.959343 0 0 0 -0.0455,0.232791 60.951751,48.959343 0 0 0 -0.0153,0.08047 60.951751,48.959343 0 0 0 -0.0402,0.216864 60.951751,48.959343 0 0 0 -0.0383,0.213415 60.951751,48.959343 0 0 0 -0.0364,0.208261 60.951751,48.959343 0 0 0 -0.01,0.05423 60.951751,48.959343 0 0 0 -0.0196,0.114463 60.951751,48.959343 0 0 0 -0.034,0.206527 60.951751,48.959343 0 0 0 -0.034,0.210848 60.951751,48.959343 0 0 0 -0.021,0.137685 60.951751,48.959343 0 0 0 -0.0278,0.182007 60.951751,48.959343 0 0 0 0,0.0019 60.951751,48.959343 0 0 0 -0.0283,0.194068 60.951751,48.959343 0 0 0 -0.0201,0.142413 60.951751,48.959343 0 0 0 -0.0273,0.196645 60.951751,48.959343 0 0 0 -0.0345,0.263763 60.951751,48.959343 0 0 0 -4.6e-4,0.0028 60.951751,48.959343 0 0 0 -0.0244,0.194495 60.951751,48.959343 0 0 0 -0.0216,0.17943 60.951751,48.959343 0 0 0 -0.0187,0.160063 60.951751,48.959343 0 0 0 -0.0297,0.267212 60.951751,48.959343 0 0 0 -0.0273,0.26419 60.951751,48.959343 0 0 0 -4.9e-4,0.0037 60.951751,48.959343 0 0 0 -0.0192,0.194495 60.951751,48.959343 0 0 0 -0.0172,0.185882 60.951751,48.959343 0 0 0 -0.012,0.134246 60.951751,48.959343 0 0 0 -0.002,0.01984 60.951751,48.959343 0 0 0 -0.0163,0.194912 60.951751,48.959343 0 0 0 -0.0168,0.212562 60.951751,48.959343 0 0 0 -0.008,0.110161 60.951751,48.959343 0 0 0 -0.004,0.05294 60.951751,48.959343 0 0 0 -0.0148,0.2117 60.951751,48.959343 0 0 0 -0.002,0.02067 60.951751,48.959343 0 0 0 -0.0125,0.195348 60.951751,48.959343 0 0 0 -0.0124,0.210847 60.951751,48.959343 0 0 0 -0.006,0.112293 60.951751,48.959343 0 0 0 -0.003,0.05294 60.951751,48.959343 0 0 0 -0.0101,0.199639 60.951751,48.959343 0 0 0 -0.006,0.163939 60.951751,48.959343 0 0 0 -0.005,0.09682 60.951751,48.959343 0 0 0 -0.005,0.116177 60.951751,48.959343 0 0 0 -0.006,0.159638 60.951751,48.959343 0 0 0 -0.004,0.129082 60.951751,48.959343 0 0 0 -0.005,0.146733 60.951751,48.959343 0 0 0 -0.002,0.07528 60.951751,48.959343 0 0 0 -0.005,0.179865 60.951751,48.959343 0 0 0 -0.003,0.187171 60.951751,48.959343 0 0 0 -0.002,0.06842 60.951751,48.959343 0 0 0 -0.002,0.149746 60.951751,48.959343 0 0 0 -9.2e-4,0.127358 60.951751,48.959343 0 0 0 -9.3e-4,0.23623 60.951751,48.959343 0 0 0 9.3e-4,0.268065 60.951751,48.959343 0 0 0 0.003,0.268064 60.951751,48.959343 0 0 0 0.004,0.231493 60.951751,48.959343 0 0 0 0.005,0.186318 60.951751,48.959343 0 0 0 0.003,0.09767 60.951751,48.959343 0 0 0 0.002,0.06369 60.951751,48.959343 0 0 0 0.006,0.225458 60.951751,48.959343 0 0 0 0.01,0.267638 60.951751,48.959343 0 0 0 0.012,0.268065 60.951751,48.959343 0 0 0 0.0124,0.24957 60.951751,48.959343 0 0 0 0.006,0.09252 60.951751,48.959343 0 0 0 0.008,0.141134 60.951751,48.959343 0 0 0 0.004,0.05247 60.951751,48.959343 0 0 0 0.0172,0.268074 60.951751,48.959343 0 0 0 0.0163,0.228906 60.951751,48.959343 0 0 0 0.012,0.1549 60.951751,48.959343 0 0 0 0.0106,0.132105 60.951751,48.959343 0 0 0 0.002,0.01928 60.951751,48.959343 0 0 0 0.0183,0.215149 60.951751,48.959343 0 0 0 0.0139,0.155763 60.951751,48.959343 0 0 0 0.0153,0.163939 60.951751,48.959343 0 0 0 0.0235,0.240531 60.951751,48.959343 0 0 0 0.0115,0.107139 60.951751,48.959343 0 0 0 0.0177,0.167378 60.951751,48.959343 0 0 0 0.002,0.01937 60.951751,48.959343 0 0 0 0.0244,0.214714 60.951751,48.959343 0 0 0 0.0177,0.150172 60.951751,48.959343 0 0 0 0.0201,0.169103 60.951751,48.959343 0 0 0 0.0297,0.236656 60.951751,48.959343 0 0 0 0.023,0.171253 60.951751,48.959343 0 0 0 0.0139,0.105424 60.951751,48.959343 0 0 0 0.008,0.0559 60.951751,48.959343 0 0 0 0.0321,0.23064 60.951751,48.959343 0 0 0 0.0393,0.26635 60.951751,48.959343 0 0 0 0.0364,0.237509 60.951751,48.959343 0 0 0 0.0225,0.141569 60.951751,48.959343 0 0 0 0.0245,0.151026 60.951751,48.959343 0 0 0 9.3e-4,0.0046 60.951751,48.959343 0 0 0 0.0436,0.261186 60.951751,48.959343 0 0 0 4.7e-4,0.0019 60.951751,48.959343 0 0 0 0.0374,0.213425 60.951751,48.959343 0 0 0 0.0388,0.214277 60.951751,48.959343 0 0 0 0.0134,0.07481 60.951751,48.959343 0 0 0 0.0168,0.08992 60.951751,48.959343 0 0 0 0.0354,0.189321 60.951751,48.959343 0 0 0 0.0124,0.06239 60.951751,48.959343 0 0 0 0.0426,0.216429 60.951751,48.959343 0 0 0 0.0537,0.264625 60.951751,48.959343 0 0 0 0.0541,0.257311 60.951751,48.959343 0 0 0 0.005,0.02364 60.951751,48.959343 0 0 0 0.0528,0.243109 60.951751,48.959343 0 0 0 0.006,0.0254 60.951751,48.959343 0 0 0 0.0546,0.243108 60.951751,48.959343 0 0 0 0.0608,0.263764 60.951751,48.959343 0 0 0 0.057,0.239243 60.951751,48.959343 0 0 0 0.006,0.0241 60.951751,48.959343 0 0 0 0.0517,0.2117 60.951751,48.959343 0 0 0 0.0349,0.141143 60.951751,48.959343 0 0 0 0.0441,0.172969 60.951751,48.959343 0 0 0 0.0608,0.235367 60.951751,48.959343 0 0 0 0.0378,0.141996 60.951751,48.959343 0 0 0 0.0316,0.118328 60.951751,48.959343 0 0 0 0.007,0.0292 60.951751,48.959343 0 0 0 0.0575,0.210412 60.951751,48.959343 0 0 0 0.069,0.24742 60.951751,48.959343 0 0 0 0.006,0.01845 60.951751,48.959343 0 0 0 0.057,0.199213 60.951751,48.959343 0 0 0 0.0221,0.07704 60.951751,48.959343 0 0 0 0.0374,0.127793 60.951751,48.959343 0 0 0 0.044,0.148874 60.951751,48.959343 0 0 0 0.0177,0.05813 60.951751,48.959343 0 0 0 0.0661,0.218588 60.951751,48.959343 0 0 0 0.0704,0.228054 60.951751,48.959343 0 0 0 0.0436,0.138121 60.951751,48.959343 0 0 0 0.0426,0.134681 60.951751,48.959343 0 0 0 0.006,0.01937 60.951751,48.959343 0 0 0 0.0676,0.208688 60.951751,48.959343 0 0 0 0.0853,0.259035 60.951751,48.959343 0 0 0 0.0757,0.225467 60.951751,48.959343 0 0 0 0.0148,0.04301 60.951751,48.959343 0 0 0 0.0656,0.191046 60.951751,48.959343 0 0 0 0.0269,0.07704 60.951751,48.959343 0 0 0 0.011,0.03143 60.951751,48.959343 0 0 0 0.0733,0.207399 60.951751,48.959343 0 0 0 0.0824,0.230205 60.951751,48.959343 0 0 0 0.0129,0.03569 60.951751,48.959343 0 0 0 0.067,0.182007 60.951751,48.959343 0 0 0 0.034,0.09206 60.951751,48.959343 0 0 0 0.0345,0.09252 60.951751,48.959343 0 0 0 0.0652,0.17384 60.951751,48.959343 0 0 0 0.006,0.01548 60.951751,48.959343 0 0 0 0.0791,0.206101 60.951751,48.959343 0 0 0 0.0493,0.126932 60.951751,48.959343 0 0 0 0.07,0.179003 60.951751,48.959343 0 0 0 0.0996,0.251285 60.951751,48.959343 0 0 0 0.007,0.01891 60.951751,48.959343 0 0 0 0.0977,0.240532 60.951751,48.959343 0 0 0 0.0848,0.205665 60.951751,48.959343 0 0 0 0.0647,0.154474 60.951751,48.959343 0 0 0 0.0584,0.138556 60.951751,48.959343 0 0 0 0.0259,0.06109 60.951751,48.959343 0 0 0 0.0771,0.179856 60.951751,48.959343 0 0 0 0.0934,0.214713 60.951751,48.959343 0 0 0 0.006,0.01251 60.951751,48.959343 0 0 0 0.0934,0.211701 60.951751,48.959343 0 0 0 0.023,0.05117 60.951751,48.959343 0 0 0 0.0747,0.166516 60.951751,48.959343 0 0 0 0.0474,0.104561 60.951751,48.959343 0 0 0 0.0234,0.0508 60.951751,48.959343 0 0 0 0.10061,0.219441 60.951751,48.959343 0 0 0 0.103,0.221596 60.951751,48.959343 0 0 0 0.0829,0.174267 60.951751,48.959343 0 0 0 0.0402,0.08519 60.951751,48.959343 0 0 0 0.0561,0.116187 60.951751,48.959343 0 0 0 0.0575,0.119181 60.951751,48.959343 0 0 0 0.0464,0.09596 60.951751,48.959343 0 0 0 0.0929,0.188885 60.951751,48.959343 0 0 0 0.11929,0.239234 60.951751,48.959343 0 0 0 0.0192,0.03829 60.951751,48.959343 0 0 0 0.10586,0.20955 60.951751,48.959343 0 0 0 0.006,0.01029 60.951751,48.959343 0 0 0 0.1025,0.199222 60.951751,48.959343 0 0 0 0.11117,0.213851 60.951751,48.959343 0 0 0 0.021,0.04088 60.951751,48.959343 0 0 0 0.12696,0.239663 60.951751,48.959343 0 0 0 0.0814,0.15232 60.951751,48.959343 0 0 0 0.0767,0.142 60.951751,48.959343 0 0 0 0.11067,0.20308 60.951751,48.959343 0 0 0 0.0235,0.0426 60.951751,48.959343 0 0 0 0.10923,0.19707 60.951751,48.959343 0 0 0 0.13701,0.2444 60.951751,48.959343 0 0 0 0.0982,0.17212 60.951751,48.959343 0 0 0 0.0656,0.11489 60.951751,48.959343 0 0 0 0.008,0.015 60.951751,48.959343 0 0 0 0.10685,0.18503 60.951751,48.959343 0 0 0 0.0278,0.0473 60.951751,48.959343 0 0 0 0.11737,0.19967 60.951751,48.959343 0 0 0 0.12838,0.21685 60.951751,48.959343 0 0 0 0.0172,0.0288 60.951751,48.959343 0 0 0 0.0833,0.13855 60.951751,48.959343 0 0 0 0.0709,0.11791 60.951751,48.959343 0 0 0 0.0756,0.12306 60.951751,48.959343 0 0 0 0.0738,0.1209 60.951751,48.959343 0 0 0 0.0129,0.0207 60.951751,48.959343 0 0 0 0.11977,0.19277 60.951751,48.959343 0 0 0 0.12695,0.2018 60.951751,48.959343 0 0 0 0.0378,0.0607 60.951751,48.959343 0 0 0 0.0838,0.13167 60.951751,48.959343 0 0 0 0.0603,0.0947 60.951751,48.959343 0 0 0 0.12935,0.20051 60.951751,48.959343 0 0 0 0.0245,0.0374 60.951751,48.959343 0 0 0 0.0235,0.0362 60.951751,48.959343 0 0 0 0.12505,0.19105 60.951751,48.959343 0 0 0 0.14947,0.2259 60.951751,48.959343 0 0 0 0.0105,0.0155 60.951751,48.959343 0 0 0 0.12745,0.18976 60.951751,48.959343 0 0 0 0.0383,0.0572 60.951751,48.959343 0 0 0 0.0743,0.10886 60.951751,48.959343 0 0 0 0.0987,0.14458 60.951751,48.959343 0 0 0 0.0345,0.0503 60.951751,48.959343 0 0 0 0.13224,0.19147 60.951751,48.959343 0 0 0 0.0221,0.0314 60.951751,48.959343 0 0 0 0.13223,0.18934 60.951751,48.959343 0 0 0 0.0579,0.0822 60.951751,48.959343 0 0 0 0.10781,0.1519 60.951751,48.959343 0 0 0 0.012,0.0168 60.951751,48.959343 0 0 0 0.13414,0.18674 60.951751,48.959343 0 0 0 0.16768,0.2315 60.951751,48.959343 0 0 0 0.1231,0.16739 60.951751,48.959343 0 0 0 0.068,0.0925 60.951751,48.959343 0 0 0 0.012,0.0163 60.951751,48.959343 0 0 0 0.13798,0.18502 60.951751,48.959343 0 0 0 0.11498,0.15275 60.951751,48.959343 0 0 0 0.08,0.10628 60.951751,48.959343 0 0 0 0.0628,0.0822 60.951751,48.959343 0 0 0 0.12264,0.16049 60.951751,48.959343 0 0 0 0.003,0.004 60.951751,48.959343 0 0 0 0.17486,0.22547 60.951751,48.959343 0 0 0 0.14279,0.18288 60.951751,48.959343 0 0 0 0.10345,0.13123 60.951751,48.959343 0 0 0 0.11068,0.13899 60.951751,48.959343 0 0 0 0.17054,0.21256 60.951751,48.959343 0 0 0 0.0561,0.0697 60.951751,48.959343 0 0 0 0.10061,0.12392 60.951751,48.959343 0 0 0 0.036,0.0439 60.951751,48.959343 0 0 0 0.17295,0.21084 60.951751,48.959343 0 0 0 0.0105,0.0129 60.951751,48.959343 0 0 0 0.14901,0.17943 60.951751,48.959343 0 0 0 0.13699,0.16352 60.951751,48.959343 0 0 0 0.082,0.0964 60.951751,48.959343 0 0 0 0.005,0.006 60.951751,48.959343 0 0 0 0.15138,0.17814 60.951751,48.959343 0 0 0 0.11929,0.13898 60.951751,48.959343 0 0 0 0.10299,0.12005 60.951751,48.959343 0 0 0 0.0201,0.0228 60.951751,48.959343 0 0 0 0.13797,0.15877 60.951751,48.959343 0 0 0 0.0378,0.043 60.951751,48.959343 0 0 0 0.19305,0.21859 60.951751,48.959343 0 0 0 0.1562,0.17555 60.951751,48.959343 0 0 0 0.14467,0.16049 60.951751,48.959343 0 0 0 0.0838,0.093 60.951751,48.959343 0 0 0 0.0201,0.0224 60.951751,48.959343 0 0 0 0.17486,0.1919 60.951751,48.959343 0 0 0 0.0503,0.0542 60.951751,48.959343 0 0 0 0.15185,0.16438 60.951751,48.959343 0 0 0 0.0163,0.0176 60.951751,48.959343 0 0 0 0.17631,0.18889 60.951751,48.959343 0 0 0 0.0791,0.0839 60.951751,48.959343 0 0 0 0.12884,0.13597 60.951751,48.959343 0 0 0 0.006,0.006 60.951751,48.959343 0 0 0 0.16338,0.17127 60.951751,48.959343 0 0 0 0.12934,0.13467 60.951751,48.959343 0 0 0 0.11113,0.11489 60.951751,48.959343 0 0 0 0.0211,0.0215 60.951751,48.959343 0 0 0 0.18347,0.18761 60.951751,48.959343 0 0 0 0.0235,0.0241 60.951751,48.959343 0 0 0 0.18445,0.18631 60.951751,48.959343 0 0 0 0.006,0.006 60.951751,48.959343 0 0 0 0.16768,0.16782 60.951751,48.959343 0 0 0 0.14516,0.14414 60.951751,48.959343 0 0 0 0.10588,0.10456 60.951751,48.959343 0 0 0 0.002,0.002 60.951751,48.959343 0 0 0 0.20456,0.20051 60.951751,48.959343 0 0 0 0.006,0.006 60.951751,48.959343 0 0 0 0.17149,0.16609 60.951751,48.959343 0 0 0 0.14183,0.1364 60.951751,48.959343 0 0 0 0.10874,0.1037 60.951751,48.959343 0 0 0 0.0283,0.0272 60.951751,48.959343 0 0 0 0.18203,0.17168 60.951751,48.959343 0 0 0 0.0115,0.0111 60.951751,48.959343 0 0 0 0.17486,0.1635 60.951751,48.959343 0 0 0 0.15808,0.14673 60.951751,48.959343 0 0 0 0.10062,0.0929 60.951751,48.959343 0 0 0 0.003,0.003 60.951751,48.959343 0 0 0 0.17678,0.16222 60.951751,48.959343 0 0 0 0.15617,0.14199 60.951751,48.959343 0 0 0 0.0977,0.0883 60.951751,48.959343 0 0 0 0.011,0.01 60.951751,48.959343 0 0 0 0.17918,0.16049 60.951751,48.959343 0 0 0 0.0436,0.0391 60.951751,48.959343 0 0 0 0.18014,0.15963 60.951751,48.959343 0 0 0 0.22563,0.19794 60.951751,48.959343 0 0 0 0.14994,0.13037 60.951751,48.959343 0 0 0 0.11546,0.0998 60.951751,48.959343 0 0 0 0.006,0.005 60.951751,48.959343 0 0 0 0.18346,0.15748 60.951751,48.959343 0 0 0 0.22949,0.19449 60.951751,48.959343 0 0 0 0.14802,0.12434 60.951751,48.959343 0 0 0 0.12407,0.10414 60.951751,48.959343 0 0 0 0.012,0.01 60.951751,48.959343 0 0 0 0.22419,0.18587 60.951751,48.959343 0 0 0 0.22468,0.18503 60.951751,48.959343 0 0 0 0.0575,0.0465 60.951751,48.959343 0 0 0 0.17774,0.14413 60.951751,48.959343 0 0 0 0.008,0.006 60.951751,48.959343 0 0 0 0.19018,0.15275 60.951751,48.959343 0 0 0 0.23714,0.18847 60.951751,48.959343 0 0 0 0.23859,0.18761 60.951751,48.959343 0 0 0 0.0464,0.0365 60.951751,48.959343 0 0 0 0.19306,0.15017 60.951751,48.959343 0 0 0 0.18063,0.13899 60.951751,48.959343 0 0 0 0.10203,0.0782 60.951751,48.959343 0 0 0 0.0216,0.0163 60.951751,48.959343 0 0 0 0.17915,0.13639 60.951751,48.959343 0 0 0 0.0475,0.0357 60.951751,48.959343 0 0 0 0.24192,0.18201 60.951751,48.959343 0 0 0 0.006,0.005 60.951751,48.959343 0 0 0 0.24192,0.17942 60.951751,48.959343 0 0 0 0.23667,0.17384 60.951751,48.959343 0 0 0 0.0652,0.0477 60.951751,48.959343 0 0 0 0.18778,0.1364 60.951751,48.959343 0 0 0 0.0159,0.0111 60.951751,48.959343 0 0 0 0.22946,0.16523 60.951751,48.959343 0 0 0 0.0532,0.0379 60.951751,48.959343 0 0 0 0.18972,0.13468 60.951751,48.959343 0 0 0 0.068,0.0482 60.951751,48.959343 0 0 0 0.14852,0.10456 60.951751,48.959343 0 0 0 0.0493,0.0344 60.951751,48.959343 0 0 0 0.25246,0.17555 60.951751,48.959343 0 0 0 0.20361,0.14028 60.951751,48.959343 0 0 0 0.13033,0.0891 60.951751,48.959343 0 0 0 0.17436,0.11833 60.951751,48.959343 0 0 0 0.25343,0.17039 60.951751,48.959343 0 0 0 0.0139,0.009 60.951751,48.959343 0 0 0 0.23664,0.15748 60.951751,48.959343 0 0 0 0.0407,0.0266 60.951751,48.959343 0 0 0 0.17582,0.11619 60.951751,48.959343 0 0 0 0.0508,0.0331 60.951751,48.959343 0 0 0 0.20839,0.13599 60.951751,48.959343 0 0 0 0.0508,0.0327 60.951751,48.959343 0 0 0 0.25102,0.16179 60.951751,48.959343 0 0 0 0.01,0.006 60.951751,48.959343 0 0 0 0.2103,0.13381 60.951751,48.959343 0 0 0 0.17918,0.11274 60.951751,48.959343 0 0 0 0.1255,0.0792 60.951751,48.959343 0 0 0 0.0426,0.0267 60.951751,48.959343 0 0 0 0.17918,0.11144 60.951751,48.959343 0 0 0 0.0517,0.0318 60.951751,48.959343 0 0 0 0.21462,0.1321 60.951751,48.959343 0 0 0 0.15138,0.0925 60.951751,48.959343 0 0 0 0.11307,0.0689 60.951751,48.959343 0 0 0 0.0522,0.0314 60.951751,48.959343 0 0 0 0.25964,0.15619 60.951751,48.959343 0 0 0 0.0413,0.0246 60.951751,48.959343 0 0 0 0.18205,0.10843 60.951751,48.959343 0 0 0 0.0527,0.031 60.951751,48.959343 0 0 0 0.21894,0.12865 60.951751,48.959343 0 0 0 0.15139,0.0886 60.951751,48.959343 0 0 0 0.1164,0.0675 60.951751,48.959343 0 0 0 0.0532,0.0306 60.951751,48.959343 0 0 0 0.22325,0.12822 60.951751,48.959343 0 0 0 0.15664,0.0891 60.951751,48.959343 0 0 0 0.11067,0.0633 60.951751,48.959343 0 0 0 0.0537,0.0301 60.951751,48.959343 0 0 0 0.2218,0.12479 60.951751,48.959343 0 0 0 0.15522,0.0865 60.951751,48.959343 0 0 0 0.11736,0.065 60.951751,48.959343 0 0 0 0.0541,0.0297 60.951751,48.959343 0 0 0 0.27545,0.15104 60.951751,48.959343 0 0 0 0.2405,0.13037 60.951751,48.959343 0 0 0 0.11881,0.0637 60.951751,48.959343 0 0 0 0.19544,0.10456 60.951751,48.959343 0 0 0 0.23668,0.12521 60.951751,48.959343 0 0 0 0.0422,0.0224 60.951751,48.959343 0 0 0 0.22514,0.11748 60.951751,48.959343 0 0 0 0.25632,0.13295 60.951751,48.959343 0 0 0 0.033,0.0173 60.951751,48.959343 0 0 0 0.046,0.0236 60.951751,48.959343 0 0 0 0.22662,0.11531 60.951751,48.959343 0 0 0 0.26061,0.13167 60.951751,48.959343 0 0 0 0.0292,0.0146 60.951751,48.959343 0 0 0 0.19976,0.0998 60.951751,48.959343 0 0 0 0.10157,0.0503 60.951751,48.959343 0 0 0 0.20552,0.10155 60.951751,48.959343 0 0 0 0.0628,0.0306 60.951751,48.959343 0 0 0 0.21653,0.10585 60.951751,48.959343 0 0 0 0.08,0.0387 60.951751,48.959343 0 0 0 0.0364,0.0176 60.951751,48.959343 0 0 0 0.23042,0.11057 60.951751,48.959343 0 0 0 0.28744,0.1364 60.951751,48.959343 0 0 0 0.18397,0.087 60.951751,48.959343 0 0 0 0.14323,0.0666 60.951751,48.959343 0 0 0 0.0172,0.008 60.951751,48.959343 0 0 0 0.23282,0.10756 60.951751,48.959343 0 0 0 0.29032,0.13253 60.951751,48.959343 0 0 0 0.15617,0.0706 60.951751,48.959343 0 0 0 0.13463,0.0611 60.951751,48.959343 0 0 0 0.057,0.0254 60.951751,48.959343 0 0 0 0.26921,0.11962 60.951751,48.959343 0 0 0 0.023,0.0103 60.951751,48.959343 0 0 0 0.23523,0.10328 60.951751,48.959343 0 0 0 0.15904,0.0692 60.951751,48.959343 0 0 0 0.19259,0.0831 60.951751,48.959343 0 0 0 0.28505,0.12177 60.951751,48.959343 0 0 0 0.01,0.004 60.951751,48.959343 0 0 0 0.23763,0.10026 60.951751,48.959343 0 0 0 0.23905,0.10026 60.951751,48.959343 0 0 0 0.0714,0.0298 60.951751,48.959343 0 0 0 0.16098,0.0658 60.951751,48.959343 0 0 0 0.12168,0.0503 60.951751,48.959343 0 0 0 0.0584,0.0236 60.951751,48.959343 0 0 0 0.25342,0.10284 60.951751,48.959343 0 0 0 0.11977,0.0482 60.951751,48.959343 0 0 0 0.22372,0.0895 60.951751,48.959343 0 0 0 0.29176,0.11489 60.951751,48.959343 0 0 0 0.0599,0.0233 60.951751,48.959343 0 0 0 0.21702,0.0847 60.951751,48.959343 0 0 0 0.12601,0.0482 60.951751,48.959343 0 0 0 0.19928,0.0766 60.951751,48.959343 0 0 0 0.0551,0.0207 60.951751,48.959343 0 0 0 0.21893,0.0831 60.951751,48.959343 0 0 0 0.15617,0.0581 60.951751,48.959343 0 0 0 0.15473,0.0577 60.951751,48.959343 0 0 0 0.0273,0.0103 60.951751,48.959343 0 0 0 0.24433,0.0895 60.951751,48.959343 0 0 0 0.30419,0.11057 60.951751,48.959343 0 0 0 0.16385,0.0586 60.951751,48.959343 0 0 0 0.1988,0.0715 60.951751,48.959343 0 0 0 0.002,4.3e-4 60.951751,48.959343 0 0 0 0.24578,0.0865 60.951751,48.959343 0 0 0 0.29223,0.10113 60.951751,48.959343 0 0 0 0.0206,0.007 60.951751,48.959343 0 0 0 0.0537,0.0185 60.951751,48.959343 0 0 0 0.2472,0.0844 60.951751,48.959343 0 0 0 0.29894,0.10069 60.951751,48.959343 0 0 0 0.013,0.004 60.951751,48.959343 0 0 0 0.19068,0.0633 60.951751,48.959343 0 0 0 0.1624,0.0538 60.951751,48.959343 0 0 0 0.091,0.0298 60.951751,48.959343 0 0 0 0.18397,0.0603 60.951751,48.959343 0 0 0 0.25006,0.08 60.951751,48.959343 0 0 0 0.0791,0.0254 60.951751,48.959343 0 0 0 0.0546,0.0173 60.951751,48.959343 0 0 0 0.28362,0.0895 60.951751,48.959343 0 0 0 0.27881,0.0865 60.951751,48.959343 0 0 0 0.1418,0.0435 60.951751,48.959343 0 0 0 0.19401,0.0593 60.951751,48.959343 0 0 0 0.0311,0.009 60.951751,48.959343 0 0 0 0.29032,0.0869 60.951751,48.959343 0 0 0 0.26252,0.0774 60.951751,48.959343 0 0 0 0.16863,0.0494 60.951751,48.959343 0 0 0 0.17533,0.0508 60.951751,48.959343 0 0 0 0.23763,0.0679 60.951751,48.959343 0 0 0 0.0393,0.0111 60.951751,48.959343 0 0 0 0.25201,0.071 60.951751,48.959343 0 0 0 0.0858,0.0241 60.951751,48.959343 0 0 0 0.11882,0.0327 60.951751,48.959343 0 0 0 0.22276,0.0615 60.951751,48.959343 0 0 0 0.0101,0.003 60.951751,48.959343 0 0 0 0.25438,0.0689 60.951751,48.959343 0 0 0 0.24479,0.0654 60.951751,48.959343 0 0 0 0.11259,0.0298 60.951751,48.959343 0 0 0 0.0215,0.006 60.951751,48.959343 0 0 0 0.25535,0.0666 60.951751,48.959343 0 0 0 0.31714,0.0813 60.951751,48.959343 0 0 0 9.3e-4,4.4e-4 60.951751,48.959343 0 0 0 0.15904,0.0401 60.951751,48.959343 0 0 0 0.22181,0.056 60.951751,48.959343 0 0 0 0.002,4.2e-4 60.951751,48.959343 0 0 0 0.31762,0.0779 60.951751,48.959343 0 0 0 0.26539,0.0642 60.951751,48.959343 0 0 0 0.19452,0.0464 60.951751,48.959343 0 0 0 0.16671,0.0396 60.951751,48.959343 0 0 0 0.0134,0.004 60.951751,48.959343 0 0 0 0.25774,0.0598 60.951751,48.959343 0 0 0 0.25772,0.059 60.951751,48.959343 0 0 0 0.0982,0.022 60.951751,48.959343 0 0 0 0.11211,0.0249 60.951751,48.959343 0 0 0 0.23329,0.052 60.951751,48.959343 0 0 0 0.012,0.003 60.951751,48.959343 0 0 0 0.31474,0.0684 60.951751,48.959343 0 0 0 0.29559,0.0633 60.951751,48.959343 0 0 0 0.10873,0.0224 60.951751,48.959343 0 0 0 0.17822,0.0375 60.951751,48.959343 0 0 0 0.0632,0.0129 60.951751,48.959343 0 0 0 0.32384,0.0658 60.951751,48.959343 0 0 0 0.30852,0.0616 60.951751,48.959343 0 0 0 0.0153,0.004 60.951751,48.959343 0 0 0 0.2611,0.0508 60.951751,48.959343 0 0 0 0.32193,0.0616 60.951751,48.959343 0 0 0 0.003,4.3e-4 60.951751,48.959343 0 0 0 0.25151,0.0464 60.951751,48.959343 0 0 0 0.11065,0.0207 60.951751,48.959343 0 0 0 0.0268,0.005 60.951751,48.959343 0 0 0 0.26157,0.0473 60.951751,48.959343 0 0 0 0.32098,0.0568 60.951751,48.959343 0 0 0 0.007,0.002 60.951751,48.959343 0 0 0 0.17581,0.0301 60.951751,48.959343 0 0 0 0.20744,0.0357 60.951751,48.959343 0 0 0 0.0206,0.004 60.951751,48.959343 0 0 0 0.31137,0.0516 60.951751,48.959343 0 0 0 0.32721,0.0529 60.951751,48.959343 0 0 0 0.31907,0.0503 60.951751,48.959343 0 0 0 0.16,0.0245 60.951751,48.959343 0 0 0 0.11834,0.0181 60.951751,48.959343 0 0 0 0.28119,0.0421 60.951751,48.959343 0 0 0 0.0527,0.007 60.951751,48.959343 0 0 0 0.18924,0.0272 60.951751,48.959343 0 0 0 0.12742,0.0185 60.951751,48.959343 0 0 0 0.0647,0.009 60.951751,48.959343 0 0 0 0.26444,0.037 60.951751,48.959343 0 0 0 0.1739,0.0236 60.951751,48.959343 0 0 0 0.54948,0.0723 60.951751,48.959343 0 0 0 0.32961,0.0413 60.951751,48.959343 0 0 0 0.28887,0.0349 60.951751,48.959343 0 0 0 0.0412,0.005 60.951751,48.959343 0 0 0 0.26588,0.031 60.951751,48.959343 0 0 0 0.33055,0.0375 60.951751,48.959343 0 0 0 0.28936,0.0314 60.951751,48.959343 0 0 0 0.0641,0.006 60.951751,48.959343 0 0 0 0.0422,0.004 60.951751,48.959343 0 0 0 0.26589,0.0275 60.951751,48.959343 0 0 0 0.33149,0.0331 60.951751,48.959343 0 0 0 0.3162,0.0301 60.951751,48.959343 0 0 0 0.023,0.003 60.951751,48.959343 0 0 0 0.16049,0.0147 60.951751,48.959343 0 0 0 0.16335,0.0146 60.951751,48.959343 0 0 0 0.0652,0.006 60.951751,48.959343 0 0 0 0.33199,0.0284 60.951751,48.959343 0 0 0 0.66159,0.0516 60.951751,48.959343 0 0 0 0.003,4.4e-4 60.951751,48.959343 0 0 0 0.26731,0.0193 60.951751,48.959343 0 0 0 0.26924,0.0185 60.951751,48.959343 0 0 0 0.0939,0.006 60.951751,48.959343 0 0 0 0.10636,0.006 60.951751,48.959343 0 0 0 0.26111,0.0163 60.951751,48.959343 0 0 0 0.33294,0.0193 60.951751,48.959343 0 0 0 0.26779,0.0146 60.951751,48.959343 0 0 0 0.11978,0.006 60.951751,48.959343 0 0 0 0.26971,0.0137 60.951751,48.959343 0 0 0 0.009,4.3e-4 60.951751,48.959343 0 0 0 0.2678,0.0121 60.951751,48.959343 0 0 0 0.24911,0.0108 60.951751,48.959343 0 0 0 0.11258,0.004 60.951751,48.959343 0 0 0 0.14803,0.006 60.951751,48.959343 0 0 0 0.20935,0.007 60.951751,48.959343 0 0 0 0.0129,4.3e-4 60.951751,48.959343 0 0 0 0.26828,0.008 60.951751,48.959343 0 0 0 0.23091,0.006 60.951751,48.959343 0 0 0 0.12792,0.004 60.951751,48.959343 0 0 0 0.0402,0.002 60.951751,48.959343 0 0 0 0.26826,0.006 60.951751,48.959343 0 0 0 0.20984,0.005 60.951751,48.959343 0 0 0 0.18923,0.004 60.951751,48.959343 0 0 0 0.29748,0.005 60.951751,48.959343 0 0 0 0.18063,0.002 60.951751,48.959343 0 0 0 0.45799,0.004 60.951751,48.959343 0 0 0 0.33389,8.2e-4 60.951751,48.959343 0 0 0 0.33391,-8.2e-4 60.951751,48.959343 0 0 0 0.26828,-0.002 60.951751,48.959343 0 0 0 0.18971,-0.002 60.951751,48.959343 0 0 0 0.18059,-0.002 60.951751,48.959343 0 0 0 0.29751,-0.005 60.951751,48.959343 0 0 0 0.18923,-0.004 60.951751,48.959343 0 0 0 0.20984,-0.005 60.951751,48.959343 0 0 0 0.30852,-0.007 60.951751,48.959343 0 0 0 0.12791,-0.004 60.951751,48.959343 0 0 0 0.51212,-0.0159 60.951751,48.959343 0 0 0 0.20935,-0.007 60.951751,48.959343 0 0 0 0.14803,-0.006 60.951751,48.959343 0 0 0 0.11258,-0.004 60.951751,48.959343 0 0 0 0.24911,-0.0108 60.951751,48.959343 0 0 0 0.28072,-0.0125 60.951751,48.959343 0 0 0 0.25919,-0.0134 60.951751,48.959343 0 0 0 0.091,-0.005 60.951751,48.959343 0 0 0 0.30325,-0.0163 60.951751,48.959343 0 0 0 0.33294,-0.0193 60.951751,48.959343 0 0 0 0.2611,-0.0163 60.951751,48.959343 0 0 0 0.10635,-0.006 60.951751,48.959343 0 0 0 0.0939,-0.006 60.951751,48.959343 0 0 0 0.26922,-0.0185 60.951751,48.959343 0 0 0 0.2702,-0.0198 60.951751,48.959343 0 0 0 0.6616,-0.0516 60.951751,48.959343 0 0 0 0.33199,-0.0284 60.951751,48.959343 0 0 0 0.2285,-0.0202 60.951751,48.959343 0 0 0 0.16048,-0.0146 60.951751,48.959343 0 0 0 0.023,-0.003 60.951751,48.959343 0 0 0 0.31617,-0.0301 60.951751,48.959343 0 0 0 0.33153,-0.0331 60.951751,48.959343 0 0 0 0.30804,-0.0318 60.951751,48.959343 0 0 0 0.0642,-0.006 60.951751,48.959343 0 0 0 0.28935,-0.0314 60.951751,48.959343 0 0 0 0.33054,-0.0375 60.951751,48.959343 0 0 0 0.3071,-0.0361 60.951751,48.959343 0 0 0 0.28886,-0.0349 60.951751,48.959343 0 0 0 0.32959,-0.0413 60.951751,48.959343 0 0 0 0.5495,-0.0723 60.951751,48.959343 0 0 0 0.17391,-0.0236 60.951751,48.959343 0 0 0 0.20934,-0.0292 60.951751,48.959343 0 0 0 0.2472,-0.0353 60.951751,48.959343 0 0 0 0.18923,-0.0272 60.951751,48.959343 0 0 0 0.046,-0.006 60.951751,48.959343 0 0 0 0.29365,-0.0439 60.951751,48.959343 0 0 0 0.26398,-0.0404 60.951751,48.959343 0 0 0 0.0115,-0.002 60.951751,48.959343 0 0 0 0.31618,-0.05 60.951751,48.959343 0 0 0 0.32719,-0.0529 60.951751,48.959343 0 0 0 0.3114,-0.0516 60.951751,48.959343 0 0 0 0.0206,-0.004 60.951751,48.959343 0 0 0 0.20744,-0.0357 60.951751,48.959343 0 0 0 0.17772,-0.0306 60.951751,48.959343 0 0 0 0.32623,-0.0577 60.951751,48.959343 0 0 0 0.2884,-0.052 60.951751,48.959343 0 0 0 0.11067,-0.0207 60.951751,48.959343 0 0 0 0.25151,-0.0464 60.951751,48.959343 0 0 0 0.003,-4.4e-4 60.951751,48.959343 0 0 0 0.32194,-0.0615 60.951751,48.959343 0 0 0 0.27643,-0.0538 60.951751,48.959343 0 0 0 0.30852,-0.0616 60.951751,48.959343 0 0 0 0.32384,-0.0658 60.951751,48.959343 0 0 0 0.24145,-0.0503 60.951751,48.959343 0 0 0 0.10873,-0.0224 60.951751,48.959343 0 0 0 0.29559,-0.0633 60.951751,48.959343 0 0 0 0.31475,-0.0684 60.951751,48.959343 0 0 0 0.012,-0.003 60.951751,48.959343 0 0 0 0.23331,-0.052 60.951751,48.959343 0 0 0 0.11209,-0.0249 60.951751,48.959343 0 0 0 0.0982,-0.022 60.951751,48.959343 0 0 0 0.25775,-0.059 60.951751,48.959343 0 0 0 0.27115,-0.0628 60.951751,48.959343 0 0 0 0.16672,-0.0396 60.951751,48.959343 0 0 0 0.19449,-0.0464 60.951751,48.959343 0 0 0 0.26542,-0.0641 60.951751,48.959343 0 0 0 0.31761,-0.0779 60.951751,48.959343 0 0 0 0.002,-4.2e-4 60.951751,48.959343 0 0 0 0.2218,-0.056 60.951751,48.959343 0 0 0 0.15907,-0.04 60.951751,48.959343 0 0 0 9.2e-4,-4.4e-4 60.951751,48.959343 0 0 0 0.31715,-0.0813 60.951751,48.959343 0 0 0 0.2769,-0.0723 60.951751,48.959343 0 0 0 0.11256,-0.0298 60.951751,48.959343 0 0 0 0.24481,-0.0654 60.951751,48.959343 0 0 0 0.26444,-0.0715 60.951751,48.959343 0 0 0 0.22276,-0.0616 60.951751,48.959343 0 0 0 0.11881,-0.0327 60.951751,48.959343 0 0 0 0.0858,-0.0241 60.951751,48.959343 0 0 0 0.25198,-0.071 60.951751,48.959343 0 0 0 0.0393,-0.0111 60.951751,48.959343 0 0 0 0.23762,-0.068 60.951751,48.959343 0 0 0 0.17534,-0.0508 60.951751,48.959343 0 0 0 0.16863,-0.0495 60.951751,48.959343 0 0 0 0.26252,-0.0774 60.951751,48.959343 0 0 0 0.29031,-0.0869 60.951751,48.959343 0 0 0 0.0312,-0.009 60.951751,48.959343 0 0 0 0.19401,-0.0593 60.951751,48.959343 0 0 0 0.1418,-0.0435 60.951751,48.959343 0 0 0 0.27881,-0.0865 60.951751,48.959343 0 0 0 0.28362,-0.0895 60.951751,48.959343 0 0 0 0.0546,-0.0173 60.951751,48.959343 0 0 0 0.0791,-0.0254 60.951751,48.959343 0 0 0 0.25006,-0.08 60.951751,48.959343 0 0 0 0.18397,-0.0603 60.951751,48.959343 0 0 0 0.091,-0.0298 60.951751,48.959343 0 0 0 0.1624,-0.0538 60.951751,48.959343 0 0 0 0.19069,-0.0633 60.951751,48.959343 0 0 0 0.0129,-0.004 60.951751,48.959343 0 0 0 0.29895,-0.1007 60.951751,48.959343 0 0 0 0.30083,-0.10283 60.951751,48.959343 0 0 0 0.0206,-0.007 60.951751,48.959343 0 0 0 0.29223,-0.10112 60.951751,48.959343 0 0 0 0.24769,-0.0869 60.951751,48.959343 0 0 0 0.19879,-0.0715 60.951751,48.959343 0 0 0 0.16385,-0.0585 60.951751,48.959343 0 0 0 0.3042,-0.11058 60.951751,48.959343 0 0 0 0.27162,-0.0998 60.951751,48.959343 0 0 0 0.15475,-0.0577 60.951751,48.959343 0 0 0 0.15618,-0.0581 60.951751,48.959343 0 0 0 0.21893,-0.0831 60.951751,48.959343 0 0 0 0.0551,-0.0207 60.951751,48.959343 0 0 0 0.19929,-0.0766 60.951751,48.959343 0 0 0 0.12601,-0.0482 60.951751,48.959343 0 0 0 0.21699,-0.0847 60.951751,48.959343 0 0 0 0.0599,-0.0233 60.951751,48.959343 0 0 0 0.29173,-0.11489 60.951751,48.959343 0 0 0 0.22372,-0.0895 60.951751,48.959343 0 0 0 0.11977,-0.0482 60.951751,48.959343 0 0 0 0.43356,-0.17684 60.951751,48.959343 0 0 0 0.16098,-0.0659 60.951751,48.959343 0 0 0 0.0714,-0.0298 60.951751,48.959343 0 0 0 0.48625,-0.20482 60.951751,48.959343 0 0 0 0.28504,-0.12177 60.951751,48.959343 0 0 0 0.19259,-0.0831 60.951751,48.959343 0 0 0 0.15905,-0.0693 60.951751,48.959343 0 0 0 0.25821,-0.1136 60.951751,48.959343 0 0 0 0.46085,-0.20611 60.951751,48.959343 0 0 0 0.1562,-0.0707 60.951751,48.959343 0 0 0 0.29028,-0.13253 60.951751,48.959343 0 0 0 0.25009,-0.11574 60.951751,48.959343 0 0 0 0.14325,-0.0667 60.951751,48.959343 0 0 0 0.18396,-0.087 60.951751,48.959343 0 0 0 0.28743,-0.1364 60.951751,48.959343 0 0 0 0.26684,-0.12823 60.951751,48.959343 0 0 0 0.08,-0.0388 60.951751,48.959343 0 0 0 0.21654,-0.10585 60.951751,48.959343 0 0 0 0.0628,-0.0306 60.951751,48.959343 0 0 0 0.20553,-0.10155 60.951751,48.959343 0 0 0 0.10155,-0.0503 60.951751,48.959343 0 0 0 0.19978,-0.0998 60.951751,48.959343 0 0 0 0.0292,-0.0147 60.951751,48.959343 0 0 0 0.53322,-0.27065 60.951751,48.959343 0 0 0 0.033,-0.0172 60.951751,48.959343 0 0 0 0.25629,-0.13296 60.951751,48.959343 0 0 0 0.26733,-0.13984 60.951751,48.959343 0 0 0 0.23665,-0.12522 60.951751,48.959343 0 0 0 0.19547,-0.10455 60.951751,48.959343 0 0 0 0.11881,-0.0637 60.951751,48.959343 0 0 0 0.24047,-0.13037 60.951751,48.959343 0 0 0 0.27548,-0.15104 60.951751,48.959343 0 0 0 0.1715,-0.0947 60.951751,48.959343 0 0 0 0.15522,-0.0865 60.951751,48.959343 0 0 0 0.38611,-0.21816 60.951751,48.959343 0 0 0 0.15666,-0.0891 60.951751,48.959343 0 0 0 0.39285,-0.22632 60.951751,48.959343 0 0 0 0.15138,-0.0886 60.951751,48.959343 0 0 0 0.45367,-0.26806 60.951751,48.959343 0 0 0 0.0412,-0.0246 60.951751,48.959343 0 0 0 0.42495,-0.25644 60.951751,48.959343 0 0 0 0.15139,-0.0925 60.951751,48.959343 0 0 0 0.44553,-0.27538 60.951751,48.959343 0 0 0 0.0426,-0.0266 60.951751,48.959343 0 0 0 0.12552,-0.0792 60.951751,48.959343 0 0 0 0.39907,-0.25258 60.951751,48.959343 0 0 0 0.7368,-0.47977 60.951751,48.959343 0 0 0 0.0407,-0.0266 60.951751,48.959343 0 0 0 0.23664,-0.15747 60.951751,48.959343 0 0 0 0.0139,-0.009 60.951751,48.959343 0 0 0 0.25343,-0.17039 60.951751,48.959343 0 0 0 0.17436,-0.11833 60.951751,48.959343 0 0 0 0.17631,-0.12049 60.951751,48.959343 0 0 0 0.1576,-0.10886 60.951751,48.959343 0 0 0 0.25246,-0.17555 60.951751,48.959343 0 0 0 0.19787,-0.13898 60.951751,48.959343 0 0 0 0.068,-0.0482 60.951751,48.959343 0 0 0 0.18971,-0.13469 60.951751,48.959343 0 0 0 0.0532,-0.0379 60.951751,48.959343 0 0 0 0.22949,-0.16523 60.951751,48.959343 0 0 0 0.0158,-0.0111 60.951751,48.959343 0 0 0 0.18781,-0.1364 60.951751,48.959343 0 0 0 0.0652,-0.0477 60.951751,48.959343 0 0 0 0.28458,-0.20913 60.951751,48.959343 0 0 0 0.24479,-0.18244 60.951751,48.959343 0 0 0 0.19642,-0.14759 60.951751,48.959343 0 0 0 0.007,-0.006 60.951751,48.959343 0 0 0 0.21894,-0.16609 60.951751,48.959343 0 0 0 0.0216,-0.0163 60.951751,48.959343 0 0 0 0.10204,-0.0782 60.951751,48.959343 0 0 0 0.1806,-0.13898 60.951751,48.959343 0 0 0 0.23954,-0.18674 60.951751,48.959343 0 0 0 0.23858,-0.1876 60.951751,48.959343 0 0 0 0.23714,-0.18847 60.951751,48.959343 0 0 0 0.19835,-0.15921 60.951751,48.959343 0 0 0 0.17772,-0.14414 60.951751,48.959343 0 0 0 0.0575,-0.0464 60.951751,48.959343 0 0 0 0.2247,-0.18502 60.951751,48.959343 0 0 0 0.22419,-0.18588 60.951751,48.959343 0 0 0 0.012,-0.01 60.951751,48.959343 0 0 0 0.12408,-0.10414 60.951751,48.959343 0 0 0 0.14804,-0.12434 60.951751,48.959343 0 0 0 0.22948,-0.1945 60.951751,48.959343 0 0 0 0.18921,-0.16264 60.951751,48.959343 0 0 0 0.11548,-0.0998 60.951751,48.959343 0 0 0 0.14994,-0.13038 60.951751,48.959343 0 0 0 0.22563,-0.19793 60.951751,48.959343 0 0 0 0.41391,-0.36919 60.951751,48.959343 0 0 0 0.0977,-0.0882 60.951751,48.959343 0 0 0 0.1562,-0.14198 60.951751,48.959343 0 0 0 0.17964,-0.1648 60.951751,48.959343 0 0 0 0.1006,-0.093 60.951751,48.959343 0 0 0 0.1581,-0.14672 60.951751,48.959343 0 0 0 0.18634,-0.1747 60.951751,48.959343 0 0 0 0.18204,-0.17168 60.951751,48.959343 0 0 0 0.0283,-0.0272 60.951751,48.959343 0 0 0 0.10873,-0.10369 60.951751,48.959343 0 0 0 0.31953,-0.30852 60.951751,48.959343 0 0 0 0.20457,-0.20051 60.951751,48.959343 0 0 0 0.002,-0.002 60.951751,48.959343 0 0 0 0.17103,-0.16911 60.951751,48.959343 0 0 0 0.046,-0.0456 60.951751,48.959343 0 0 0 0.034,-0.0336 60.951751,48.959343 0 0 0 0.20888,-0.20955 60.951751,48.959343 0 0 0 0.14852,-0.1506 60.951751,48.959343 0 0 0 0.0235,-0.0241 60.951751,48.959343 0 0 0 0.18346,-0.18759 60.951751,48.959343 0 0 0 0.021,-0.0215 60.951751,48.959343 0 0 0 0.11117,-0.11489 60.951751,48.959343 0 0 0 0.29892,-0.31239 60.951751,48.959343 0 0 0 0.12887,-0.13597 60.951751,48.959343 0 0 0 0.0791,-0.0839 60.951751,48.959343 0 0 0 0.17628,-0.18889 60.951751,48.959343 0 0 0 0.0163,-0.0176 60.951751,48.959343 0 0 0 0.15188,-0.16438 60.951751,48.959343 0 0 0 0.0503,-0.0542 60.951751,48.959343 0 0 0 0.17483,-0.1919 60.951751,48.959343 0 0 0 0.0201,-0.0224 60.951751,48.959343 0 0 0 0.0838,-0.093 60.951751,48.959343 0 0 0 0.14467,-0.16049 60.951751,48.959343 0 0 0 0.0163,-0.0181 60.951751,48.959343 0 0 0 0.13989,-0.15748 60.951751,48.959343 0 0 0 0.19305,-0.21859 60.951751,48.959343 0 0 0 0.17583,-0.20181 60.951751,48.959343 0 0 0 0.0201,-0.0228 60.951751,48.959343 0 0 0 0.103,-0.12005 60.951751,48.959343 0 0 0 0.27544,-0.32314 60.951751,48.959343 0 0 0 0.082,-0.0964 60.951751,48.959343 0 0 0 0.13701,-0.16351 60.951751,48.959343 0 0 0 0.15954,-0.19233 60.951751,48.959343 0 0 0 0.30946,-0.37866 60.951751,48.959343 0 0 0 0.0561,-0.0697 60.951751,48.959343 0 0 0 0.17057,-0.21256 60.951751,48.959343 0 0 0 0.11064,-0.13898 60.951751,48.959343 0 0 0 0.10349,-0.13124 60.951751,48.959343 0 0 0 0.0316,-0.0404 60.951751,48.959343 0 0 0 0.11113,-0.14243 60.951751,48.959343 0 0 0 0.17486,-0.22546 60.951751,48.959343 0 0 0 0.003,-0.004 60.951751,48.959343 0 0 0 0.12265,-0.16049 60.951751,48.959343 0 0 0 0.0628,-0.0821 60.951751,48.959343 0 0 0 0.08,-0.10628 60.951751,48.959343 0 0 0 0.26493,-0.35413 60.951751,48.959343 0 0 0 0.068,-0.0925 60.951751,48.959343 0 0 0 0.12314,-0.16739 60.951751,48.959343 0 0 0 0.16767,-0.23148 60.951751,48.959343 0 0 0 0.14611,-0.20352 60.951751,48.959343 0 0 0 0.1078,-0.1519 60.951751,48.959343 0 0 0 0.0579,-0.0822 60.951751,48.959343 0 0 0 0.13221,-0.18932 60.951751,48.959343 0 0 0 0.0221,-0.0314 60.951751,48.959343 0 0 0 0.13221,-0.19148 60.951751,48.959343 0 0 0 0.0345,-0.0503 60.951751,48.959343 0 0 0 0.0987,-0.14457 60.951751,48.959343 0 0 0 0.0743,-0.10886 60.951751,48.959343 0 0 0 0.0383,-0.0572 60.951751,48.959343 0 0 0 0.12742,-0.18976 60.951751,48.959343 0 0 0 0.0106,-0.0155 60.951751,48.959343 0 0 0 0.14948,-0.22591 60.951751,48.959343 0 0 0 0.14849,-0.22719 60.951751,48.959343 0 0 0 0.0245,-0.0375 60.951751,48.959343 0 0 0 0.12933,-0.20051 60.951751,48.959343 0 0 0 0.0603,-0.0947 60.951751,48.959343 0 0 0 0.0838,-0.13167 60.951751,48.959343 0 0 0 0.0378,-0.0607 60.951751,48.959343 0 0 0 0.12695,-0.2018 60.951751,48.959343 0 0 0 0.13269,-0.21343 60.951751,48.959343 0 0 0 0.0738,-0.12091 60.951751,48.959343 0 0 0 0.0756,-0.12305 60.951751,48.959343 0 0 0 0.0709,-0.11791 60.951751,48.959343 0 0 0 0.0833,-0.13855 60.951751,48.959343 0 0 0 0.0172,-0.0288 60.951751,48.959343 0 0 0 0.12838,-0.21687 60.951751,48.959343 0 0 0 0.25199,-0.432 60.951751,48.959343 0 0 0 0.008,-0.0151 60.951751,48.959343 0 0 0 0.0656,-0.11488 60.951751,48.959343 0 0 0 0.0982,-0.17212 60.951751,48.959343 0 0 0 0.13702,-0.24439 60.951751,48.959343 0 0 0 0.1327,-0.23967 60.951751,48.959343 0 0 0 0.0134,-0.0249 60.951751,48.959343 0 0 0 0.12311,-0.22633 60.951751,48.959343 0 0 0 0.13223,-0.24612 60.951751,48.959343 0 0 0 0.12696,-0.239663 60.951751,48.959343 0 0 0 0.021,-0.04088 60.951751,48.959343 0 0 0 0.21894,-0.423392 60.951751,48.959343 0 0 0 0.10586,-0.20955 60.951751,48.959343 0 0 0 0.0192,-0.03829 60.951751,48.959343 0 0 0 0.11928,-0.239233 60.951751,48.959343 0 0 0 0.0929,-0.188895 60.951751,48.959343 0 0 0 0.0464,-0.09596 60.951751,48.959343 0 0 0 0.0575,-0.119181 60.951751,48.959343 0 0 0 0.0561,-0.116187 60.951751,48.959343 0 0 0 0.0402,-0.08519 60.951751,48.959343 0 0 0 0.0829,-0.174267 60.951751,48.959343 0 0 0 0.10299,-0.221587 60.951751,48.959343 0 0 0 0.10062,-0.219441 60.951751,48.959343 0 0 0 0.0235,-0.0508 60.951751,48.959343 0 0 0 0.0474,-0.104562 60.951751,48.959343 0 0 0 0.0747,-0.166516 60.951751,48.959343 0 0 0 0.023,-0.05117 60.951751,48.959343 0 0 0 0.0934,-0.2117 60.951751,48.959343 0 0 0 0.006,-0.01252 60.951751,48.959343 0 0 0 0.0934,-0.214704 60.951751,48.959343 0 0 0 0.0771,-0.179865 60.951751,48.959343 0 0 0 0.0259,-0.06109 60.951751,48.959343 0 0 0 0.0585,-0.138556 60.951751,48.959343 0 0 0 0.0646,-0.154474 60.951751,48.959343 0 0 0 0.0848,-0.205674 60.951751,48.959343 0 0 0 0.0977,-0.240523 60.951751,48.959343 0 0 0 0.007,-0.01891 60.951751,48.959343 0 0 0 0.0997,-0.251286 60.951751,48.959343 0 0 0 0.0699,-0.179003 60.951751,48.959343 0 0 0 0.0493,-0.126931 60.951751,48.959343 0 0 0 0.0848,-0.221592 60.951751,48.959343 0 0 0 0.0652,-0.17384 60.951751,48.959343 0 0 0 0.0345,-0.09252 60.951751,48.959343 0 0 0 0.034,-0.09206 60.951751,48.959343 0 0 0 0.0671,-0.182007 60.951751,48.959343 0 0 0 0.0129,-0.03569 60.951751,48.959343 0 0 0 0.0824,-0.230205 60.951751,48.959343 0 0 0 0.0844,-0.238816 60.951751,48.959343 0 0 0 0.0268,-0.07704 60.951751,48.959343 0 0 0 0.0656,-0.191046 60.951751,48.959343 0 0 0 0.0148,-0.04301 60.951751,48.959343 0 0 0 0.0757,-0.225477 60.951751,48.959343 0 0 0 0.0853,-0.259035 60.951751,48.959343 0 0 0 0.0738,-0.228054 60.951751,48.959343 0 0 0 0.0426,-0.134681 60.951751,48.959343 0 0 0 0.0436,-0.138121 60.951751,48.959343 0 0 0 0.0704,-0.228044 60.951751,48.959343 0 0 0 0.0661,-0.218588 60.951751,48.959343 0 0 0 0.0177,-0.05813 60.951751,48.959343 0 0 0 0.044,-0.148884 60.951751,48.959343 0 0 0 0.0374,-0.127793 60.951751,48.959343 0 0 0 0.0221,-0.07704 60.951751,48.959343 0 0 0 0.057,-0.199222 60.951751,48.959343 0 0 0 0.006,-0.01845 60.951751,48.959343 0 0 0 0.069,-0.247411 60.951751,48.959343 0 0 0 0.0652,-0.239669 60.951751,48.959343 0 0 0 0.0316,-0.118328 60.951751,48.959343 0 0 0 0.0378,-0.141996 60.951751,48.959343 0 0 0 0.0609,-0.235368 60.951751,48.959343 0 0 0 0.044,-0.172968 60.951751,48.959343 0 0 0 0.0349,-0.141134 60.951751,48.959343 0 0 0 0.0575,-0.235803 60.951751,48.959343 0 0 0 0.057,-0.239234 60.951751,48.959343 0 0 0 0.0608,-0.263773 60.951751,48.959343 0 0 0 0.0546,-0.243108 60.951751,48.959343 0 0 0 0.006,-0.0254 60.951751,48.959343 0 0 0 0.0527,-0.243109 60.951751,48.959343 0 0 0 0.005,-0.02364 60.951751,48.959343 0 0 0 0.0541,-0.257311 60.951751,48.959343 0 0 0 0.0537,-0.264625 60.951751,48.959343 0 0 0 0.0426,-0.216438 60.951751,48.959343 0 0 0 0.0124,-0.06239 60.951751,48.959343 0 0 0 0.0354,-0.189331 60.951751,48.959343 0 0 0 0.0168,-0.08992 60.951751,48.959343 0 0 0 0.0134,-0.07491 60.951751,48.959343 0 0 0 0.0388,-0.214268 60.951751,48.959343 0 0 0 0.0378,-0.214723 60.951751,48.959343 0 0 0 0.0436,-0.261186 60.951751,48.959343 0 0 0 9.3e-4,-0.0046 60.951751,48.959343 0 0 0 0.0245,-0.151025 60.951751,48.959343 0 0 0 0.0225,-0.14157 60.951751,48.959343 0 0 0 0.0364,-0.237509 60.951751,48.959343 0 0 0 0.0393,-0.26635 60.951751,48.959343 0 0 0 0.0321,-0.23064 60.951751,48.959343 0 0 0 0.008,-0.0559 60.951751,48.959343 0 0 0 0.0139,-0.105423 60.951751,48.959343 0 0 0 0.023,-0.171254 60.951751,48.959343 0 0 0 0.0297,-0.236656 60.951751,48.959343 0 0 0 0.0201,-0.169103 60.951751,48.959343 0 0 0 0.0177,-0.150172 60.951751,48.959343 0 0 0 0.0263,-0.23407 60.951751,48.959343 0 0 0 0.0177,-0.167378 60.951751,48.959343 0 0 0 0.0115,-0.107148 60.951751,48.959343 0 0 0 0.0235,-0.240532 60.951751,48.959343 0 0 0 0.0153,-0.163939 60.951751,48.959343 0 0 0 0.0139,-0.155753 60.951751,48.959343 0 0 0 0.0197,-0.234506 60.951751,48.959343 0 0 0 0.0106,-0.132104 60.951751,48.959343 0 0 0 0.012,-0.1549 60.951751,48.959343 0 0 0 0.0163,-0.228907 60.951751,48.959343 0 0 0 0.0172,-0.268074 60.951751,48.959343 0 0 0 0.0115,-0.193623 60.951751,48.959343 0 0 0 0.006,-0.09252 60.951751,48.959343 0 0 0 0.0124,-0.249561 60.951751,48.959343 0 0 0 0.012,-0.268065 60.951751,48.959343 0 0 0 0.0101,-0.268074 60.951751,48.959343 0 0 0 0.006,-0.22632 60.951751,48.959343 0 0 0 0.002,-0.06239 60.951751,48.959343 0 0 0 0.003,-0.09767 60.951751,48.959343 0 0 0 0.005,-0.186317 60.951751,48.959343 0 0 0 0.004,-0.231493 60.951751,48.959343 0 0 0 0.003,-0.268065 60.951751,48.959343 0 0 0 9.3e-4,-0.268074 60.951751,48.959343 0 0 0 -9.3e-4,-0.236221 60.951751,48.959343 0 0 0 -9.3e-4,-0.127358 60.951751,48.959343 0 0 0 -0.002,-0.149745 60.951751,48.959343 0 0 0 -0.002,-0.06842 60.951751,48.959343 0 0 0 -0.003,-0.187171 60.951751,48.959343 0 0 0 -0.005,-0.179866 60.951751,48.959343 0 0 0 -0.002,-0.07528 60.951751,48.959343 0 0 0 -0.005,-0.146733 60.951751,48.959343 0 0 0 -0.004,-0.129082 60.951751,48.959343 0 0 0 -0.006,-0.159637 60.951751,48.959343 0 0 0 -0.005,-0.116187 60.951751,48.959343 0 0 0 -0.005,-0.09681 60.951751,48.959343 0 0 0 -0.006,-0.163939 60.951751,48.959343 0 0 0 -0.0101,-0.199639 60.951751,48.959343 0 0 0 -0.003,-0.05293 60.951751,48.959343 0 0 0 -0.006,-0.112303 60.951751,48.959343 0 0 0 -0.0124,-0.210838 60.951751,48.959343 0 0 0 -0.0139,-0.216002 60.951751,48.959343 0 0 0 -0.0148,-0.2117 60.951751,48.959343 0 0 0 -0.004,-0.05294 60.951751,48.959343 0 0 0 -0.008,-0.110161 60.951751,48.959343 0 0 0 -0.0168,-0.212562 60.951751,48.959343 0 0 0 -0.0187,-0.220304 60.951751,48.959343 0 0 0 -0.004,-0.04691 60.951751,48.959343 0 0 0 -0.006,-0.07361 60.951751,48.959343 0 0 0 -0.0182,-0.194049 60.951751,48.959343 0 0 0 -0.0197,-0.197507 60.951751,48.959343 0 0 0 -0.0273,-0.26419 60.951751,48.959343 0 0 0 -0.0297,-0.267212 60.951751,48.959343 0 0 0 -0.0187,-0.160064 60.951751,48.959343 0 0 0 -0.0215,-0.17943 60.951751,48.959343 0 0 0 -0.0249,-0.197071 60.951751,48.959343 0 0 0 -0.0345,-0.263764 60.951751,48.959343 0 0 0 -0.0273,-0.196645 60.951751,48.959343 0 0 0 -0.0484,-0.337769 60.951751,48.959343 0 0 0 -0.0278,-0.182017 60.951751,48.959343 0 0 0 -0.0211,-0.137685 60.951751,48.959343 0 0 0 -0.034,-0.210847 60.951751,48.959343 0 0 0 -0.034,-0.206528 60.951751,48.959343 0 0 0 -0.0197,-0.114453 60.951751,48.959343 0 0 0 -0.01,-0.05423 60.951751,48.959343 0 0 0 -0.0364,-0.20827 60.951751,48.959343 0 0 0 -0.0383,-0.213416 60.951751,48.959343 0 0 0 -0.0402,-0.216864 60.951751,48.959343 0 0 0 -0.0153,-0.08047 60.951751,48.959343 0 0 0 -0.0455,-0.23279 60.951751,48.959343 0 0 0 -0.0532,-0.264626 60.951751,48.959343 0 0 0 -0.0551,-0.264616 60.951751,48.959343 0 0 0 -0.0464,-0.216437 60.951751,48.959343 0 0 0 -0.0172,-0.07963 60.951751,48.959343 0 0 0 -0.0517,-0.232355 60.951751,48.959343 0 0 0 -0.0603,-0.263346 60.951751,48.959343 0 0 0 -0.0623,-0.263754 60.951751,48.959343 0 0 0 -0.0537,-0.220303 60.951751,48.959343 0 0 0 -0.0206,-0.0852 60.951751,48.959343 0 0 0 -0.0216,-0.08696 60.951751,48.959343 0 0 0 -0.0422,-0.166952 60.951751,48.959343 0 0 0 -0.0594,-0.229342 60.951751,48.959343 0 0 0 -0.0585,-0.222028 60.951751,48.959343 0 0 0 -0.0163,-0.06193 60.951751,48.959343 0 0 0 -0.0489,-0.178577 60.951751,48.959343 0 0 0 -0.0272,-0.09982 60.951751,48.959343 0 0 0 -0.0273,-0.0981 60.951751,48.959343 0 0 0 -0.046,-0.163512 60.951751,48.959343 0 0 0 -0.0398,-0.138557 60.951751,48.959343 0 0 0 -0.0321,-0.112302 60.951751,48.959343 0 0 0 -0.0503,-0.171689 60.951751,48.959343 0 0 0 -0.0263,-0.08863 60.951751,48.959343 0 0 0 -0.0364,-0.122194 60.951751,48.959343 0 0 0 -0.0446,-0.146733 60.951751,48.959343 0 0 0 -0.0541,-0.175981 60.951751,48.959343 0 0 0 -0.0273,-0.08733 60.951751,48.959343 0 0 0 -0.023,-0.07361 60.951751,48.959343 0 0 0 -0.0575,-0.182443 60.951751,48.959343 0 0 0 -0.0618,-0.190619 60.951751,48.959343 0 0 0 -0.0168,-0.05164 60.951751,48.959343 0 0 0 -0.0445,-0.135543 60.951751,48.959343 0 0 0 -0.0488,-0.148439 60.951751,48.959343 0 0 0 -0.0551,-0.162651 60.951751,48.959343 0 0 0 -0.0221,-0.06582 60.951751,48.959343 0 0 0 -0.0718,-0.207825 60.951751,48.959343 0 0 0 -0.0225,-0.06489 60.951751,48.959343 0 0 0 -0.0469,-0.133393 60.951751,48.959343 0 0 0 -0.0441,-0.126079 60.951751,48.959343 0 0 0 -0.0719,-0.199222 60.951751,48.959343 0 0 0 -0.0148,-0.04135 60.951751,48.959343 0 0 0 -0.0877,-0.239234 60.951751,48.959343 0 0 0 -0.005,-0.01112 60.951751,48.959343 0 0 0 -0.068,-0.183305 60.951751,48.959343 0 0 0 -0.0383,-0.101549 60.951751,48.959343 0 0 0 -0.0585,-0.153602 60.951751,48.959343 0 0 0 -0.0393,-0.101985 60.951751,48.959343 0 0 0 -0.0508,-0.131233 60.951751,48.959343 0 0 0 -0.0451,-0.115751 60.951751,48.959343 0 0 0 -0.0929,-0.234079 60.951751,48.959343 0 0 0 -0.0844,-0.209976 60.951751,48.959343 0 0 0 -0.0283,-0.06925 60.951751,48.959343 0 0 0 -0.0877,-0.212989 60.951751,48.959343 0 0 0 -0.011,-0.02577 60.951751,48.959343 0 0 0 -0.0618,-0.148884 60.951751,48.959343 0 0 0 -0.0599,-0.141124 60.951751,48.959343 0 0 0 -0.0412,-0.09767 60.951751,48.959343 0 0 0 -0.0652,-0.152323 60.951751,48.959343 0 0 0 -0.0469,-0.107574 60.951751,48.959343 0 0 0 -0.0594,-0.13597 60.951751,48.959343 0 0 0 -0.0733,-0.166517 60.951751,48.959343 0 0 0 -0.0326,-0.07361 60.951751,48.959343 0 0 0 -0.10537,-0.234079 60.951751,48.959343 0 0 0 -0.11499,-0.251712 60.951751,48.959343 0 0 0 -0.0877,-0.188895 60.951751,48.959343 0 0 0 -0.0498,-0.106277 60.951751,48.959343 0 0 0 -0.0978,-0.206536 60.951751,48.959343 0 0 0 -0.0752,-0.157487 60.951751,48.959343 0 0 0 -0.0767,-0.158775 60.951751,48.959343 0 0 0 -0.09,-0.183732 60.951751,48.959343 0 0 0 -0.12361,-0.249134 60.951751,48.959343 0 0 0 -0.0977,-0.194059 60.951751,48.959343 0 0 0 -0.0551,-0.108427 60.951751,48.959343 0 0 0 -0.0158,-0.03143 60.951751,48.959343 0 0 0 -0.11832,-0.229778 60.951751,48.959343 0 0 0 -0.0944,-0.181571 60.951751,48.959343 0 0 0 -0.12983,-0.245269 60.951751,48.959343 0 0 0 -0.11305,-0.211701 60.951751,48.959343 0 0 0 -0.0268,-0.04941 60.951751,48.959343 0 0 0 -0.12551,-0.231067 60.951751,48.959343 0 0 0 -0.12313,-0.223316 60.951751,48.959343 0 0 0 -0.0197,-0.03532 60.951751,48.959343 0 0 0 -0.10442,-0.185456 60.951751,48.959343 0 0 0 -0.036,-0.06369 60.951751,48.959343 0 0 0 -0.0723,-0.127794 60.951751,48.959343 0 0 0 -0.08,-0.140271 60.951751,48.959343 0 0 0 -0.11403,-0.197507 60.951751,48.959343 0 0 0 -0.003,-0.0037 60.951751,48.959343 0 0 0 -0.14038,-0.23967 60.951751,48.959343 0 0 0 -0.003,-0.0046 60.951751,48.959343 0 0 0 -0.14274,-0.240105 60.951751,48.959343 0 0 0 -0.11882,-0.197925 60.951751,48.959343 0 0 0 -0.0436,-0.07185 60.951751,48.959343 0 0 0 -0.12984,-0.212127 60.951751,48.959343 0 0 0 -0.14851,-0.240105 60.951751,48.959343 0 0 0 -0.1236,-0.197498 60.951751,48.959343 0 0 0 -0.0532,-0.08436 60.951751,48.959343 0 0 0 -0.0383,-0.06017 60.951751,48.959343 0 0 0 -0.12551,-0.196219 60.951751,48.959343 0 0 0 -0.11499,-0.178141 60.951751,48.959343 0 0 0 -0.15521,-0.23751 60.951751,48.959343 0 0 0 -0.15666,-0.236656 60.951751,48.959343 0 0 0 -0.13175,-0.197072 60.951751,48.959343 0 0 0 -0.0325,-0.04858 60.951751,48.959343 0 0 0 -0.13461,-0.197498 60.951751,48.959343 0 0 0 -0.0311,-0.04561 60.951751,48.959343 0 0 0 -0.11496,-0.167383 60.951751,48.959343 0 0 0 -0.044,-0.0637 60.951751,48.959343 0 0 0 -0.1121,-0.160927 60.951751,48.959343 0 0 0 -0.0676,-0.09596 60.951751,48.959343 0 0 0 -0.13893,-0.196638 60.951751,48.959343 0 0 0 -0.16625,-0.232352 60.951751,48.959343 0 0 0 -0.092,-0.126937 60.951751,48.959343 0 0 0 -0.11017,-0.152318 60.951751,48.959343 0 0 0 -0.0369,-0.04946 60.951751,48.959343 0 0 0 -0.14467,-0.196639 60.951751,48.959343 0 0 0 -0.16336,-0.219012 60.951751,48.959343 0 0 0 -0.13414,-0.178145 60.951751,48.959343 0 0 0 -0.1442,-0.189754 60.951751,48.959343 0 0 0 -0.0436,-0.05679 60.951751,48.959343 0 0 0 -0.10781,-0.140276 60.951751,48.959343 0 0 0 -0.0886,-0.114024 60.951751,48.959343 0 0 0 -0.0503,-0.06495 60.951751,48.959343 0 0 0 -0.11976,-0.152749 60.951751,48.959343 0 0 0 -0.0934,-0.118761 60.951751,48.959343 0 0 0 -0.0714,-0.08951 60.951751,48.959343 0 0 0 -0.34923,-0.434152 60.951751,48.959343 0 0 0 -0.18348,-0.223752 60.951751,48.959343 0 0 0 -0.18491,-0.223317 60.951751,48.959343 0 0 0 -0.16671,-0.198786 60.951751,48.959343 0 0 0 -0.0321,-0.03872 60.951751,48.959343 0 0 0 -0.1442,-0.169956 60.951751,48.959343 0 0 0 -0.0378,-0.0448 60.951751,48.959343 0 0 0 -0.15953,-0.185024 60.951751,48.959343 0 0 0 -0.0235,-0.02756 l 1.86932,-34.409014 c 0.005,-0.0893 -0.0434,-0.139161 -0.11687,-0.134247 -0.0245,0.0017 -0.0519,0.0093 -0.0809,0.02367 l -32.24682,16.039725 a 60.951751,48.959343 0 0 0 -0.2079,-0.05594 60.951751,48.959343 0 0 0 -0.0546,-0.01463 60.951751,48.959343 0 0 0 -0.22563,-0.05981 60.951751,48.959343 0 0 0 -0.29893,-0.07831 60.951751,48.959343 0 0 0 -0.3181,-0.08176 60.951751,48.959343 0 0 0 -0.22853,-0.05766 60.951751,48.959343 0 0 0 -0.12455,-0.03141 60.951751,48.959343 0 0 0 -0.11642,-0.02883 60.951751,48.959343 0 0 0 -0.26538,-0.06497 60.951751,48.959343 0 0 0 -0.22231,-0.05378 60.951751,48.959343 0 0 0 -0.26921,-0.06411 60.951751,48.959343 0 0 0 -0.0723,-0.01722 60.951751,48.959343 0 0 0 -0.16338,-0.03786 60.951751,48.959343 0 0 0 -0.19594,-0.04518 60.951751,48.959343 0 0 0 -0.0206,-0.0047 60.951751,48.959343 0 0 0 -0.2587,-0.05895 60.951751,48.959343 0 0 0 -0.23423,-0.05206 60.951751,48.959343 0 0 0 -0.092,-0.02065 60.951751,48.959343 0 0 0 -0.11021,-0.02409 60.951751,48.959343 0 0 0 -0.25148,-0.05465 60.951751,48.959343 0 0 0 -0.13319,-0.0284 60.951751,48.959343 0 0 0 -0.12696,-0.02711 60.951751,48.959343 0 0 0 -0.25056,-0.05249 60.951751,48.959343 0 0 0 -0.11687,-0.02409 60.951751,48.959343 0 0 0 -0.0546,-0.01119 60.951751,48.959343 0 0 0 -0.28696,-0.05852 60.951751,48.959343 0 0 0 -0.28599,-0.05679 60.951751,48.959343 0 0 0 -0.19596,-0.0383 60.951751,48.959343 0 0 0 -0.14084,-0.02711 60.951751,48.959343 0 0 0 -0.28791,-0.05508 60.951751,48.959343 0 0 0 -0.32529,-0.06023 60.951751,48.959343 0 0 0 -0.32529,-0.05895 60.951751,48.959343 0 0 0 -0.32623,-0.05766 60.951751,48.959343 0 0 0 -0.22995,-0.03959 60.951751,48.959343 0 0 0 -0.13463,-0.02324 60.951751,48.959343 0 0 0 -0.10155,-0.01678 60.951751,48.959343 0 0 0 -0.24577,-0.04087 60.951751,48.959343 0 0 0 -0.48674,-0.07831 60.951751,48.959343 0 0 0 -0.14371,-0.02237 60.951751,48.959343 0 0 0 -0.12215,-0.01893 60.951751,48.959343 0 0 0 -0.23522,-0.03571 60.951751,48.959343 0 0 0 -0.32817,-0.04862 60.951751,48.959343 0 0 0 -0.30085,-0.04346 60.951751,48.959343 0 0 0 -0.11161,-0.01549 60.951751,48.959343 0 0 0 -0.24482,-0.03399 60.951751,48.959343 0 0 0 -0.32958,-0.04432 60.951751,48.959343 0 0 0 -0.30326,-0.03958 60.951751,48.959343 0 0 0 -0.0977,-0.01248 60.951751,48.959343 0 0 0 -0.25821,-0.03227 60.951751,48.959343 0 0 0 -0.27498,-0.03313 60.951751,48.959343 0 0 0 -0.22758,-0.02668 60.951751,48.959343 0 0 0 -0.14084,-0.01635 60.951751,48.959343 0 0 0 -0.2836,-0.03227 60.951751,48.959343 0 0 0 -0.33056,-0.03571 60.951751,48.959343 0 0 0 -0.33103,-0.03442 60.951751,48.959343 0 0 0 -0.33152,-0.03313 60.951751,48.959343 0 0 0 -0.3315,-0.03141 60.951751,48.959343 0 0 0 -0.19834,-0.01807 60.951751,48.959343 0 0 0 -0.18204,-0.01635 60.951751,48.959343 0 0 0 -0.28313,-0.02409 60.951751,48.959343 0 0 0 -0.30614,-0.02496 60.951751,48.959343 0 0 0 -0.0383,-0.003 60.951751,48.959343 0 0 0 -0.16144,-0.01248 60.951751,48.959343 0 0 0 -0.21127,-0.01635 60.951751,48.959343 0 0 0 -0.27979,-0.02023 60.951751,48.959343 0 0 0 -0.29414,-0.02023 60.951751,48.959343 0 0 0 -0.057,-0.0039 60.951751,48.959343 0 0 0 -0.1418,-0.009 60.951751,48.959343 0 0 0 -0.22995,-0.01463 60.951751,48.959343 0 0 0 -0.0287,-0.0018 60.951751,48.959343 0 0 0 -0.3114,-0.01807 60.951751,48.959343 0 0 0 -0.29365,-0.01592 60.951751,48.959343 0 0 0 -0.11978,-0.006 60.951751,48.959343 0 0 0 -0.23617,-0.01205 60.951751,48.959343 0 0 0 -0.28505,-0.0129 60.951751,48.959343 0 0 0 -0.26443,-0.01119 60.951751,48.959343 0 0 0 -0.092,-0.0039 60.951751,48.959343 0 0 0 -0.16672,-0.006 60.951751,48.959343 0 0 0 -0.19163,-0.0073 60.951751,48.959343 0 0 0 -0.43739,-0.01334 60.951751,48.959343 0 0 0 -0.2467,-0.007 60.951751,48.959343 0 0 0 -0.16863,-0.0044 60.951751,48.959343 0 0 0 -0.10013,-0.0021 60.951751,48.959343 0 0 0 -0.21319,-0.0044 60.951751,48.959343 0 0 0 -0.18539,-0.0034 60.951751,48.959343 0 0 0 -0.29655,-0.0047 60.951751,48.959343 0 0 0 -0.1854,-0.0018 60.951751,48.959343 0 0 0 -0.18588,-0.0018 60.951751,48.959343 0 0 0 -0.26875,-0.0018 60.951751,48.959343 0 0 0 -0.3339,-8.33e-4 60.951751,48.959343 0 0 0 -0.3339,8.33e-4 60.951751,48.959343 0 0 0 -0.26876,0.0018 60.951751,48.959343 0 0 0 -0.1859,0.0018 60.951751,48.959343 0 0 0 -0.18538,0.0018 60.951751,48.959343 0 0 0 -0.0273,4.31e-4 60.951751,48.959343 0 0 0 -0.26924,0.0044 60.951751,48.959343 0 0 0 -0.18541,0.0034 60.951751,48.959343 0 0 0 -0.21317,0.0044 60.951751,48.959343 0 0 0 -0.26875,0.0065 60.951751,48.959343 0 0 0 -0.24673,0.007 60.951751,48.959343 0 0 0 -0.0867,0.0021 60.951751,48.959343 0 0 0 -0.0652,0.0021 60.951751,48.959343 0 0 0 -0.28553,0.009 60.951751,48.959343 0 0 0 -0.19161,0.0073 60.951751,48.959343 0 0 0 -0.16672,0.006 60.951751,48.959343 0 0 0 -0.092,0.0039 60.951751,48.959343 0 0 0 -0.26444,0.01119 60.951751,48.959343 0 0 0 -0.28504,0.0129 60.951751,48.959343 0 0 0 -0.23619,0.01205 60.951751,48.959343 0 0 0 -0.11976,0.006 60.951751,48.959343 0 0 0 -0.0254,0.0013 60.951751,48.959343 0 0 0 -0.26829,0.01463 60.951751,48.959343 0 0 0 -0.31138,0.01807 60.951751,48.959343 0 0 0 -0.0287,0.0018 60.951751,48.959343 0 0 0 -0.22996,0.01463 60.951751,48.959343 0 0 0 -0.1418,0.009 60.951751,48.959343 0 0 0 -0.057,0.0039 60.951751,48.959343 0 0 0 -0.29416,0.02023 60.951751,48.959343 0 0 0 -0.27977,0.02023 60.951751,48.959343 0 0 0 -0.21126,0.01635 60.951751,48.959343 0 0 0 -0.16145,0.01248 60.951751,48.959343 0 0 0 -0.0384,0.003 60.951751,48.959343 0 0 0 -0.30611,0.02496 60.951751,48.959343 0 0 0 -0.28313,0.02409 60.951751,48.959343 0 0 0 -0.18205,0.01635 60.951751,48.959343 0 0 0 -0.13414,0.01205 60.951751,48.959343 0 0 0 -0.0642,0.006 60.951751,48.959343 0 0 0 -0.33152,0.03141 60.951751,48.959343 0 0 0 -0.33149,0.03313 60.951751,48.959343 0 0 0 -0.26684,0.02753 60.951751,48.959343 0 0 0 -0.0641,0.007 60.951751,48.959343 0 0 0 -0.33057,0.03571 60.951751,48.959343 0 0 0 -0.28359,0.03227 60.951751,48.959343 0 0 0 -0.14085,0.01635 60.951751,48.959343 0 0 0 -0.22757,0.02668 60.951751,48.959343 0 0 0 -0.009,8.32e-4 60.951751,48.959343 0 0 0 -0.26588,0.03227 60.951751,48.959343 0 0 0 -0.29414,0.037 60.951751,48.959343 0 0 0 -0.0475,0.006 60.951751,48.959343 0 0 0 -0.0522,0.0065 60.951751,48.959343 0 0 0 -0.26541,0.03486 60.951751,48.959343 0 0 0 -0.32958,0.04432 60.951751,48.959343 0 0 0 -0.24482,0.03399 60.951751,48.959343 0 0 0 -0.11162,0.01549 60.951751,48.959343 0 0 0 -0.0359,0.0052 60.951751,48.959343 0 0 0 -0.26493,0.0383 60.951751,48.959343 0 0 0 -0.32816,0.04862 60.951751,48.959343 0 0 0 -0.23523,0.03571 60.951751,48.959343 0 0 0 -0.12215,0.01893 60.951751,48.959343 0 0 0 -0.14373,0.02237 60.951751,48.959343 0 0 0 -0.15472,0.02452 60.951751,48.959343 0 0 0 -0.0637,0.01033 60.951751,48.959343 0 0 0 -0.26827,0.04345 60.951751,48.959343 0 0 0 -0.24576,0.04087 60.951751,48.959343 0 0 0 -0.10157,0.01678 60.951751,48.959343 0 0 0 -0.13462,0.02324 60.951751,48.959343 0 0 0 -0.22994,0.03958 60.951751,48.959343 0 0 0 -0.32626,0.05766 60.951751,48.959343 0 0 0 -0.26203,0.04733 60.951751,48.959343 0 0 0 -0.0632,0.01162 60.951751,48.959343 0 0 0 -0.32529,0.06024 60.951751,48.959343 0 0 0 -0.28792,0.05508 60.951751,48.959343 0 0 0 -0.14086,0.02712 60.951751,48.959343 0 0 0 -0.19353,0.03787 60.951751,48.959343 0 0 0 -0.0273,0.0052 60.951751,48.959343 0 0 0 -0.26061,0.05206 60.951751,48.959343 0 0 0 -0.29414,0.05981 60.951751,48.959343 0 0 0 -0.0479,0.0099 60.951751,48.959343 0 0 0 -0.11688,0.02409 60.951751,48.959343 0 0 0 -0.25056,0.05249 60.951751,48.959343 0 0 0 -0.26014,0.0555 60.951751,48.959343 0 0 0 -0.25151,0.05465 60.951751,48.959343 0 0 0 -0.11018,0.02409 60.951751,48.959343 0 0 0 -0.092,0.02065 60.951751,48.959343 0 0 0 -0.23426,0.05206 60.951751,48.959343 0 0 0 -0.2587,0.05895 60.951751,48.959343 0 0 0 -0.0206,0.0047 60.951751,48.959343 0 0 0 -0.19595,0.04517 60.951751,48.959343 0 0 0 -0.16336,0.03786 60.951751,48.959343 0 0 0 -0.0723,0.01722 60.951751,48.959343 0 0 0 -0.26924,0.06411 60.951751,48.959343 0 0 0 -0.25772,0.06239 60.951751,48.959343 0 0 0 -0.22995,0.05637 60.951751,48.959343 0 0 0 -0.11644,0.02882 60.951751,48.959343 0 0 0 -0.12455,0.03141 60.951751,48.959343 0 0 0 -0.22851,0.05766 60.951751,48.959343 0 0 0 -0.31809,0.08176 60.951751,48.959343 0 0 0 -0.29893,0.07831 60.951751,48.959343 0 0 0 -0.22566,0.05981 60.951751,48.959343 0 0 0 -0.0546,0.01463 60.951751,48.959343 0 0 0 -0.20792,0.05594 l -32.24482,-16.04197 c -0.029,-0.01443 -0.0565,-0.02204 -0.0809,-0.02367 z" />
            <g
               id="g883"
               transform="matrix(0.9270467,0,0,0.9270467,-17.720378,5.4060417)"
               style="stroke:#56007b;stroke-width:3.11527;stroke-miterlimit:4;stroke-dasharray:none;stroke-opacity:1">
              <path
                 style="fill:none;stroke:#56007b;stroke-width:3.11527;stroke-linecap:round;stroke-linejoin:miter;stroke-miterlimit:4;stroke-dasharray:none;stroke-opacity:1"
                 d="m -327.44077,95.06101 c 1.16926,12.55301 -12.56111,17.09697 -19.46577,7.74851"
                 id="path872"
                 sodipodi:nodetypes="cc" />
              <path
                 style="fill:#000000;fill-opacity:0;stroke:#56007b;stroke-width:3.11527;stroke-linecap:round;stroke-linejoin:miter;stroke-miterlimit:4;stroke-dasharray:none;stroke-opacity:1"
                 d="m -327.22589,95.06101 c -1.16926,12.55301 12.56111,17.09697 19.46577,7.74851"
                 id="path874"
                 sodipodi:nodetypes="cc" />
            </g>
            <path
               sodipodi:type="spiral"
               style="fill:none;fill-rule:evenodd;stroke:#56007b;stroke-width:2.888;stroke-linecap:round;stroke-miterlimit:4;stroke-dasharray:none;stroke-opacity:1"
               id="path1471"
               sodipodi:cx="-298.70724"
               sodipodi:cy="69.398956"
               sodipodi:expansion="1"
               sodipodi:revolution="2.3"
               sodipodi:radius="11.669154"
               sodipodi:argument="-18.295248"
               sodipodi:t0="0"
               d="m -298.70724,69.398956 c 0.64887,0.401682 -0.22133,1.07284 -0.66763,1.078465 -1.20942,0.01524 -1.74059,-1.41349 -1.4893,-2.413708 0.44949,-1.789153 2.54737,-2.47998 4.15979,-1.90015 2.36629,0.850923 3.23659,3.694944 2.31099,5.905879 -1.23368,2.946829 -4.84715,4.000266 -7.65196,2.721837 -3.52957,-1.608773 -4.76753,-6.001517 -3.13268,-9.398051 1.98002,-4.113659 7.15708,-5.53687 11.14414,-3.543523 4.6986,2.349091 6.3075,8.3134 3.95436,12.890223 -2.71679,5.284122 -9.47022,7.079008 -14.63631,4.365208 -1.07301,-0.563662 -2.05405,-1.29909 -2.89893,-2.167934"
               transform="rotate(-61.586854,-298.30996,70.659163)" />
            <path
               style="fill:#000000;fill-opacity:0;stroke:#56007b;stroke-width:2.888;stroke-linecap:round;stroke-linejoin:miter;stroke-miterlimit:4;stroke-dasharray:none;stroke-opacity:1"
               d="m -330.8812,105.78635 c 2.96388,11.30555 16.3656,10.90778 19.41431,0.5741"
               id="path874-9"
               sodipodi:nodetypes="cc" />
          </g>
          <g
             id="g948"
             style="fill:#56007b;fill-opacity:1;stroke:none"
             transform="matrix(-0.08228499,0.12784991,-0.12784991,-0.08228499,-254.2721,109.41193)"
             inkscape:transform-center-x="3.8997007"
             inkscape:transform-center-y="7.3311565">
            <path
               style="fill:#56007b;fill-opacity:1;stroke:none;stroke-width:0.264583px;stroke-linecap:butt;stroke-linejoin:miter;stroke-opacity:1"
               d="m -610.97981,129.96454 c -5.32916,2.01654 -17.80012,4.66695 -5.70993,11.80236 8.47907,5.00419 32.97437,14.86488 53.36394,8.30862 2.49511,-0.8023 0.97115,-1.30138 -0.0356,-1.62484 -9.54596,-3.067 -27.85987,-4.45985 -34.70402,-0.14927 -5.128,-1.21863 -6.66009,-1.7681 -10.38958,-3.53588 9.50427,-3.96199 17.41565,-7.06075 36.46608,-6.74045 24.82383,0.41737 31.70673,20.49295 0.93545,22.18337 -28.281,1.55362 -63.65601,-10.85277 -60.46973,-23.65335 1.88304,-7.56491 8.77202,-10.45204 11.0753,-10.87699 3.18135,1.51048 5.73626,2.82999 9.46809,4.28643 z"
               id="path873"
               sodipodi:nodetypes="csssccssscc" />
            <path
               style="fill:#56007b;fill-opacity:1;stroke:none;stroke-width:0.264583px;stroke-linecap:butt;stroke-linejoin:miter;stroke-opacity:1"
               d="m -616.38093,153.26622 c 3.27257,1.77191 6.52751,2.582 10.49343,3.74717 -3.45887,2.36877 -8.01606,4.32768 -9.31856,7.27851 0.74707,7.5788 -10.74238,7.13621 -8.62995,-1.50139 1.00315,-4.10178 4.01093,-6.66803 7.45508,-9.52429 z"
               id="path875"
               sodipodi:nodetypes="cccsc" />
            <path
               style="fill:#56007b;fill-opacity:1;stroke:none;stroke-width:0.264583px;stroke-linecap:butt;stroke-linejoin:miter;stroke-miterlimit:4;stroke-dasharray:none;stroke-opacity:1"
               d="m -623.12763,45.795884 c 22.03663,-12.277123 49.58395,-7.783708 56.13864,-6.562138 11.42511,2.088592 17.29602,9.155543 12.89773,13.717809 -3.05093,2.562054 -6.766,0.738973 -7.40396,-2.230899 -11.70133,-7.175473 -40.47,-5.382438 -51.85414,-1.220177 -5.03045,1.839226 -12.78279,6.724967 -3.44208,13.739485 7.73839,5.811235 33.90158,13.028358 53.36394,8.30862 2.5471,-0.617687 0.98186,-1.33685 -0.0356,-1.62484 -9.10199,-2.5763 -25.90032,-2.674947 -35.36698,-1.262887 -4.93901,-1.313125 -6.67016,-1.879782 -9.54238,-3.082283 10.7738,-3.05995 21.46435,-4.069211 36.23459,-4.001511 23.89955,1.23739 30.54549,17.043921 0.88821,18.734341 -28.27775,1.611789 -61.40693,-9.13242 -60.37524,-22.28319 0.56012,-7.13969 4.70583,-9.82441 8.49727,-12.23233 z"
               id="path873-8"
               sodipodi:nodetypes="ccccsssscccssc" />
            <path
               style="fill:#56007b;fill-opacity:1;stroke:none;stroke-width:0.264583px;stroke-linecap:butt;stroke-linejoin:miter;stroke-opacity:1"
               d="m -610.97981,103.69519 c -5.32916,2.01654 -17.80012,4.66695 -5.70993,11.80236 8.47907,5.00419 32.97437,14.86488 53.36394,8.30862 2.49511,-0.8023 0.97115,-1.30138 -0.0356,-1.62484 -9.54596,-3.067 -27.85987,-4.45985 -34.70402,-0.14927 -5.128,-1.21863 -6.66009,-1.7681 -10.38958,-3.53588 9.50427,-3.96199 17.41565,-7.06075 36.46608,-6.74045 24.82383,0.41737 31.70673,20.49295 0.93545,22.18337 -28.281,1.55362 -63.65601,-10.85277 -60.46973,-23.65335 1.88304,-7.56491 8.77202,-10.452035 11.0753,-10.876985 3.18135,1.510475 5.73626,2.829985 9.46809,4.286425 z"
               id="path939"
               sodipodi:nodetypes="csssccssscc" />
            <path
               style="fill:#56007b;fill-opacity:1;stroke:none;stroke-width:0.264583px;stroke-linecap:butt;stroke-linejoin:miter;stroke-opacity:1"
               d="m -610.97981,77.614833 c -5.32916,2.01654 -17.80012,4.66695 -5.70993,11.80236 8.47907,5.00419 32.97437,14.864877 53.36394,8.30862 2.49511,-0.8023 0.97115,-1.30138 -0.0356,-1.62484 -9.54596,-3.067 -27.85987,-4.45985 -34.70402,-0.14927 -5.128,-1.21863 -6.66009,-1.7681 -10.38958,-3.53588 9.50427,-3.96199 17.41565,-7.06075 36.46608,-6.74045 24.82383,0.41737 31.70673,20.492947 0.93545,22.183367 -28.281,1.55362 -63.65601,-10.852767 -60.46973,-23.653347 1.88304,-7.56491 8.77202,-10.452035 11.0753,-10.876985 3.18135,1.510475 5.73626,2.829985 9.46809,4.286425 z"
               id="path941"
               sodipodi:nodetypes="csssccssscc" />
          </g>
          <path
             style="fill:#000000;fill-opacity:0;stroke:#56007b;stroke-width:0.665;stroke-linecap:butt;stroke-linejoin:miter;stroke-miterlimit:4;stroke-dasharray:2.66, 5.32;stroke-dashoffset:0;stroke-opacity:1"
             d="m -275.72432,39.758461 c 8.81279,-24.642529 33.98134,-25.706952 47.26198,-18.613826"
             id="path950"
             sodipodi:nodetypes="cc" />
          <g
             id="g1016"
             transform="matrix(-0.02044972,-0.11685716,0.11685716,-0.02044972,-433.05589,-8.2624035)">
            <rect
               style="fill:#56007b;fill-opacity:1;stroke:none;stroke-width:0.365001;stroke-linecap:round;stroke-linejoin:round;stroke-miterlimit:4;stroke-dasharray:none;stroke-dashoffset:0;stroke-opacity:1;paint-order:stroke fill markers"
               id="rect954"
               width="48.75893"
               height="6.4255953"
               x="-457.18686"
               y="182.73106"
               ry="3.2127976"
               transform="rotate(17.680115)" />
            <rect
               style="fill:#56007b;fill-opacity:1;stroke:none;stroke-width:0.365001;stroke-linecap:round;stroke-linejoin:round;stroke-miterlimit:4;stroke-dasharray:none;stroke-dashoffset:0;stroke-opacity:1;paint-order:stroke fill markers"
               id="rect956"
               width="48.75893"
               height="6.4255953"
               x="-459.40436"
               y="174.52988"
               ry="3.2127976"
               transform="rotate(17.680115)" />
            <rect
               style="fill:#56007b;fill-opacity:1;stroke:none;stroke-width:0.365001;stroke-linecap:round;stroke-linejoin:round;stroke-miterlimit:4;stroke-dasharray:none;stroke-dashoffset:0;stroke-opacity:1;paint-order:stroke fill markers"
               id="rect958"
               width="48.75893"
               height="6.4255953"
               x="-462.2847"
               y="166.73831"
               ry="3.2127976"
               transform="rotate(17.680115)" />
            <rect
               style="fill:#56007b;fill-opacity:1;stroke:none;stroke-width:0.365001;stroke-linecap:round;stroke-linejoin:round;stroke-miterlimit:4;stroke-dasharray:none;stroke-dashoffset:0;stroke-opacity:1;paint-order:stroke fill markers"
               id="rect960"
               width="48.75893"
               height="6.4255953"
               x="-464.83359"
               y="158.74194"
               ry="3.2127976"
               transform="rotate(17.680115)" />
            <rect
               style="fill:#56007b;fill-opacity:1;stroke:none;stroke-width:0.365001;stroke-linecap:round;stroke-linejoin:round;stroke-miterlimit:4;stroke-dasharray:none;stroke-dashoffset:0;stroke-opacity:1;paint-order:stroke fill markers"
               id="rect962"
               width="48.75893"
               height="6.4255953"
               x="-467.38251"
               y="150.74557"
               ry="3.2127976"
               transform="rotate(17.680115)" />
            <rect
               style="fill:#56007b;fill-opacity:1;stroke:none;stroke-width:0.365001;stroke-linecap:round;stroke-linejoin:round;stroke-miterlimit:4;stroke-dasharray:none;stroke-dashoffset:0;stroke-opacity:1;paint-order:stroke fill markers"
               id="rect964"
               width="48.75893"
               height="6.4255953"
               x="-469.93143"
               y="142.74919"
               ry="3.2127976"
               transform="rotate(17.680115)" />
            <rect
               style="fill:#56007b;fill-opacity:1;stroke:none;stroke-width:0.365001;stroke-linecap:round;stroke-linejoin:round;stroke-miterlimit:4;stroke-dasharray:none;stroke-dashoffset:0;stroke-opacity:1;paint-order:stroke fill markers"
               id="rect966"
               width="48.75893"
               height="6.4255953"
               x="-472.48032"
               y="134.75282"
               ry="3.2127976"
               transform="rotate(17.680115)" />
            <rect
               style="fill:#56007b;fill-opacity:1;stroke:none;stroke-width:0.365001;stroke-linecap:round;stroke-linejoin:round;stroke-miterlimit:4;stroke-dasharray:none;stroke-dashoffset:0;stroke-opacity:1;paint-order:stroke fill markers"
               id="rect968"
               width="48.75893"
               height="6.4255953"
               x="-475.02924"
               y="126.75645"
               ry="3.2127976"
               transform="rotate(17.680115)" />
            <rect
               style="fill:#56007b;fill-opacity:1;stroke:none;stroke-width:0.365001;stroke-linecap:round;stroke-linejoin:round;stroke-miterlimit:4;stroke-dasharray:none;stroke-dashoffset:0;stroke-opacity:1;paint-order:stroke fill markers"
               id="rect970"
               width="48.75893"
               height="6.4255953"
               x="-477.57816"
               y="118.76007"
               ry="3.2127976"
               transform="rotate(17.680115)" />
            <rect
               style="fill:#56007b;fill-opacity:1;stroke:none;stroke-width:0.365001;stroke-linecap:round;stroke-linejoin:round;stroke-miterlimit:4;stroke-dasharray:none;stroke-dashoffset:0;stroke-opacity:1;paint-order:stroke fill markers"
               id="rect972"
               width="48.75893"
               height="6.4255953"
               x="-480.12704"
               y="110.76369"
               ry="3.2127976"
               transform="rotate(17.680115)" />
            <rect
               style="fill:#56007b;fill-opacity:1;stroke:none;stroke-width:0.365001;stroke-linecap:round;stroke-linejoin:round;stroke-miterlimit:4;stroke-dasharray:none;stroke-dashoffset:0;stroke-opacity:1;paint-order:stroke fill markers"
               id="rect974"
               width="48.75893"
               height="6.4255953"
               x="-482.67596"
               y="102.76733"
               ry="3.2127976"
               transform="rotate(17.680115)" />
            <path
               id="rect976"
               style="fill:#56007b;fill-opacity:1;stroke:none;stroke-width:0.365001;stroke-linecap:round;stroke-linejoin:round;stroke-miterlimit:4;stroke-dasharray:none;stroke-dashoffset:0;stroke-opacity:1;paint-order:stroke fill markers"
               d="m -488.11283,47.088025 v 11.646244 c 0,1.158356 2.70223,1.194908 3.21272,3.212722 l 0.99211,3.921503 h 30.42708 l 0.70857,-3.921503 c 0.66784,-1.924727 3.21272,-2.241856 3.21272,-3.212722 v -0.956603 c -0.0172,-0.305888 -0.11405,-0.335172 -0.38509,-0.421569 l -36.62143,-11.673694 c -0.66599,-0.142783 -1.52306,-0.126807 -1.54668,1.405633 z"
               sodipodi:nodetypes="csscscsccccc" />
            <path
               id="path987"
               style="fill:#56007b;fill-opacity:1;stroke:none;stroke-width:0.365001;stroke-linecap:round;stroke-linejoin:round;stroke-miterlimit:4;stroke-dasharray:none;stroke-dashoffset:0;stroke-opacity:1;paint-order:stroke fill markers"
               d="m -449.55963,-38.672439 v -25.111646 c 0,-1.779895 -1.43283,-3.212722 -3.21272,-3.212722 h -32.12776 c -1.7799,0 -3.21272,1.432827 -3.21272,3.212722 v 14.422005 c 0.0172,0.305888 0.11405,0.335172 0.38509,0.421569 l 36.62143,11.673694 c 0.66599,0.142783 1.52306,0.126807 1.54668,-1.405633 z"
               sodipodi:nodetypes="cssssccccc" />
            <g
               id="g998"
               transform="translate(3.003,-0.52916667)">
              <path
                 id="rect989"
                 style="fill:#56007b;fill-opacity:1;stroke:none;stroke-width:0.365001;stroke-linecap:round;stroke-linejoin:round;stroke-miterlimit:4;stroke-dasharray:none;stroke-dashoffset:0;stroke-opacity:1;paint-order:stroke fill markers"
                 d="m -504.90194,-96.59166 h 27.09937 c 1.51583,0 4.90952,5.354439 4.90952,6.870268 v 18.857787 c 0,1.515828 -1.22033,2.736152 -2.73616,2.736152 h -29.27273 c -1.51583,0 -2.73615,-1.220324 -2.73615,-2.736152 v -22.991902 c 0,-1.515829 1.22032,-2.736153 2.73615,-2.736153 z"
                 sodipodi:nodetypes="sssssssss" />
              <path
                 id="path994"
                 style="fill:#56007b;fill-opacity:1;stroke:none;stroke-width:0.365001;stroke-linecap:round;stroke-linejoin:round;stroke-miterlimit:4;stroke-dasharray:none;stroke-dashoffset:0;stroke-opacity:1;paint-order:stroke fill markers"
                 d="m -438.77652,-96.59166 h -27.09937 c -1.51583,0 -4.90952,5.354439 -4.90952,6.870268 v 18.857787 c 0,1.515828 1.22033,2.736152 2.73616,2.736152 h 29.27273 c 1.51583,0 2.73615,-1.220324 2.73615,-2.736152 v -22.991902 c 0,-1.515829 -1.22032,-2.736153 -2.73615,-2.736153 z"
                 sodipodi:nodetypes="sssssssss" />
            </g>
          </g>
          <path
             style="fill:#000000;fill-opacity:0;stroke:#56007b;stroke-width:0.665;stroke-linecap:butt;stroke-linejoin:miter;stroke-miterlimit:4;stroke-dasharray:2.66, 5.32;stroke-dashoffset:0;stroke-opacity:1"
             d="m -423.98199,39.417841 c 18.19425,-18.811933 41.56024,-9.398149 50.73171,2.542202"
             id="path1018"
             sodipodi:nodetypes="cc" />
        </g>
      </g>
    </g>
  </g>
</svg>
